<svg width="197" height="154" viewBox="0 0 197 154" fill="none" xmlns="http://www.w3.org/2000/svg">
<path d="M187.25 6.26221H100.474V113.138H187.25V6.26221Z" fill="#FFD602"/>
<path d="M105.096 30.7261H83.6289C83.6289 30.7261 105.096 52.9611 105.096 52.1321C105.096 51.3051 105.096 30.7261 105.096 30.7261Z" fill="#FFD602"/>
<path d="M56.9791 62.1665L4.1731 36.8555C4.1731 36.8555 2.7841 50.1325 15.1671 57.4475L7.5931 56.2515C7.5931 56.2515 8.7011 71.4855 24.8291 76.3255L18.9231 76.3525C18.9231 76.3525 29.2491 92.5105 54.5921 91.1775L56.9791 62.1665Z" fill="#A32929"/>
<path d="M82.109 53.4155C82.109 53.4155 77.843 54.9745 82.351 58.5085C82.351 58.5085 87.866 57.4235 88.899 55.8435C89.931 54.2625 82.109 53.4155 82.109 53.4155Z" fill="#FFD602"/>
<path d="M88.9751 55.5007V55.4987C88.7451 55.4827 83.9721 55.7457 80.8711 57.0287C81.1951 57.4787 81.6601 57.9677 82.3501 58.5077C82.3501 58.5077 87.8651 57.4227 88.8981 55.8427C88.9491 55.7647 88.9611 55.6897 88.9721 55.6147C88.9761 55.5767 88.9801 55.5387 88.9751 55.5007Z" fill="#FFB703"/>
<path d="M55.516 109.655L52.25 141.021C52.25 141.021 74.609 119.977 55.516 109.655Z" fill="#B72C2C"/>
<path d="M55.497 109.439L42.855 139.336C42.855 139.336 71.603 121.393 55.497 109.439Z" fill="#B72C2C"/>
<path d="M68.8162 111.041L65.5502 142.407C65.5502 142.407 48.0062 117.208 68.8162 111.041Z" fill="#B72C2C"/>
<path d="M68.878 110.833L75.091 142.694C75.091 142.694 50.656 119.211 68.878 110.833Z" fill="#B72C2C"/>
<path d="M56.5609 99.6001L53.2969 130.967C53.2969 130.967 75.6559 109.923 56.5609 99.6001Z" fill="#F33939"/>
<path d="M56.5429 99.3853L43.9019 129.282C43.9019 129.282 72.6489 111.341 56.5429 99.3853Z" fill="#F33939"/>
<path d="M69.8627 100.986L66.5967 132.353C66.5967 132.353 49.0537 107.152 69.8627 100.986Z" fill="#F33939"/>
<path d="M69.9251 100.78L76.1371 132.638C76.1371 132.638 51.7041 109.157 69.9251 100.78Z" fill="#F33939"/>
<path d="M84.0638 97.0336C74.9248 115.805 62.8578 113.375 62.8578 113.375C62.8578 113.375 50.8258 111.564 48.1948 90.9756C46.0908 74.5256 51.1228 54.4966 72.2418 57.8116C93.2798 61.6166 91.3218 82.1236 84.0638 97.0336Z" fill="#F33939"/>
<path d="M55.522 67.6986C55.522 67.6986 57.53 35.1536 69.953 34.8506C81.981 34.5586 84.639 66.9916 84.639 66.9916L55.522 67.6986Z" fill="#F33939"/>
<path d="M84.5469 64.0697C83.5039 63.3677 82.2659 62.8587 80.8059 62.5857C69.3789 60.8577 65.7809 76.8807 66.2429 89.7757C66.8189 105.917 73.3319 106.841 73.3319 106.841C73.3319 106.841 79.8389 108.252 85.6329 93.0497C87.2319 88.8587 88.5049 84.1597 89.0149 79.7237C89.4249 73.7877 88.2309 68.1977 84.5469 64.0697Z" fill="#F97575"/>
<path d="M84.5961 66.9916C84.5891 66.8676 84.5601 66.3866 84.5041 65.6366C84.1181 62.0666 82.8211 52.1336 79.7241 44.5036C79.3481 44.1706 78.9481 43.9846 78.5171 43.9956C73.6921 44.1146 73.0631 66.3045 73.0381 67.2715L84.5961 66.9916Z" fill="#F97575"/>
<path d="M71.736 35.0745C71.736 35.0745 48.177 24.7035 61.852 35.7035C61.852 35.7035 44.195 29.3765 58.785 39.2355C58.785 39.2355 46.756 35.3775 59.973 45.1925L71.736 35.0745Z" fill="#F33939"/>
<path d="M80.7282 49.9324C80.9272 50.9194 80.6092 51.8145 80.0172 51.9345C79.4262 52.0535 78.7862 51.3525 78.5852 50.3655C78.3872 49.3805 78.7052 48.4824 79.2962 48.3634C79.8882 48.2434 80.5292 48.9464 80.7282 49.9324Z" fill="#242935"/>
<path d="M57.668 61.3332L0 51.1572C0 51.1572 2.234 64.3192 16.129 68.0332L8.513 68.9202C8.513 68.9202 13.678 83.2932 30.512 83.6172L24.831 85.2332C24.831 85.2332 39.123 98.0152 63.174 89.9152L57.668 61.3332Z" fill="#F33939"/>
<path d="M0 51.1572L18.159 54.3612C19.464 58.2672 23.342 66.2762 33.695 69.0462L26.08 69.9352C26.08 69.9352 31.243 84.3062 48.078 84.6302L42.398 86.2462C42.398 86.2462 46.551 89.9512 54.136 92.1082C35.589 94.8412 24.83 85.2332 24.83 85.2332L30.511 83.6172C13.677 83.2932 8.512 68.9202 8.512 68.9202L16.128 68.0332C2.234 64.3202 0 51.1572 0 51.1572Z" fill="#B72C2C"/>
<path d="M175.681 93.7231H112.043V147.402H175.681V93.7231Z" fill="#8484DC"/>
<path d="M41.2024 0.00161738L36.3828 4.81982L54.2911 22.7332L59.1107 17.915L41.2024 0.00161738Z" fill="#8484DC"/>
<path d="M54.3226 -0.000108604L36.4067 17.9082L41.2249 22.7285L59.1409 4.82014L54.3226 -0.000108604Z" fill="#8484DC"/>
<path d="M186.827 141.449L184.314 143.961L193.651 153.3L196.164 150.788L186.827 141.449Z" fill="#8484DC"/>
<path d="M193.634 141.502L184.297 150.841L186.81 153.353L196.147 144.014L193.634 141.502Z" fill="#8484DC"/>
<path d="M89.2827 114.887L86.77 117.398L96.104 126.74L98.6167 124.229L89.2827 114.887Z" fill="#8484DC"/>
<path d="M96.1182 114.86L86.7842 124.202L89.2969 126.712L98.6309 117.37L96.1182 114.86Z" fill="#8484DC"/>
<path d="M86.0281 72.7832C86.0281 73.9872 85.0501 74.9642 83.8441 74.9642C82.6381 74.9642 81.6621 73.9872 81.6621 72.7832C81.6621 71.5762 82.6381 70.5972 83.8441 70.5972C85.0511 70.5982 86.0281 71.5762 86.0281 72.7832Z" fill="#8484DC"/>
<path d="M97.0721 72.7832C97.0721 73.9872 96.0931 74.9642 94.8871 74.9642C93.6821 74.9642 92.7051 73.9872 92.7051 72.7832C92.7051 71.5762 93.6821 70.5972 94.8871 70.5972C96.0941 70.5982 97.0721 71.5762 97.0721 72.7832Z" fill="#8484DC"/>
<path d="M108.115 72.7832C108.115 73.9872 107.136 74.9642 105.93 74.9642C104.725 74.9642 103.748 73.9872 103.748 72.7832C103.748 71.5762 104.725 70.5972 105.93 70.5972C107.137 70.5982 108.115 71.5762 108.115 72.7832Z" fill="#8484DC"/>
<path d="M86.0281 82.828C86.0281 84.033 85.0501 85.01 83.8441 85.01C82.6381 85.01 81.6621 84.033 81.6621 82.828C81.6621 81.622 82.6381 80.645 83.8441 80.645C85.0511 80.646 86.0281 81.622 86.0281 82.828Z" fill="#8484DC"/>
<path d="M97.0721 82.828C97.0721 84.033 96.0931 85.01 94.8871 85.01C93.6821 85.01 92.7051 84.033 92.7051 82.828C92.7051 81.622 93.6821 80.645 94.8871 80.645C96.0941 80.646 97.0721 81.622 97.0721 82.828Z" fill="#8484DC"/>
<path d="M108.115 82.828C108.115 84.033 107.136 85.01 105.93 85.01C104.725 85.01 103.748 84.033 103.748 82.828C103.748 81.622 104.725 80.645 105.93 80.645C107.137 80.646 108.115 81.622 108.115 82.828Z" fill="#8484DC"/>
<path d="M86.0281 92.8744C86.0281 94.0814 85.0501 95.0604 83.8441 95.0604C82.6381 95.0604 81.6621 94.0814 81.6621 92.8744C81.6621 91.6704 82.6381 90.6914 83.8441 90.6914C85.0511 90.6924 86.0281 91.6704 86.0281 92.8744Z" fill="#8484DC"/>
<path d="M97.0721 92.8744C97.0721 94.0814 96.0931 95.0604 94.8871 95.0604C93.6821 95.0604 92.7051 94.0814 92.7051 92.8744C92.7051 91.6704 93.6821 90.6914 94.8871 90.6914C96.0941 90.6924 97.0721 91.6704 97.0721 92.8744Z" fill="#8484DC"/>
<path d="M108.115 92.8744C108.115 94.0814 107.136 95.0604 105.93 95.0604C104.725 95.0604 103.748 94.0814 103.748 92.8744C103.748 91.6704 104.725 90.6914 105.93 90.6914C107.137 90.6924 108.115 91.6704 108.115 92.8744Z" fill="#8484DC"/>
<path d="M8.492 101.941C8.492 103.146 7.514 104.123 6.307 104.123C5.102 104.123 4.125 103.146 4.125 101.941C4.125 100.735 5.102 99.7563 6.307 99.7563C7.515 99.7563 8.492 100.735 8.492 101.941Z" fill="#8484DC"/>
<path d="M19.535 101.941C19.535 103.146 18.556 104.123 17.351 104.123C16.145 104.123 15.168 103.146 15.168 101.941C15.168 100.735 16.145 99.7563 17.351 99.7563C18.557 99.7563 19.535 100.735 19.535 101.941Z" fill="#8484DC"/>
<path d="M30.5779 101.941C30.5779 103.146 29.5989 104.123 28.3939 104.123C27.1879 104.123 26.2109 103.146 26.2109 101.941C26.2109 100.735 27.1879 99.7563 28.3939 99.7563C29.5999 99.7563 30.5779 100.735 30.5779 101.941Z" fill="#8484DC"/>
<path d="M8.492 111.987C8.492 113.191 7.514 114.168 6.307 114.168C5.102 114.168 4.125 113.191 4.125 111.987C4.125 110.78 5.102 109.804 6.307 109.804C7.515 109.804 8.492 110.78 8.492 111.987Z" fill="#8484DC"/>
<path d="M19.535 111.987C19.535 113.191 18.556 114.168 17.351 114.168C16.145 114.168 15.168 113.191 15.168 111.987C15.168 110.78 16.145 109.804 17.351 109.804C18.557 109.804 19.535 110.78 19.535 111.987Z" fill="#8484DC"/>
<path d="M30.5779 111.987C30.5779 113.191 29.5989 114.168 28.3939 114.168C27.1879 114.168 26.2109 113.191 26.2109 111.987C26.2109 110.78 27.1879 109.804 28.3939 109.804C29.5999 109.804 30.5779 110.78 30.5779 111.987Z" fill="#8484DC"/>
<path d="M8.492 122.032C8.492 123.238 7.514 124.217 6.307 124.217C5.102 124.217 4.125 123.239 4.125 122.032C4.125 120.827 5.102 119.848 6.307 119.848C7.515 119.849 8.492 120.827 8.492 122.032Z" fill="#8484DC"/>
<path d="M19.535 122.032C19.535 123.238 18.556 124.217 17.351 124.217C16.145 124.217 15.168 123.239 15.168 122.032C15.168 120.827 16.145 119.848 17.351 119.848C18.557 119.849 19.535 120.827 19.535 122.032Z" fill="#8484DC"/>
<path d="M30.5779 122.032C30.5779 123.238 29.5989 124.217 28.3939 124.217C27.1879 124.217 26.2109 123.239 26.2109 122.032C26.2109 120.827 27.1879 119.848 28.3939 119.848C29.5999 119.849 30.5779 120.827 30.5779 122.032Z" fill="#8484DC"/>
<path d="M115.816 50.9404V28.4277H124.821V32.7768H120.395V37.1642H124.642V41.3981H120.395V46.553H125.115V50.9404H115.816ZM125.997 50.9404L128.172 28.4277H135.808L137.945 50.9404H133.685L133.365 47.3077H130.654L130.372 50.9404H125.997ZM130.973 43.7133H133.02L132.035 32.2651H131.83L130.973 43.7133ZM139.326 50.9404V28.4277H146.233C147.385 28.4277 148.254 28.6921 148.843 29.2208C149.431 29.741 149.823 30.4743 150.02 31.4209C150.224 32.3589 150.327 33.4632 150.327 34.7338C150.327 35.9618 150.169 36.9425 149.853 37.6758C149.546 38.4092 148.962 38.9166 148.101 39.198C148.809 39.343 149.303 39.6969 149.585 40.2597C149.875 40.814 150.02 41.5346 150.02 42.4214V50.9404H145.581V42.1272C145.581 41.4706 145.445 41.0655 145.172 40.912C144.907 40.75 144.477 40.669 143.88 40.669V50.9404H139.326ZM143.905 36.7677H144.993C145.615 36.7677 145.926 36.0897 145.926 34.7338C145.926 33.8555 145.858 33.2799 145.722 33.007C145.585 32.7341 145.329 32.5977 144.954 32.5977H143.905V36.7677ZM151.81 50.9404V28.4277H156.313V47.103H160.943V50.9404H151.81ZM164.128 50.9404V43.5343L160.534 28.4277H164.998L166.252 36.0513L167.505 28.4277H171.957L168.375 43.5343V50.9404H164.128Z" fill="#242935"/>
<path d="M122.921 76.4736V53.9609H129.023C130.66 53.9609 131.849 54.3617 132.591 55.1633C133.342 55.9564 133.717 57.2696 133.717 59.103V60.088C133.717 61.1454 133.525 62.0024 133.141 62.659C132.766 63.3156 132.19 63.7463 131.414 63.9509C132.429 64.2068 133.107 64.808 133.448 65.7545C133.798 66.6925 133.973 67.8395 133.973 69.1954C133.973 70.6536 133.836 71.9285 133.563 73.02C133.291 74.1115 132.796 74.96 132.08 75.5654C131.363 76.1709 130.344 76.4736 129.023 76.4736H122.921ZM127.321 62.4416H128.242C128.66 62.4416 128.929 62.2795 129.048 61.9555C129.167 61.6315 129.227 61.2434 129.227 60.7915V58.5274C129.227 57.8026 128.907 57.4402 128.268 57.4402H127.321V62.4416ZM127.769 72.5083C128.937 72.5083 129.521 71.954 129.521 70.8455V68.0314C129.521 67.3918 129.423 66.8887 129.227 66.522C129.04 66.1468 128.681 65.9592 128.153 65.9592H127.321V72.4827C127.509 72.4998 127.658 72.5083 127.769 72.5083ZM135.252 76.4736V53.9609H139.601V76.4736H135.252ZM141.392 76.4736V53.9609H148.299C149.45 53.9609 150.32 54.2253 150.908 54.754C151.497 55.2742 151.889 56.0075 152.085 56.9541C152.29 57.8921 152.392 58.9964 152.392 60.267C152.392 61.495 152.234 62.4757 151.919 63.209C151.612 63.9424 151.028 64.4498 150.167 64.7312C150.874 64.8762 151.369 65.2301 151.65 65.7929C151.94 66.3472 152.085 67.0678 152.085 67.9546V76.4736H147.647V67.6604C147.647 67.0038 147.51 66.5987 147.237 66.4452C146.973 66.2832 146.542 66.2022 145.945 66.2022V76.4736H141.392ZM145.971 62.3009H147.058C147.681 62.3009 147.992 61.6229 147.992 60.267C147.992 59.3887 147.924 58.8131 147.787 58.5402C147.651 58.2673 147.395 58.1309 147.02 58.1309H145.971V62.3009ZM153.876 76.4736V53.9609H160.067C161.687 53.9609 162.907 54.4129 163.725 55.3168C164.544 56.2122 164.953 57.5254 164.953 59.2565V69.7966C164.953 71.9285 164.578 73.5743 163.828 74.734C163.086 75.8938 161.781 76.4736 159.914 76.4736H153.876ZM158.404 72.4955H159.184C160.012 72.4955 160.425 72.0947 160.425 71.2932V59.6786C160.425 58.9282 160.323 58.4464 160.118 58.2332C159.922 58.0115 159.517 57.9007 158.903 57.9007H158.404V72.4955Z" fill="#242935"/>
<path d="M135.095 80.4604H133.739V79.791H135.095C135.351 79.791 135.557 79.7398 135.713 79.6375C135.872 79.5352 135.988 79.393 136.059 79.2111C136.133 79.0292 136.17 78.8217 136.17 78.5886C136.17 78.3754 136.133 78.175 136.059 77.9874C135.988 77.7998 135.872 77.6492 135.713 77.5355C135.557 77.4189 135.351 77.3606 135.095 77.3606H133.901V82.895H133.117V76.687H135.095C135.496 76.687 135.834 76.768 136.11 76.93C136.386 77.092 136.594 77.3166 136.737 77.6037C136.882 77.8879 136.954 78.2134 136.954 78.5801C136.954 78.978 136.882 79.3177 136.737 79.5991C136.594 79.8805 136.386 80.0951 136.11 80.243C135.834 80.3879 135.496 80.4604 135.095 80.4604ZM138.613 79.0065V82.895H137.858V78.2816H138.587L138.613 79.0065ZM139.76 78.256L139.764 78.9894C139.701 78.9752 139.645 78.9667 139.593 78.9638C139.545 78.9581 139.488 78.9553 139.423 78.9553C139.281 78.9553 139.156 78.9837 139.048 79.0406C138.942 79.0974 138.851 79.177 138.775 79.2793C138.698 79.3817 138.637 79.5039 138.591 79.646C138.546 79.7853 138.515 79.9388 138.498 80.1065L138.301 80.2344C138.301 79.9559 138.323 79.6943 138.365 79.4499C138.411 79.2054 138.48 78.9894 138.574 78.8018C138.668 78.6114 138.787 78.4635 138.932 78.3584C139.08 78.2504 139.257 78.1963 139.461 78.1963C139.507 78.1963 139.562 78.2035 139.627 78.2177C139.696 78.229 139.74 78.2418 139.76 78.256ZM140.276 80.81V80.3709C140.276 80.0127 140.321 79.6986 140.412 79.4286C140.503 79.1557 140.629 78.9283 140.791 78.7464C140.953 78.5645 141.143 78.428 141.359 78.3371C141.575 78.2432 141.806 78.1963 142.054 78.1963C142.307 78.1963 142.541 78.2432 142.757 78.3371C142.973 78.428 143.162 78.5645 143.324 78.7464C143.489 78.9283 143.617 79.1557 143.708 79.4286C143.799 79.6986 143.844 80.0127 143.844 80.3709V80.81C143.844 81.1682 143.799 81.4837 143.708 81.7566C143.617 82.0266 143.49 82.2526 143.328 82.4345C143.166 82.6165 142.977 82.7529 142.761 82.8439C142.545 82.9348 142.312 82.9803 142.062 82.9803C141.812 82.9803 141.579 82.9348 141.363 82.8439C141.147 82.7529 140.956 82.6165 140.791 82.4345C140.629 82.2526 140.503 82.0266 140.412 81.7566C140.321 81.4837 140.276 81.1682 140.276 80.81ZM141.03 80.3709V80.81C141.03 81.063 141.056 81.2847 141.107 81.4752C141.158 81.6656 141.231 81.8248 141.324 81.9527C141.418 82.0806 141.528 82.1773 141.653 82.2427C141.778 82.3052 141.914 82.3365 142.062 82.3365C142.233 82.3365 142.382 82.3052 142.51 82.2427C142.641 82.1773 142.749 82.0806 142.834 81.9527C142.919 81.8248 142.983 81.6656 143.026 81.4752C143.068 81.2847 143.09 81.063 143.09 80.81V80.3709C143.09 80.1179 143.064 79.8976 143.013 79.71C142.962 79.5195 142.889 79.3604 142.795 79.2324C142.702 79.1017 142.591 79.005 142.463 78.9425C142.338 78.8771 142.201 78.8444 142.054 78.8444C141.909 78.8444 141.774 78.8771 141.648 78.9425C141.523 79.005 141.414 79.1017 141.32 79.2324C141.229 79.3604 141.158 79.5195 141.107 79.71C141.056 79.8976 141.03 80.1179 141.03 80.3709ZM145.571 79.1983V82.895H144.821V78.2816H145.529L145.571 79.1983ZM145.418 80.4135L145.068 80.4007C145.065 80.0852 145.096 79.7938 145.162 79.5266C145.227 79.2566 145.325 79.0221 145.456 78.8231C145.59 78.6241 145.756 78.4706 145.955 78.3626C146.157 78.2518 146.391 78.1963 146.658 78.1963C146.835 78.1963 146.998 78.2276 147.149 78.2901C147.302 78.3498 147.436 78.4451 147.55 78.5758C147.663 78.7066 147.751 78.8743 147.814 79.0789C147.879 79.2836 147.912 79.5309 147.912 79.8208V82.895H147.157V79.8592C147.157 79.6176 147.125 79.4243 147.059 79.2793C146.997 79.1344 146.907 79.0292 146.791 78.9638C146.674 78.8956 146.535 78.8615 146.373 78.8615C146.188 78.8615 146.033 78.9027 145.908 78.9851C145.786 79.0676 145.688 79.1813 145.614 79.3262C145.543 79.4712 145.492 79.6375 145.46 79.8251C145.432 80.0099 145.418 80.206 145.418 80.4135ZM147.903 79.9786L147.4 80.1406C147.397 79.8876 147.429 79.6446 147.494 79.4115C147.559 79.1784 147.656 78.9709 147.784 78.789C147.915 78.6071 148.077 78.4635 148.27 78.3584C148.463 78.2504 148.688 78.1963 148.944 78.1963C149.154 78.1963 149.34 78.229 149.502 78.2944C149.664 78.3598 149.801 78.4607 149.912 78.5971C150.025 78.7307 150.111 78.9027 150.167 79.1131C150.224 79.3234 150.253 79.5735 150.253 79.8635V82.895H149.498V79.855C149.498 79.5963 149.465 79.3959 149.4 79.2538C149.337 79.1088 149.248 79.0079 149.131 78.951C149.015 78.8913 148.876 78.8615 148.714 78.8615C148.583 78.8615 148.466 78.8913 148.364 78.951C148.264 79.0107 148.181 79.0932 148.112 79.1983C148.044 79.3007 147.992 79.4186 147.955 79.5522C147.92 79.6858 147.903 79.8279 147.903 79.9786ZM151.233 80.81V80.3709C151.233 80.0127 151.279 79.6986 151.37 79.4286C151.461 79.1557 151.587 78.9283 151.749 78.7464C151.911 78.5645 152.1 78.428 152.316 78.3371C152.532 78.2432 152.764 78.1963 153.011 78.1963C153.264 78.1963 153.499 78.2432 153.715 78.3371C153.931 78.428 154.12 78.5645 154.282 78.7464C154.447 78.9283 154.575 79.1557 154.666 79.4286C154.757 79.6986 154.802 80.0127 154.802 80.3709V80.81C154.802 81.1682 154.757 81.4837 154.666 81.7566C154.575 82.0266 154.448 82.2526 154.286 82.4345C154.124 82.6165 153.935 82.7529 153.719 82.8439C153.503 82.9348 153.27 82.9803 153.02 82.9803C152.77 82.9803 152.537 82.9348 152.321 82.8439C152.105 82.7529 151.914 82.6165 151.749 82.4345C151.587 82.2526 151.461 82.0266 151.37 81.7566C151.279 81.4837 151.233 81.1682 151.233 80.81ZM151.988 80.3709V80.81C151.988 81.063 152.014 81.2847 152.065 81.4752C152.116 81.6656 152.189 81.8248 152.282 81.9527C152.376 82.0806 152.486 82.1773 152.611 82.2427C152.736 82.3052 152.872 82.3365 153.02 82.3365C153.191 82.3365 153.34 82.3052 153.468 82.2427C153.598 82.1773 153.706 82.0806 153.792 81.9527C153.877 81.8248 153.941 81.6656 153.984 81.4752C154.026 81.2847 154.048 81.063 154.048 80.81V80.3709C154.048 80.1179 154.022 79.8976 153.971 79.71C153.92 79.5195 153.847 79.3604 153.753 79.2324C153.66 79.1017 153.549 79.005 153.421 78.9425C153.296 78.8771 153.159 78.8444 153.011 78.8444C152.866 78.8444 152.731 78.8771 152.606 78.9425C152.481 79.005 152.372 79.1017 152.278 79.2324C152.187 79.3604 152.116 79.5195 152.065 79.71C152.014 79.8976 151.988 80.1179 151.988 80.3709Z" fill="#242935"/>
<path d="M130.951 140.542V123.197C130.644 123.564 130.221 123.862 129.684 124.092C129.147 124.314 128.64 124.425 128.162 124.425V120.831C128.614 120.762 129.1 120.617 129.62 120.396C130.14 120.165 130.622 119.854 131.066 119.462C131.518 119.061 131.863 118.579 132.102 118.016H135.722V140.542H130.951ZM142.987 140.747C141.086 140.747 139.615 140.214 138.574 139.148C137.542 138.082 137.026 136.547 137.026 134.543V124.387C137.026 122.272 137.517 120.652 138.497 119.526C139.487 118.392 140.983 117.825 142.987 117.825C145 117.825 146.496 118.392 147.477 119.526C148.458 120.652 148.948 122.272 148.948 124.387V134.543C148.948 136.547 148.432 138.082 147.4 139.148C146.368 140.214 144.897 140.747 142.987 140.747ZM142.987 136.602C143.337 136.602 143.61 136.445 143.806 136.129C144.002 135.813 144.1 135.46 144.1 135.067V123.952C144.1 123.423 144.04 122.962 143.921 122.57C143.81 122.169 143.499 121.969 142.987 121.969C142.476 121.969 142.16 122.169 142.041 122.57C141.93 122.962 141.874 123.423 141.874 123.952V135.067C141.874 135.46 141.972 135.813 142.169 136.129C142.373 136.445 142.646 136.602 142.987 136.602ZM154.371 141.987V140.082C152.768 139.894 151.621 139.331 150.931 138.393C150.24 137.455 149.895 136.091 149.895 134.3V133.596H154.346V134.134C154.346 135.447 154.759 136.103 155.587 136.103C155.945 136.103 156.205 135.993 156.367 135.771C156.537 135.549 156.623 135.289 156.623 134.991C156.623 134.462 156.354 133.925 155.817 133.379L152.146 129.682C150.798 128.335 150.125 126.872 150.125 125.295C150.125 124.442 150.317 123.692 150.7 123.043C151.093 122.387 151.609 121.854 152.248 121.445C152.896 121.027 153.604 120.75 154.371 120.613V119.065H156.584V120.575C158.043 120.762 159.151 121.364 159.91 122.378C160.669 123.393 161.049 124.736 161.049 126.408H156.482V125.576C156.482 125.209 156.384 124.928 156.188 124.732C155.992 124.536 155.732 124.438 155.408 124.438C155.049 124.438 154.781 124.527 154.602 124.706C154.423 124.885 154.333 125.124 154.333 125.423C154.333 125.849 154.755 126.48 155.599 127.316L159.181 130.846C159.71 131.366 160.162 131.997 160.537 132.739C160.921 133.481 161.112 134.321 161.112 135.259C161.112 136.666 160.682 137.792 159.821 138.636C158.959 139.472 157.881 139.962 156.584 140.107V141.987H154.371Z" fill="white"/>
<path d="M137.385 101.049H138.169V105.42C138.169 105.886 138.08 106.26 137.9 106.541C137.721 106.822 137.485 107.027 137.193 107.155C136.903 107.28 136.59 107.343 136.255 107.343C135.896 107.343 135.574 107.28 135.287 107.155C135 107.027 134.771 106.822 134.6 106.541C134.433 106.26 134.349 105.886 134.349 105.42V101.049H135.129V105.42C135.129 105.744 135.174 105.997 135.265 106.179C135.359 106.361 135.49 106.488 135.658 106.562C135.828 106.636 136.027 106.673 136.255 106.673C136.485 106.673 136.684 106.636 136.852 106.562C137.022 106.488 137.153 106.361 137.244 106.179C137.338 105.997 137.385 105.744 137.385 105.42V101.049ZM140.02 103.531V109.031H139.265V102.644H139.951L140.02 103.531ZM142.599 104.742V105.172C142.599 105.536 142.565 105.855 142.497 106.127C142.431 106.397 142.333 106.623 142.203 106.805C142.075 106.984 141.917 107.119 141.729 107.21C141.542 107.299 141.327 107.343 141.085 107.343C140.844 107.343 140.634 107.297 140.454 107.206C140.278 107.112 140.129 106.977 140.007 106.801C139.887 106.625 139.792 106.413 139.721 106.166C139.653 105.916 139.606 105.636 139.58 105.326V104.669C139.606 104.342 139.653 104.05 139.721 103.791C139.789 103.529 139.883 103.308 140.002 103.126C140.125 102.941 140.274 102.8 140.45 102.704C140.629 102.607 140.838 102.559 141.077 102.559C141.324 102.559 141.542 102.601 141.729 102.687C141.92 102.772 142.079 102.904 142.207 103.083C142.338 103.259 142.436 103.485 142.501 103.761C142.566 104.034 142.599 104.361 142.599 104.742ZM141.844 105.172V104.742C141.844 104.486 141.825 104.263 141.785 104.072C141.748 103.882 141.688 103.724 141.606 103.599C141.523 103.474 141.419 103.38 141.294 103.318C141.169 103.255 141.019 103.224 140.842 103.224C140.692 103.224 140.558 103.255 140.442 103.318C140.328 103.38 140.23 103.465 140.147 103.573C140.065 103.679 139.997 103.799 139.943 103.936C139.889 104.069 139.849 104.209 139.823 104.354V105.646C139.872 105.828 139.936 106 140.015 106.162C140.095 106.321 140.201 106.45 140.335 106.55C140.471 106.649 140.643 106.699 140.851 106.699C141.024 106.699 141.174 106.668 141.299 106.605C141.424 106.542 141.526 106.449 141.606 106.324C141.688 106.196 141.748 106.036 141.785 105.846C141.825 105.653 141.844 105.428 141.844 105.172ZM147.502 101.049V107.257H146.726V101.049H147.502ZM149.135 101.049V101.723H145.098V101.049H149.135ZM149.366 105.172V104.733C149.366 104.375 149.411 104.061 149.502 103.791C149.593 103.518 149.72 103.291 149.882 103.109C150.044 102.927 150.233 102.79 150.449 102.699C150.665 102.606 150.896 102.559 151.144 102.559C151.397 102.559 151.631 102.606 151.847 102.699C152.063 102.79 152.252 102.927 152.414 103.109C152.579 103.291 152.707 103.518 152.798 103.791C152.889 104.061 152.934 104.375 152.934 104.733V105.172C152.934 105.53 152.889 105.846 152.798 106.119C152.707 106.389 152.581 106.615 152.419 106.797C152.257 106.979 152.068 107.115 151.851 107.206C151.635 107.297 151.402 107.343 151.152 107.343C150.902 107.343 150.669 107.297 150.453 107.206C150.237 107.115 150.047 106.979 149.882 106.797C149.72 106.615 149.593 106.389 149.502 106.119C149.411 105.846 149.366 105.53 149.366 105.172ZM150.12 104.733V105.172C150.12 105.425 150.146 105.647 150.197 105.837C150.248 106.028 150.321 106.187 150.415 106.315C150.508 106.443 150.618 106.54 150.743 106.605C150.868 106.668 151.004 106.699 151.152 106.699C151.323 106.699 151.472 106.668 151.6 106.605C151.731 106.54 151.839 106.443 151.924 106.315C152.009 106.187 152.073 106.028 152.116 105.837C152.158 105.647 152.18 105.425 152.18 105.172V104.733C152.18 104.48 152.154 104.26 152.103 104.072C152.052 103.882 151.979 103.723 151.886 103.595C151.792 103.464 151.681 103.367 151.553 103.305C151.428 103.239 151.292 103.207 151.144 103.207C150.999 103.207 150.864 103.239 150.739 103.305C150.614 103.367 150.504 103.464 150.41 103.595C150.319 103.723 150.248 103.882 150.197 104.072C150.146 104.26 150.12 104.48 150.12 104.733Z" fill="white"/>
</svg>
