<svg width="3172" height="2451" viewBox="0 0 3172 2451" fill="none" xmlns="http://www.w3.org/2000/svg">
<path d="M2173.47 248.529H997.96C957.384 248.529 924.49 281.422 924.49 321.998V1409.35C924.49 1449.92 957.384 1482.81 997.96 1482.81H2173.47C2214.05 1482.81 2246.94 1449.92 2246.94 1409.35V321.998C2246.94 281.422 2214.05 248.529 2173.47 248.529Z" fill="#004AAC"/>
<path d="M1915.74 970.659C1894.98 970.659 1878.1 987.537 1878.1 1008.3C1878.1 1029.06 1894.98 1045.94 1915.74 1045.94C1936.5 1045.94 1953.39 1029.06 1953.39 1008.3C1953.39 987.537 1936.5 970.659 1915.74 970.659Z" fill="white"/>
<path d="M1255.64 1045.94C1276.43 1045.94 1293.28 1029.08 1293.28 1008.3C1293.28 987.51 1276.43 970.659 1255.64 970.659C1234.86 970.659 1218.01 987.51 1218.01 1008.3C1218.01 1029.08 1234.86 1045.94 1255.64 1045.94Z" fill="white"/>
<path d="M2099.99 843.264H2067.15V782.374C2067.15 569.023 1893.56 395.468 1680.23 395.468H1493.6C1280.24 395.468 1106.68 569.023 1106.68 782.374V843.264H1071.43V1241.4C1071.43 1292.28 1112.67 1333.52 1163.55 1333.52C1214.41 1333.52 1255.65 1292.28 1255.65 1241.4V1170.12H1915.75V1241.4C1915.75 1292.28 1957.01 1333.52 2007.88 1333.52C2058.76 1333.52 2100 1292.28 2100 1241.4L2099.99 843.264ZM1255.64 1082.77C1214.57 1082.77 1181.16 1049.34 1181.16 1008.29C1181.16 967.223 1214.57 933.789 1255.64 933.789C1296.73 933.789 1330.13 967.223 1330.13 1008.29C1330.13 1049.35 1296.73 1082.77 1255.64 1082.77ZM1773.18 1062.77H1401.46V989.073H1773.18V1062.77ZM1915.74 1082.77C1874.65 1082.77 1841.26 1049.35 1841.26 1008.29C1841.26 967.223 1874.65 933.789 1915.74 933.789C1956.84 933.789 1990.23 967.223 1990.23 1008.29C1990.23 1049.35 1956.84 1082.77 1915.74 1082.77ZM1143.52 843.264V782.374C1143.52 589.347 1300.56 432.317 1493.59 432.317H1680.22C1873.25 432.317 2030.29 589.357 2030.29 782.374V843.264H1143.52Z" fill="white"/>
<path d="M388.997 1908.61C388.997 1952.52 410.95 1977.44 455.449 1977.44C467.908 1977.44 479.181 1975.66 488.081 1971.5C504.694 1964.98 515.967 1952.52 521.9 1935.31C524.273 1927 525.46 1918.11 525.46 1908.61C525.46 1899.12 524.273 1890.22 521.9 1881.91C515.373 1863.52 505.287 1853.43 488.081 1845.13C479.181 1841.57 467.908 1839.79 455.449 1839.79C410.95 1839.79 388.997 1864.71 388.997 1908.61ZM388.997 2027.28V2175.6H300V1908.61C300 1813.68 367.045 1757.32 456.635 1757.32C548.006 1757.32 614.457 1817.24 614.457 1908.02C614.457 1992.27 550.972 2059.91 466.722 2059.91C449.515 2059.91 434.683 2056.94 422.223 2051.01C409.17 2045.67 397.897 2037.36 388.997 2027.28ZM864.243 1908.61C861.87 1865.3 842.29 1839.79 797.198 1839.79C784.739 1839.79 774.059 1841.57 765.159 1845.13C737.867 1857.59 727.78 1880.73 727.78 1909.21C727.78 1918.7 728.967 1927.6 731.934 1935.31C740.833 1966.16 767.532 1977.44 797.198 1977.44C842.29 1977.44 864.243 1953.11 864.243 1908.61ZM976.973 2056.94H887.975C882.042 2042.11 876.702 2027.28 873.143 2011.85C852.97 2045.07 822.117 2059.91 784.145 2059.91C699.301 2059.91 638.783 1988.71 638.783 1907.43C638.783 1813.68 708.794 1757.32 797.198 1757.32C891.535 1757.32 950.867 1817.83 953.24 1908.61C953.833 1916.33 953.833 1925.22 953.833 1935.9C953.833 1977.44 960.36 2018.97 976.973 2056.94ZM1101.57 1908.61V2056.94H1012.57V1909.21C1012.57 1810.72 1084.96 1757.32 1176.33 1757.32C1179.29 1757.32 1183.45 1757.32 1187.6 1757.91C1191.75 1758.5 1196.5 1759.69 1200.65 1760.28V1846.31C1197.69 1845.72 1194.13 1845.13 1189.97 1844.53C1185.82 1843.94 1182.26 1843.35 1179.29 1843.35C1164.46 1843.35 1152.59 1845.13 1142.51 1848.09C1125.89 1854.03 1111.06 1865.3 1105.72 1883.1C1102.76 1890.81 1101.57 1899.71 1101.57 1908.61ZM1411.28 1760.28H1500.28V1789.95C1500.28 1835.04 1484.85 1878.35 1451.62 1909.21L1529.94 2056.94H1420.18L1328.22 1881.32V2056.94H1239.22V1641.62H1328.22V1865.3H1341.86C1389.92 1865.3 1411.28 1833.26 1411.28 1789.36V1760.28ZM1545.37 2047.45V1964.38C1584.53 1976.25 1633.77 1978.62 1674.12 1978.62C1690.14 1978.62 1702.6 1978.03 1711.5 1976.25C1719.8 1975.06 1723.96 1972.1 1723.96 1967.94C1723.96 1966.16 1723.36 1964.98 1722.18 1963.2C1716.24 1957.26 1703.19 1954.3 1695.48 1952.52C1687.76 1950.74 1677.68 1948.36 1665.22 1945.99C1655.13 1944.21 1643.27 1941.84 1629.62 1938.87C1583.34 1928.78 1547.74 1902.68 1547.74 1852.84C1547.74 1779.27 1619.53 1757.32 1680.05 1757.32C1718.02 1757.32 1756 1762.66 1793.37 1770.37V1854.03C1756 1842.75 1713.87 1839.79 1674.71 1839.79C1659.29 1839.79 1648.61 1840.38 1642.08 1842.16C1635.55 1843.94 1631.99 1846.91 1631.99 1850.47C1631.99 1855.81 1637.33 1859.37 1647.42 1861.15C1657.51 1863.52 1671.74 1866.49 1688.95 1869.45C1704.38 1872.42 1719.21 1875.39 1733.45 1878.95C1777.36 1890.22 1808.8 1913.95 1808.8 1961.42C1808.8 2040.92 1728.7 2060.5 1664.63 2060.5C1624.28 2060.5 1584.53 2055.16 1545.37 2047.45ZM1847.96 1760.28H1936.96V2056.94H1847.96V1760.28ZM1892.46 1732.4C1862.2 1732.4 1840.84 1711.04 1840.84 1680.78C1840.84 1649.93 1862.2 1629.75 1892.46 1629.75C1923.31 1629.75 1943.48 1649.93 1943.48 1680.78C1943.48 1712.22 1923.9 1732.4 1892.46 1732.4ZM2180.22 1878.95C2180.22 1847.5 2149.96 1839.79 2123.85 1839.79C2097.75 1839.79 2067.49 1847.5 2067.49 1878.95C2067.49 1910.39 2097.75 1918.11 2123.85 1918.11C2149.96 1918.11 2180.22 1910.39 2180.22 1878.95ZM2156.48 2113.31C2156.48 2093.13 2142.24 2085.42 2123.85 2085.42C2105.46 2085.42 2091.22 2093.13 2091.22 2113.31C2091.22 2133.48 2105.46 2141.19 2123.85 2141.19C2142.24 2141.19 2156.48 2133.48 2156.48 2113.31ZM2236.58 2113.31C2236.58 2176.2 2177.84 2202.3 2123.85 2202.3C2069.27 2202.3 2011.12 2173.82 2011.12 2113.31C2011.12 2068.81 2043.75 2038.55 2085.29 2029.06V1997.02C2068.08 1994.05 2053.25 1988.71 2040.19 1981C2001.63 1960.82 1978.49 1922.26 1978.49 1878.95C1978.49 1797.07 2051.47 1757.32 2123.85 1757.32C2155.89 1757.32 2183.18 1763.25 2205.73 1775.71C2228.87 1764.44 2251.41 1760.28 2276.93 1760.28H2300.07V1832.07H2287.01H2273.96C2269.81 1832.67 2265.06 1833.26 2260.31 1834.45C2266.25 1848.09 2269.21 1862.93 2269.21 1878.95C2269.21 1942.43 2223.53 1983.96 2165.38 1996.42V2029.65C2205.14 2040.92 2236.58 2069.99 2236.58 2113.31ZM2418.73 1908.61V2056.94H2329.73V1641.62H2418.73V1787.58C2439.49 1765.62 2465.6 1757.32 2495.27 1757.32C2579.52 1757.32 2632.32 1829.7 2632.32 1908.61V2056.94H2543.33V1908.61C2543.33 1868.27 2527.31 1839.79 2483.99 1839.79C2441.27 1839.79 2418.73 1867.08 2418.73 1908.61ZM2854.22 1770.37V1852.84H2771.16V1908.61C2771.16 1954.3 2801.42 1977.44 2845.32 1977.44C2850.66 1977.44 2855.41 1976.84 2859.56 1976.25C2863.72 1975.66 2867.28 1975.06 2871.43 1974.47V2056.94C2866.09 2057.53 2861.94 2058.72 2858.97 2059.31C2855.41 2059.91 2849.48 2059.91 2841.76 2059.91C2752.17 2059.91 2682.16 1998.8 2682.16 1908.61V1689.09H2771.16V1770.37H2854.22Z" fill="#004AAC"/>
</svg>
