<svg width="3172" height="2451" viewBox="0 0 3172 2451" fill="none" xmlns="http://www.w3.org/2000/svg">
<g clip-path="url(#clip0_4673_7540)">
<path d="M2271.43 85.7144H899.999C852.661 85.7144 814.285 124.09 814.285 171.429V1440C814.285 1487.34 852.661 1525.71 899.999 1525.71H2271.43C2318.77 1525.71 2357.14 1487.34 2357.14 1440V171.429C2357.14 124.09 2318.77 85.7144 2271.43 85.7144Z" fill="#004AAC"/>
<path d="M1970.75 928.199C1946.53 928.199 1926.82 947.89 1926.82 972.11C1926.82 996.331 1946.53 1016.02 1970.75 1016.02C1994.97 1016.02 2014.67 996.331 2014.67 972.11C2014.67 947.89 1994.97 928.199 1970.75 928.199Z" fill="white"/>
<path d="M1200.63 1016.02C1224.88 1016.02 1244.54 996.362 1244.54 972.11C1244.54 947.859 1224.88 928.199 1200.63 928.199C1176.38 928.199 1156.72 947.859 1156.72 972.11C1156.72 996.362 1176.38 1016.02 1200.63 1016.02Z" fill="white"/>
<path d="M2185.7 779.572H2147.39V708.534C2147.39 459.624 1944.87 257.143 1695.98 257.143H1478.24C1229.33 257.143 1026.84 459.624 1026.84 708.534V779.572H985.714V1244.07C985.714 1303.43 1033.83 1351.54 1093.19 1351.54C1152.53 1351.54 1200.64 1303.43 1200.64 1244.07V1160.91H1970.76V1244.07C1970.76 1303.43 2018.9 1351.54 2078.24 1351.54C2137.6 1351.54 2185.71 1303.43 2185.71 1244.07L2185.7 779.572ZM1200.63 1059C1152.71 1059 1113.73 1019.99 1113.73 972.098C1113.73 924.191 1152.71 885.184 1200.63 885.184C1248.56 885.184 1287.53 924.191 1287.53 972.098C1287.53 1020.01 1248.56 1059 1200.63 1059ZM1804.43 1035.66H1370.75V949.682H1804.43V1035.66ZM1970.75 1059C1922.8 1059 1883.85 1020.01 1883.85 972.098C1883.85 924.191 1922.8 885.184 1970.75 885.184C2018.69 885.184 2057.65 924.191 2057.65 972.098C2057.65 1020.01 2018.69 1059 1970.75 1059ZM1069.82 779.572V708.534C1069.82 483.335 1253.03 300.134 1478.23 300.134H1695.97C1921.17 300.134 2104.38 483.347 2104.38 708.534V779.572H1069.82Z" fill="white"/>
<path d="M189.544 2022.48C189.544 2073.7 215.155 2102.77 267.071 2102.77C281.607 2102.77 294.759 2100.7 305.142 2095.85C324.523 2088.24 337.675 2073.7 344.597 2053.63C347.366 2043.94 348.75 2033.55 348.75 2022.48C348.75 2011.4 347.366 2001.02 344.597 1991.33C336.983 1969.87 325.215 1958.1 305.142 1948.41C294.759 1944.26 281.607 1942.18 267.071 1942.18C215.155 1942.18 189.544 1971.25 189.544 2022.48ZM189.544 2160.92V2333.97H85.7139V2022.48C85.7139 1911.72 163.933 1845.97 268.455 1845.97C375.054 1845.97 452.581 1915.88 452.581 2021.78C452.581 2120.08 378.515 2198.99 280.222 2198.99C260.149 2198.99 242.844 2195.53 228.307 2188.61C213.079 2182.38 199.927 2172.68 189.544 2160.92ZM743.997 2022.48C741.228 1971.95 718.386 1942.18 665.779 1942.18C651.242 1942.18 638.783 1944.26 628.4 1948.41C596.558 1962.95 584.791 1989.94 584.791 2023.17C584.791 2034.24 586.175 2044.63 589.636 2053.63C600.019 2089.62 631.168 2102.77 665.779 2102.77C718.386 2102.77 743.997 2074.39 743.997 2022.48ZM875.515 2195.53H771.685C764.763 2178.22 758.533 2160.92 754.38 2142.92C730.845 2181.68 694.851 2198.99 650.55 2198.99C551.565 2198.99 480.961 2115.92 480.961 2021.09C480.961 1911.72 562.641 1845.97 665.779 1845.97C775.839 1845.97 845.059 1916.57 847.827 2022.48C848.52 2031.48 848.52 2041.86 848.52 2054.32C848.52 2102.77 856.134 2151.23 875.515 2195.53ZM1020.88 2022.48V2195.53H917.048V2023.17C917.048 1908.26 1001.5 1845.97 1108.1 1845.97C1111.56 1845.97 1116.4 1845.97 1121.25 1846.66C1126.09 1847.35 1131.63 1848.73 1136.48 1849.43V1949.8C1133.01 1949.1 1128.86 1948.41 1124.02 1947.72C1119.17 1947.03 1115.02 1946.34 1111.56 1946.34C1094.25 1946.34 1080.41 1948.41 1068.64 1951.87C1049.26 1958.79 1031.95 1971.95 1025.72 1992.71C1022.26 2001.71 1020.88 2012.09 1020.88 2022.48ZM1382.21 1849.43H1486.04V1884.04C1486.04 1936.64 1468.04 1987.17 1429.28 2023.17L1520.65 2195.53H1392.59L1285.3 1990.64V2195.53H1181.47V1710.99H1285.3V1971.95H1301.22C1357.29 1971.95 1382.21 1934.57 1382.21 1883.34V1849.43ZM1538.64 2184.45V2087.54C1584.33 2101.39 1641.78 2104.16 1688.85 2104.16C1707.54 2104.16 1722.08 2103.46 1732.46 2101.39C1742.15 2100 1747 2096.54 1747 2091.7C1747 2089.62 1746.3 2088.24 1744.92 2086.16C1738 2079.24 1722.77 2075.78 1713.77 2073.7C1704.77 2071.62 1693.01 2068.85 1678.47 2066.09C1666.7 2064.01 1652.86 2061.24 1636.94 2057.78C1582.95 2046.01 1541.41 2015.56 1541.41 1957.41C1541.41 1871.58 1625.17 1845.97 1695.77 1845.97C1740.07 1845.97 1784.38 1852.2 1827.98 1861.19V1958.79C1784.38 1945.64 1735.23 1942.18 1689.54 1942.18C1671.55 1942.18 1659.09 1942.87 1651.47 1944.95C1643.86 1947.03 1639.71 1950.49 1639.71 1954.64C1639.71 1960.87 1645.94 1965.02 1657.7 1967.1C1669.47 1969.87 1686.08 1973.33 1706.16 1976.79C1724.15 1980.25 1741.46 1983.71 1758.07 1987.87C1809.29 2001.02 1845.98 2028.71 1845.98 2084.08C1845.98 2176.84 1752.53 2199.68 1677.78 2199.68C1630.71 2199.68 1584.33 2193.45 1538.64 2184.45ZM1891.67 1849.43H1995.5V2195.53H1891.67V1849.43ZM1943.58 1816.89C1908.28 1816.89 1883.36 1791.97 1883.36 1756.67C1883.36 1720.68 1908.28 1697.14 1943.58 1697.14C1979.58 1697.14 2003.11 1720.68 2003.11 1756.67C2003.11 1793.36 1980.27 1816.89 1943.58 1816.89ZM2279.3 1987.87C2279.3 1951.18 2244 1942.18 2213.54 1942.18C2183.08 1942.18 2147.78 1951.18 2147.78 1987.87C2147.78 2024.55 2183.08 2033.55 2213.54 2033.55C2244 2033.55 2279.3 2024.55 2279.3 1987.87ZM2251.61 2261.29C2251.61 2237.75 2235 2228.75 2213.54 2228.75C2192.08 2228.75 2175.47 2237.75 2175.47 2261.29C2175.47 2284.82 2192.08 2293.82 2213.54 2293.82C2235 2293.82 2251.61 2284.82 2251.61 2261.29ZM2345.06 2261.29C2345.06 2334.66 2276.53 2365.12 2213.54 2365.12C2149.86 2365.12 2082.02 2331.89 2082.02 2261.29C2082.02 2209.37 2120.09 2174.07 2168.55 2162.99V2125.62C2148.47 2122.15 2131.17 2115.92 2115.94 2106.93C2070.95 2083.39 2043.95 2038.4 2043.95 1987.87C2043.95 1892.34 2129.09 1845.97 2213.54 1845.97C2250.92 1845.97 2282.76 1852.89 2309.06 1867.42C2336.06 1854.27 2362.36 1849.43 2392.13 1849.43H2419.12V1933.18H2403.9H2388.67C2383.82 1933.88 2378.28 1934.57 2372.75 1935.95C2379.67 1951.87 2383.13 1969.18 2383.13 1987.87C2383.13 2061.93 2329.83 2110.39 2261.99 2124.92V2163.69C2308.37 2176.84 2345.06 2210.76 2345.06 2261.29ZM2557.56 2022.48V2195.53H2453.73V1710.99H2557.56V1881.27C2581.79 1855.66 2612.25 1845.97 2646.86 1845.97C2745.15 1845.97 2806.76 1930.41 2806.76 2022.48V2195.53H2702.93V2022.48C2702.93 1975.41 2684.24 1942.18 2633.71 1942.18C2583.87 1942.18 2557.56 1974.02 2557.56 2022.48ZM3065.64 1861.19V1957.41H2968.73V2022.48C2968.73 2075.78 3004.03 2102.77 3055.26 2102.77C3061.49 2102.77 3067.02 2102.08 3071.87 2101.39C3076.72 2100.7 3080.87 2100 3085.71 2099.31V2195.53C3079.48 2196.22 3074.64 2197.6 3071.18 2198.3C3067.02 2198.99 3060.1 2198.99 3051.1 2198.99C2946.58 2198.99 2864.9 2127.69 2864.9 2022.48V1766.36H2968.73V1861.19H3065.64Z" fill="#004AAC"/>
</g>
<defs>
<clipPath id="clip0_4673_7540">
<rect width="3171.43" height="2450.83" fill="white"/>
</clipPath>
</defs>
</svg>
