<svg width="396" height="396" viewBox="0 0 396 396" fill="none" xmlns="http://www.w3.org/2000/svg">
<g clip-path="url(#clip0_4674_8399)">
<path d="M202.849 48.6505C123.054 46.3268 53.9344 103.426 43.4916 178.347C32.074 260.262 94.9154 333.967 172.239 345.772C268.417 360.455 361.704 275.511 353.327 183.358C347.017 113.93 283.963 51.0126 202.849 48.6505Z" fill="#F4F7FA"/>
<mask id="mask0_4674_8399" style="mask-type:luminance" maskUnits="userSpaceOnUse" x="42" y="48" width="312" height="300">
<path d="M202.849 48.6505C123.054 46.3268 53.9344 103.426 43.4916 178.347C32.074 260.262 94.9154 333.967 172.239 345.772C268.417 360.455 361.704 275.511 353.327 183.358C347.017 113.93 283.963 51.0126 202.849 48.6505Z" fill="white"/>
</mask>
<g mask="url(#mask0_4674_8399)">
<path d="M242.119 106.604L280.806 60.8818H384.033V108.568L242.119 106.604Z" fill="url(#paint0_linear_4674_8399)"/>
<path d="M375.258 116.198H252.037V297.024H375.258V116.198Z" fill="url(#paint1_linear_4674_8399)"/>
<path d="M379.837 297.023H239.83V309.994H379.837V297.023Z" fill="#D8DEE8"/>
<path d="M379.837 105.135H239.83V118.105H379.837V105.135Z" fill="url(#paint2_linear_4674_8399)"/>
<path opacity="0.3" d="M379.837 105.135H239.83V118.105H379.837V105.135Z" fill="url(#paint3_linear_4674_8399)"/>
<path d="M316.509 260.401H269.586V269.176H316.509V260.401Z" fill="#BFC8D6"/>
<path d="M311.549 132.603H274.545V263.072H311.549V132.603Z" fill="#F4F7FA"/>
<path d="M316.509 126.88H269.586V135.654H316.509V126.88Z" fill="#BFC8D6"/>
<path d="M313.075 264.216H273.4V131.076H313.075V264.216ZM276.071 261.546H310.405V133.747H276.071V261.546Z" fill="#BFC8D6"/>
</g>
<path d="M129.536 170.332V278.254C129.536 280.954 127.166 283.141 124.466 283.141H121.615C121.037 283.141 120.412 283.039 119.899 282.856C118.013 282.18 116.594 280.375 116.594 278.254V170.332C116.594 168.841 117.325 167.47 118.376 166.574C119.227 165.845 120.402 165.365 121.615 165.365H124.466C127.166 165.365 129.536 167.632 129.536 170.332Z" fill="#AABBCC"/>
<path opacity="0.4" d="M123.041 250.56C117.93 261.772 117.891 276.323 119.899 282.855C118.013 282.179 116.594 280.375 116.594 278.253V170.332C116.594 168.841 117.325 167.509 118.376 166.613C118.697 167.42 119.057 168.295 119.395 169.24C119.395 169.24 128.929 181.735 123.838 199.45C118.748 217.166 129.353 236.714 123.041 250.56Z" fill="#D8DEE8"/>
<path d="M169.902 69.7963L80.0045 64.2286L74.9951 63.916C70.3671 63.6298 66.6328 66.8704 66.6328 71.1541V194.203C66.6328 198.486 70.4222 201.815 75.0503 201.637L169.987 197.981C173.97 197.828 176.883 194.515 176.883 190.575V181.336V77.3784C176.883 73.4378 173.886 70.0427 169.902 69.7963Z" fill="url(#paint4_linear_4674_8399)"/>
<path d="M180.698 77.5677V190.457C180.698 194.387 177.502 197.697 173.54 197.849L79.0094 201.485C74.408 201.662 70.4473 198.35 70.4473 194.078V71.3791C70.4473 67.1076 74.3068 63.8755 78.9084 64.16L173.491 70.0076C177.453 70.2527 180.698 73.6378 180.698 77.5677Z" fill="url(#paint5_linear_4674_8399)"/>
<path d="M167.303 78.7085L86.3838 74.2817C85.773 74.2483 85.0789 74.2845 84.5063 74.3782C81.1075 74.9408 78.459 77.6562 78.459 81.048V185.403C78.459 189.366 81.9981 192.478 86.2459 192.343L167.273 189.757C171.009 189.638 174.213 186.539 174.213 182.851V85.7665C174.213 82.0794 171.038 78.913 167.303 78.7085ZM173.068 182.884C173.068 185.951 170.406 188.524 167.3 188.62L86.2354 191.135C82.7061 191.244 79.6034 188.661 79.6034 185.37V81.1131C79.6034 78.3359 81.8052 76.1049 84.5709 75.5906C85.0829 75.4971 85.6847 75.4609 86.235 75.4905L167.264 79.8456C170.371 80.0129 173.068 82.6426 173.068 85.7103V182.884Z" fill="white"/>
<path d="M142.182 98.1405C138.449 95.0971 132.791 93.415 124.857 93.0806C116.913 92.7457 111.267 92.9868 107.07 93.491V148.431L120.041 148.428V128.63C121.567 128.81 122.866 128.916 124.569 128.942C129.113 129.01 133.289 128.439 136.79 127.147C139.146 126.276 141.246 125.078 142.982 123.523C146.278 120.548 148.1 116.11 148.1 110.837C148.099 105.563 145.728 101.003 142.182 98.1405ZM124.483 119.421C122.612 119.379 121.567 119.272 120.041 118.997V102.755C121.185 102.54 122.866 102.361 125.501 102.453C131.917 102.678 135.569 105.791 135.569 110.793C135.569 114.121 134.052 116.605 131.39 118.031C129.595 118.996 127.242 119.482 124.483 119.421Z" fill="white"/>
<path d="M100.75 172.091C100.432 170.995 100.204 170.13 99.0595 169.814V169.758C100.204 169.368 101.297 168.303 101.297 166.777C101.297 165.677 100.878 164.849 100.124 164.291C99.2193 163.627 98.1164 163.371 96.2199 163.392C94.6814 163.408 93.3372 163.531 92.5742 163.68V175.7L95.2446 175.643V170.839L95.9882 170.827C97.1653 170.808 97.6595 171.265 98.0002 172.754C98.383 174.225 98.6572 175.176 98.8657 175.571L101.845 175.513C101.599 174.721 101.149 173.435 100.75 172.091ZM96.257 168.823L95.2446 168.838V165.503C95.2446 165.467 95.732 165.409 96.4363 165.4C97.7616 165.4 98.553 165.951 98.553 167.054C98.553 168.104 97.6977 168.801 96.257 168.823Z" fill="white"/>
<path d="M105.926 173.05V170.27L110.886 170.186V167.812L105.926 167.888V165.505L111.267 165.433V163.455L103.256 163.546V175.481L111.649 175.314V172.942L105.926 173.05Z" fill="white"/>
<path d="M118.155 168.042C116.551 167.486 115.851 167.161 115.851 166.408C115.851 165.793 116.443 165.262 117.655 165.247C118.869 165.232 119.751 165.551 120.245 165.773L120.866 163.613C120.134 163.307 119.108 163.038 117.713 163.053C114.781 163.085 113.006 164.652 113.006 166.675C113.006 168.397 114.357 169.466 116.422 170.116C117.915 170.604 118.501 171.011 118.501 171.747C118.501 172.518 117.82 173.038 116.534 173.061C115.337 173.083 114.17 172.737 113.414 172.379L112.84 174.606C113.543 174.964 114.947 175.287 116.369 175.259C119.767 175.192 121.364 173.48 121.364 171.505C121.364 169.845 120.335 168.781 118.155 168.042Z" fill="white"/>
<path d="M125.764 172.684V169.945L130.342 169.873V167.534L125.764 167.598V165.251L130.724 165.19V163.241L123.094 163.326V175.087L131.105 174.926V172.588L125.764 172.684Z" fill="white"/>
<path d="M141.057 171.392C140.757 170.33 140.26 169.492 139.497 169.18V169.126C140.26 168.759 141.571 167.718 141.571 166.238C141.571 165.171 141.161 164.368 140.451 163.827C139.6 163.183 138.394 162.936 136.61 162.955C135.158 162.971 133.775 163.09 133.012 163.235V174.894L135.682 174.837V170.177L136.455 170.166C137.562 170.148 138.072 170.593 138.392 172.037C138.753 173.464 139.033 174.387 139.229 174.77L142.056 174.714C141.825 173.946 141.431 172.697 141.057 171.392ZM136.708 168.222L135.682 168.236V165.001C135.682 164.966 136.222 164.911 136.885 164.903C138.132 164.903 138.872 165.438 138.872 166.507C138.872 167.526 138.063 168.202 136.708 168.222Z" fill="white"/>
<path d="M150.446 163.03L148.943 167.905C148.659 168.828 148.395 169.734 148.162 170.696C148.06 171.113 147.961 171.52 147.87 171.906L147.819 171.907C147.669 171.141 147.491 170.422 147.302 169.698C147.132 169.069 146.954 168.518 146.764 167.882L145.32 163.086L142.365 163.118L146.183 174.633L149.309 174.571L150.014 172.521L153.275 162.999L150.446 163.03Z" fill="white"/>
<path d="M157.047 172.121V169.447L161.243 169.387V167.102L157.047 167.155V164.863L161.625 164.812V162.909L154.758 162.981V174.461L162.006 174.32V172.037L157.047 172.121Z" fill="white"/>
<path opacity="0.3" d="M180.698 181.243V190.457C180.698 194.387 177.502 197.697 173.54 197.849L79.0094 201.485C74.408 201.662 70.4473 198.35 70.4473 194.078V71.3791C70.4473 67.1076 74.3068 63.8755 78.9084 64.16L83.9832 64.4707C83.8919 67.569 84.0265 70.9415 84.5042 74.378C84.5606 74.7805 84.6343 75.1872 84.7037 75.5903C86.3595 85.6916 91.3005 96.0772 103.393 101.425C104.7 102.004 105.966 102.56 107.185 103.098C112.215 105.333 116.528 107.298 120.226 109.346C124.837 111.887 128.515 114.559 131.459 118.033C133.609 120.56 135.374 123.511 136.837 127.148C139.584 133.988 141.269 143.272 142.385 156.721C142.576 159.03 142.993 161.104 143.606 162.966C144.471 165.611 145.728 167.833 147.302 169.708C147.578 170.042 147.862 170.36 148.162 170.671C148.742 171.28 149.361 171.85 150.014 172.384C155.86 177.171 164.277 178.955 172.773 180.182C173.153 180.233 173.532 180.287 173.911 180.338C176.189 180.658 178.47 180.943 180.698 181.243Z" fill="url(#paint6_linear_4674_8399)"/>
<path d="M306.39 210.634C297.876 227.459 256.451 315.319 256.551 307.377C256.551 307.377 248.254 306.649 249.136 288.696C249.226 286.881 249.408 284.891 249.704 282.708C252.917 258.921 270.438 169.605 277.091 184.328C283.74 199.051 281.301 207.429 285.426 193.211C289.555 178.991 294.085 165.234 300.869 173.832C301.255 174.323 301.643 174.823 302.032 175.331C308.425 183.746 314.415 194.772 306.39 210.634Z" fill="url(#paint7_linear_4674_8399)"/>
<path opacity="0.3" d="M306.39 210.633C297.876 227.459 256.451 315.318 256.551 307.376C256.551 307.376 248.254 306.649 249.136 288.695C252.25 277.039 263.661 267.191 268.22 262.707C275.067 255.976 277.868 255.152 277.022 239.548C276.176 223.944 280.005 217.394 293.831 197.656C300.071 188.746 301.9 181.072 302.032 175.331C308.425 183.746 314.415 194.771 306.39 210.633Z" fill="url(#paint8_linear_4674_8399)"/>
<path d="M339.048 268.621C320.91 282.048 273.335 305.864 260.044 306.505C257.061 306.648 255.803 305.623 256.994 303.055C256.994 303.055 291.956 179.35 327.987 182.059C332.811 182.423 339.397 183.915 343.184 187.107C343.837 187.659 344.415 188.236 344.926 188.841C352.99 198.42 343.962 214.496 338.132 222.951C335.965 226.1 332.991 228.467 330.616 231.435C328.597 233.957 327.419 237.581 331.496 237.971C335.239 238.326 338.42 234.427 341.955 233.814C345.965 233.125 348.597 235.496 350.204 240.552C353.593 251.201 347.764 262.17 339.048 268.621Z" fill="url(#paint9_linear_4674_8399)"/>
<path opacity="0.3" d="M339.047 268.621C320.909 282.048 273.334 305.865 260.043 306.505C262.395 302.886 265.104 298.877 268.226 294.469C286.747 268.308 311.25 278.671 305.247 255.939C299.245 233.203 304.317 212.744 325.004 206.21C337.243 202.341 342.593 194.554 344.925 188.842C352.989 198.42 343.961 214.496 338.131 222.951C335.964 226.1 332.99 228.467 330.615 231.435C328.596 233.958 327.418 237.582 331.495 237.972C335.238 238.327 338.419 234.427 341.954 233.814C345.964 233.125 348.596 235.496 350.203 240.552C353.592 251.201 347.763 262.17 339.047 268.621Z" fill="url(#paint10_linear_4674_8399)"/>
<path d="M328.728 308.707H323.834L317.771 293.301C317.771 293.301 328.895 294.079 328.728 308.707Z" fill="url(#paint11_linear_4674_8399)"/>
<path d="M214.494 335.351L246.347 329.448C246.347 329.448 249.239 304.86 235 302.524C220.762 300.188 213.12 319.234 214.494 335.351Z" fill="url(#paint12_linear_4674_8399)"/>
<path d="M216.063 306.427C216.059 306.428 216.055 306.428 216.052 306.429C215.058 306.528 214.146 306.917 213.24 307.475C212.369 307.917 211.317 308.437 211.317 309.102V309.117C207.961 312.607 205.753 319.056 205.74 326.276C205.723 335.893 209.636 343.666 214.797 344.563C214.797 344.563 214.786 344.569 214.786 344.569C215.134 344.619 219.458 346.184 233.085 344.642C233.446 338.789 233.659 305.654 233.659 305.654C233.659 305.654 222.768 305.091 216.063 306.427Z" fill="url(#paint13_linear_4674_8399)"/>
<path d="M243.269 324.43C243.269 335.429 238.177 344.545 232.006 344.774C225.952 344.999 221.139 336.56 221.15 325.939C221.162 315.328 225.985 306.257 232.027 305.657C238.187 305.046 243.269 313.441 243.269 324.43Z" fill="url(#paint14_linear_4674_8399)"/>
<path d="M238.44 324.682C238.438 332.487 235.045 338.975 230.909 339.166C226.828 339.354 223.563 333.321 223.57 325.698C223.578 318.08 226.849 311.613 230.926 311.244C235.056 310.87 238.442 316.882 238.44 324.682Z" fill="white"/>
<path d="M305.785 294.715C305.782 294.715 305.779 294.716 305.776 294.716C304.97 294.802 304.015 295.136 303.28 295.617C302.573 295.998 302.762 296.446 301.504 297.019V297.032C299.406 300.038 297.206 305.593 297.195 311.812C297.181 320.096 300.464 326.791 304.65 327.564C304.65 327.564 304.695 327.569 304.695 327.569C304.978 327.612 308.512 328.961 319.567 327.632C319.86 322.591 320.047 294.049 320.047 294.049C320.047 294.049 311.225 293.563 305.785 294.715Z" fill="url(#paint15_linear_4674_8399)"/>
<path d="M327.856 310.221C327.856 319.696 323.725 327.548 318.718 327.746C313.808 327.94 309.903 320.67 309.912 311.521C309.921 302.381 313.834 294.568 318.735 294.051C323.732 293.525 327.856 300.756 327.856 310.221Z" fill="url(#paint16_linear_4674_8399)"/>
<path d="M323.938 310.438C323.936 317.162 321.183 322.751 317.829 322.915C314.517 323.077 311.869 317.881 311.875 311.314C311.881 304.752 314.535 299.181 317.842 298.864C321.192 298.542 323.939 303.72 323.938 310.438Z" fill="white"/>
<path d="M95.6242 298.691C95.6197 298.691 95.6152 298.691 95.6107 298.691C94.3763 298.691 93.4353 299.313 92.304 299.866C91.2129 300.287 90.5097 301.124 90.0903 301.842V301.859C85.4761 305.602 82.8457 313.1 82.8457 321.734C82.8457 333.223 87.7421 342.692 94.2128 343.992C94.2128 343.992 94.1511 343.998 94.1511 343.998C94.5836 344.073 99.8933 346.094 116.217 344.888C116.637 338.223 116.857 300.092 116.857 300.092C116.857 300.092 103.851 297.852 95.6242 298.691Z" fill="url(#paint17_linear_4674_8399)"/>
<path d="M114.925 344.994C122.114 344.994 127.942 334.96 127.942 322.582C127.942 310.205 122.114 300.171 114.925 300.171C107.736 300.171 101.908 310.205 101.908 322.582C101.908 334.96 107.736 344.994 114.925 344.994Z" fill="url(#paint18_linear_4674_8399)"/>
<path d="M113.631 338.521C118.481 338.521 122.414 331.346 122.414 322.495C122.414 313.645 118.481 306.47 113.631 306.47C108.78 306.47 104.848 313.645 104.848 322.495C104.848 331.346 108.78 338.521 113.631 338.521Z" fill="url(#paint19_linear_4674_8399)"/>
<path d="M332.943 300.077C333.398 302.139 332.815 304.293 331.383 305.845L328.733 308.715C328.006 300.247 323.626 293.735 318.326 293.735C312.524 293.735 307.812 301.553 307.812 311.194C307.812 313.481 308.074 315.66 308.561 317.661L307.402 318.14L244.794 329.736C244.964 328.446 245.277 327.109 245.277 325.75C245.277 324.521 245.296 323.324 245.296 322.149C245.296 322.142 245.296 322.142 245.296 322.134C243.198 312.153 238.092 304.551 231.077 304.551C223.236 304.551 216.764 314.045 216.764 325.75C216.764 328.948 217.186 331.976 218.036 334.696L208.675 336.426C208.667 336.442 208.637 336.631 208.614 336.646C208.321 336.963 206.058 338.96 194.995 338.96H72.8928C67.3687 338.96 63.2441 334.139 63.2441 328.616V328.16C63.2441 326.043 64.2634 324.112 66.1563 323.161C66.1563 323.161 62.7763 313.473 65.4568 301.885C66.5305 297.257 68.5026 292.328 72.0644 287.593C74.1346 284.842 76.6926 282.162 79.9065 279.643C79.9065 279.643 93.8014 268.117 119.296 265.119C119.296 265.119 140.428 249.758 159.764 239.576C169.298 234.554 179.745 231.994 190.522 231.994H261.203C273.471 231.994 285.508 235.412 295.945 241.87L314.355 253.244C314.355 253.244 318.751 255.863 323.232 262.136C328.331 269.267 333.538 281.126 332.51 299.212L332.943 300.077Z" fill="url(#paint20_linear_4674_8399)"/>
<path d="M208.645 336.426C208.638 336.441 208.622 336.631 208.599 336.646C207.749 337.179 206.675 339.799 178.353 338.96H72.8919C67.3679 338.96 63.2433 334.139 63.2433 328.615V328.16C63.2433 328.036 63.0728 327.92 63.0803 327.796C63.204 325.826 64.2822 324.057 66.0664 323.161L188.858 324.32C188.858 324.32 200.44 322.211 204.411 324.289C204.967 324.583 205.366 324.954 205.566 325.425C207.235 329.272 209.418 334.626 208.645 336.426Z" fill="url(#paint21_linear_4674_8399)"/>
<g opacity="0.8">
<path d="M93.7896 302.132V303.731C93.7896 304.975 93.2796 306.157 92.3833 307.022C91.4871 307.88 90.2822 308.336 89.0381 308.282L75.9046 307.725C72.7525 307.594 69.7634 306.281 67.5302 304.048L65.3672 301.885C66.4408 297.257 68.4575 292.328 72.0192 287.593C72.0651 287.6 72.112 287.6 72.1579 287.608L78.4622 292.583C81.7998 295.218 85.7547 296.956 89.9577 297.628C92.1675 297.983 93.7896 299.892 93.7896 302.132Z" fill="white"/>
</g>
<g opacity="0.4">
<path d="M152.083 300.3C151.22 301.339 149.778 302.184 148.885 302.186C132.479 302.184 116.089 302.182 99.7178 302.18C98.8261 302.179 97.5647 301.332 96.9167 300.297C96.2732 299.267 96.5691 298.44 97.5738 298.439C115.631 298.439 133.709 298.439 151.807 298.439C152.807 298.442 152.949 299.269 152.083 300.3Z" fill="url(#paint22_linear_4674_8399)"/>
<path d="M146.543 307.016C145.63 308.104 144.306 308.997 143.575 308.995C130.244 308.991 116.923 308.986 103.615 308.982C102.888 308.982 101.743 308.092 101.061 307.004C100.381 305.923 100.525 305.053 101.364 305.055C116.442 305.058 131.534 305.061 146.641 305.064C147.483 305.065 147.447 305.934 146.543 307.016C146.544 307.016 146.544 307.016 146.543 307.016Z" fill="url(#paint23_linear_4674_8399)"/>
</g>
<path opacity="0.8" d="M166.364 308.622C163.372 308.544 160.98 306.374 160.98 303.724V302.108C160.98 299.588 163.15 297.479 165.982 297.232L171.322 296.766L203.103 288.396L202.407 292.402C201.354 298.456 196.73 303.55 190.279 305.762L185.56 307.381C182.453 308.446 179.133 308.951 175.804 308.865L166.364 308.622Z" fill="white"/>
<path opacity="0.4" d="M204.389 324.418L191.132 328.054H62.9023C63.0261 325.957 64.1932 324.186 65.9775 323.29L188.814 324.449C188.814 324.449 200.417 322.34 204.389 324.418Z" fill="white"/>
<path d="M287.895 315.469C287.887 315.469 287.88 315.469 287.871 315.469C287.445 314.631 287.11 314.89 287.122 314.464C287.13 314.206 287.885 288.396 287.124 277.935C286.465 268.872 284.947 267.228 284.813 267.105C284.479 266.918 284.328 266.482 284.473 266.118C284.632 265.722 285.083 265.517 285.477 265.674C286.036 265.897 287.916 267.42 288.665 277.724C289.431 288.264 288.675 314.254 288.667 314.513C288.654 314.932 288.311 315.469 287.895 315.469Z" fill="url(#paint24_linear_4674_8399)"/>
<path opacity="0.5" d="M332.944 300.077L332.514 299.212C333.541 281.126 328.338 269.268 323.239 262.137C320.026 262.322 315.723 263.921 316.047 271.214C316.557 282.733 314.255 288.682 305.502 293.951C301.346 296.446 296.788 298.594 293.103 301.784C289.813 304.643 288.276 309.031 284.924 311.719C279.253 316.262 271.559 314.246 264.954 313.944C258.935 313.666 245.296 313.38 245.296 322.134C245.296 322.141 245.296 322.141 245.296 322.149C245.296 323.323 245.277 324.521 245.277 325.749C245.277 327.109 244.951 328.445 244.781 329.735L307.395 318.139L308.557 317.66C308.071 315.659 307.81 313.481 307.81 311.194C307.81 301.553 312.523 293.734 318.325 293.734C323.625 293.734 328.005 300.247 328.732 308.714L331.382 305.844C332.815 304.293 333.398 302.139 332.944 300.077Z" fill="url(#paint25_linear_4674_8399)"/>
<path d="M248.3 237.447C248.3 237.447 240.057 258.541 238.002 261.632C237.809 261.917 237.561 262.344 237.268 262.591C234.418 264.971 227.441 265.552 227.441 265.552H124.691C147.613 247.934 167.182 237.447 167.182 237.447H248.3Z" fill="url(#paint26_linear_4674_8399)"/>
<path d="M311.458 255.177C311.458 255.177 300.495 259.658 285.77 263.876C285.291 261.604 284.519 258.753 283.275 255.617C280.988 249.815 277.11 243.024 270.527 237.037C275.619 237.408 281.583 238.397 287.871 240.591C295.589 243.279 303.786 247.783 311.458 255.177Z" fill="url(#paint27_linear_4674_8399)"/>
<path d="M282 264.926C274.661 266.912 266.595 268.751 258.591 269.925C254.033 270.589 249.498 271.037 245.134 271.169C243.859 271.207 242.592 271.223 241.348 271.207C241.348 271.207 241.348 271.2 241.355 271.192C241.548 270.373 249.359 238.358 256.606 237.408C258.274 237.192 260.909 236.913 264.231 236.859C272.057 242.646 276.584 249.838 279.179 255.988C280.64 259.441 281.497 262.562 282 264.926Z" fill="url(#paint28_linear_4674_8399)"/>
<path opacity="0.3" d="M237.268 262.582C234.418 264.961 227.441 265.552 227.441 265.552H124.691C147.613 247.934 167.182 237.447 167.182 237.447H168.634C170.906 238.286 173.131 240.307 175.101 243.112C183.05 254.445 226.97 245.856 237.268 262.582Z" fill="url(#paint29_linear_4674_8399)"/>
<path opacity="0.3" d="M245.134 271.168C243.859 271.207 242.592 271.222 241.348 271.207C241.348 271.207 241.348 271.199 241.355 271.191C242.383 271.183 243.658 271.176 245.134 271.168Z" fill="url(#paint30_linear_4674_8399)"/>
<path opacity="0.3" d="M279.18 255.988C280.641 259.442 281.498 262.563 282 264.927C274.661 266.912 266.595 268.751 258.592 269.925C259.72 268.805 260.762 267.391 261.674 265.622C265.653 257.935 272.675 256.614 279.18 255.988Z" fill="url(#paint31_linear_4674_8399)"/>
<path opacity="0.3" d="M311.457 255.177C311.457 255.177 300.494 259.658 285.769 263.876C285.29 261.604 284.517 258.753 283.273 255.617C287.198 255.223 290.59 254.613 292.529 252.28C295.929 248.169 291.71 243.565 287.87 240.591C295.588 243.279 303.785 247.783 311.457 255.177Z" fill="url(#paint32_linear_4674_8399)"/>
<path d="M241.067 272.711C241.067 272.711 244.319 259.874 248.941 259.36C253.562 258.847 266.742 255.081 267.941 261.414C269.139 267.747 266.742 270.907 260.067 271.296C253.391 271.684 248.941 271.296 248.941 271.296L245.86 274.594C245.86 274.594 240.896 278.018 241.067 272.711Z" fill="url(#paint33_linear_4674_8399)"/>
<path d="M239.526 272.711C239.526 272.711 242.778 259.874 247.4 259.36C252.021 258.847 265.201 255.081 266.4 261.414C267.598 267.747 265.201 270.907 258.526 271.296C251.85 271.684 247.399 271.296 247.399 271.296L244.318 274.594C244.318 274.594 239.355 278.018 239.526 272.711Z" fill="url(#paint34_linear_4674_8399)"/>
</g>
<defs>
<linearGradient id="paint0_linear_4674_8399" x1="242.119" y1="84.7249" x2="384.033" y2="84.7249" gradientUnits="userSpaceOnUse">
<stop stop-color="#FF9085"/>
<stop offset="1" stop-color="#FB6FBB"/>
</linearGradient>
<linearGradient id="paint1_linear_4674_8399" x1="252.037" y1="206.611" x2="375.258" y2="206.611" gradientUnits="userSpaceOnUse">
<stop stop-color="#D8DEE8"/>
<stop offset="1" stop-color="white"/>
</linearGradient>
<linearGradient id="paint2_linear_4674_8399" x1="287.141" y1="37.4924" x2="310.031" y2="112.264" gradientUnits="userSpaceOnUse">
<stop stop-color="#FF9085"/>
<stop offset="1" stop-color="#FB6FBB"/>
</linearGradient>
<linearGradient id="paint3_linear_4674_8399" x1="287.141" y1="37.4924" x2="310.031" y2="112.264" gradientUnits="userSpaceOnUse">
<stop stop-color="#FF9085"/>
<stop offset="1" stop-color="#FB6FBB"/>
</linearGradient>
<linearGradient id="paint4_linear_4674_8399" x1="66.6329" y1="132.771" x2="176.883" y2="132.771" gradientUnits="userSpaceOnUse">
<stop stop-color="#444B8C"/>
<stop offset="0.9964" stop-color="#3E4177"/>
</linearGradient>
<linearGradient id="paint5_linear_4674_8399" x1="70.4473" y1="132.817" x2="180.698" y2="132.817" gradientUnits="userSpaceOnUse">
<stop stop-color="#AA80F9"/>
<stop offset="0.9964" stop-color="#6165D7"/>
</linearGradient>
<linearGradient id="paint6_linear_4674_8399" x1="70.4473" y1="132.817" x2="180.698" y2="132.817" gradientUnits="userSpaceOnUse">
<stop stop-color="#AA80F9"/>
<stop offset="0.9964" stop-color="#6165D7"/>
</linearGradient>
<linearGradient id="paint7_linear_4674_8399" x1="257.779" y1="236.093" x2="302.042" y2="244.039" gradientUnits="userSpaceOnUse">
<stop offset="0.0036" stop-color="#E38DDD"/>
<stop offset="1" stop-color="#9571F6"/>
</linearGradient>
<linearGradient id="paint8_linear_4674_8399" x1="258.27" y1="237.815" x2="301.758" y2="245.622" gradientUnits="userSpaceOnUse">
<stop offset="0.0036" stop-color="#E38DDD"/>
<stop offset="1" stop-color="#9571F6"/>
</linearGradient>
<linearGradient id="paint9_linear_4674_8399" x1="276.085" y1="238.714" x2="348.166" y2="260.179" gradientUnits="userSpaceOnUse">
<stop stop-color="#FF9085"/>
<stop offset="1" stop-color="#FB6FBB"/>
</linearGradient>
<linearGradient id="paint10_linear_4674_8399" x1="279.592" y1="240.856" x2="347.865" y2="261.187" gradientUnits="userSpaceOnUse">
<stop stop-color="#FF9085"/>
<stop offset="1" stop-color="#FB6FBB"/>
</linearGradient>
<linearGradient id="paint11_linear_4674_8399" x1="316.467" y1="307.691" x2="322.903" y2="301.346" gradientUnits="userSpaceOnUse">
<stop stop-color="#FCB148"/>
<stop offset="0.0521" stop-color="#FDBA46"/>
<stop offset="0.1424" stop-color="#FFC244"/>
<stop offset="0.3183" stop-color="#FFC444"/>
<stop offset="0.4849" stop-color="#FDB946"/>
<stop offset="0.7754" stop-color="#F99C4D"/>
<stop offset="0.8658" stop-color="#F8924F"/>
<stop offset="1" stop-color="#F8924F"/>
</linearGradient>
<linearGradient id="paint12_linear_4674_8399" x1="201.528" y1="350.634" x2="229.877" y2="322.685" gradientUnits="userSpaceOnUse">
<stop stop-color="#FCB148"/>
<stop offset="0.0521" stop-color="#FDBA46"/>
<stop offset="0.1424" stop-color="#FFC244"/>
<stop offset="0.3183" stop-color="#FFC444"/>
<stop offset="0.4849" stop-color="#FDB946"/>
<stop offset="0.7754" stop-color="#F99C4D"/>
<stop offset="0.8658" stop-color="#F8924F"/>
<stop offset="1" stop-color="#F8924F"/>
</linearGradient>
<linearGradient id="paint13_linear_4674_8399" x1="205.74" y1="325.428" x2="233.659" y2="325.428" gradientUnits="userSpaceOnUse">
<stop stop-color="#444B8C"/>
<stop offset="0.9964" stop-color="#3E4177"/>
</linearGradient>
<linearGradient id="paint14_linear_4674_8399" x1="249.567" y1="291.185" x2="221.141" y2="346.914" gradientUnits="userSpaceOnUse">
<stop stop-color="#EBEFF2"/>
<stop offset="0.9946" stop-color="#B7C0CE"/>
</linearGradient>
<linearGradient id="paint15_linear_4674_8399" x1="297.195" y1="311.082" x2="320.047" y2="311.082" gradientUnits="userSpaceOnUse">
<stop stop-color="#444B8C"/>
<stop offset="0.9964" stop-color="#3E4177"/>
</linearGradient>
<linearGradient id="paint16_linear_4674_8399" x1="333.762" y1="281.728" x2="309.395" y2="329.498" gradientUnits="userSpaceOnUse">
<stop stop-color="#EBEFF2"/>
<stop offset="0.9946" stop-color="#B7C0CE"/>
</linearGradient>
<linearGradient id="paint17_linear_4674_8399" x1="82.8457" y1="321.887" x2="116.857" y2="321.887" gradientUnits="userSpaceOnUse">
<stop stop-color="#444B8C"/>
<stop offset="0.9964" stop-color="#3E4177"/>
</linearGradient>
<linearGradient id="paint18_linear_4674_8399" x1="134.628" y1="283.956" x2="102.351" y2="347.234" gradientUnits="userSpaceOnUse">
<stop stop-color="#444B8C"/>
<stop offset="0.9964" stop-color="#3E4177"/>
</linearGradient>
<linearGradient id="paint19_linear_4674_8399" x1="104.848" y1="322.495" x2="122.414" y2="322.495" gradientUnits="userSpaceOnUse">
<stop stop-color="#444B8C"/>
<stop offset="0.9964" stop-color="#3E4177"/>
</linearGradient>
<linearGradient id="paint20_linear_4674_8399" x1="123.551" y1="395.271" x2="-121.054" y2="703.636" gradientUnits="userSpaceOnUse">
<stop stop-color="#FCB148"/>
<stop offset="0.0521" stop-color="#FDBA46"/>
<stop offset="0.1424" stop-color="#FFC244"/>
<stop offset="0.3183" stop-color="#FFC444"/>
<stop offset="0.4849" stop-color="#FDB946"/>
<stop offset="0.7754" stop-color="#F99C4D"/>
<stop offset="0.8658" stop-color="#F8924F"/>
<stop offset="1" stop-color="#F8924F"/>
</linearGradient>
<linearGradient id="paint21_linear_4674_8399" x1="142.239" y1="296.468" x2="126.662" y2="383.571" gradientUnits="userSpaceOnUse">
<stop stop-color="#FCB148"/>
<stop offset="0.0521" stop-color="#FDBA46"/>
<stop offset="0.1424" stop-color="#FFC244"/>
<stop offset="0.3183" stop-color="#FFC444"/>
<stop offset="0.4849" stop-color="#FDB946"/>
<stop offset="0.7754" stop-color="#F99C4D"/>
<stop offset="0.8658" stop-color="#F8924F"/>
<stop offset="1" stop-color="#F8924F"/>
</linearGradient>
<linearGradient id="paint22_linear_4674_8399" x1="96.5761" y1="300.313" x2="152.654" y2="300.313" gradientUnits="userSpaceOnUse">
<stop stop-color="#FCB148"/>
<stop offset="0.0521" stop-color="#FDBA46"/>
<stop offset="0.1424" stop-color="#FFC244"/>
<stop offset="0.3183" stop-color="#FFC444"/>
<stop offset="0.4849" stop-color="#FDB946"/>
<stop offset="0.7754" stop-color="#F99C4D"/>
<stop offset="0.8658" stop-color="#F8924F"/>
<stop offset="1" stop-color="#F8924F"/>
</linearGradient>
<linearGradient id="paint23_linear_4674_8399" x1="100.631" y1="307.025" x2="147.248" y2="307.025" gradientUnits="userSpaceOnUse">
<stop stop-color="#FCB148"/>
<stop offset="0.0521" stop-color="#FDBA46"/>
<stop offset="0.1424" stop-color="#FFC244"/>
<stop offset="0.3183" stop-color="#FFC444"/>
<stop offset="0.4849" stop-color="#FDB946"/>
<stop offset="0.7754" stop-color="#F99C4D"/>
<stop offset="0.8658" stop-color="#F8924F"/>
<stop offset="1" stop-color="#F8924F"/>
</linearGradient>
<linearGradient id="paint24_linear_4674_8399" x1="251.979" y1="306.301" x2="290.384" y2="288.783" gradientUnits="userSpaceOnUse">
<stop stop-color="#FCB148"/>
<stop offset="0.0521" stop-color="#FDBA46"/>
<stop offset="0.1424" stop-color="#FFC244"/>
<stop offset="0.3183" stop-color="#FFC444"/>
<stop offset="0.4849" stop-color="#FDB946"/>
<stop offset="0.7754" stop-color="#F99C4D"/>
<stop offset="0.8658" stop-color="#F8924F"/>
<stop offset="1" stop-color="#F8924F"/>
</linearGradient>
<linearGradient id="paint25_linear_4674_8399" x1="257.734" y1="342.873" x2="331.315" y2="270.328" gradientUnits="userSpaceOnUse">
<stop stop-color="#FCB148"/>
<stop offset="0.0521" stop-color="#FDBA46"/>
<stop offset="0.1424" stop-color="#FFC244"/>
<stop offset="0.3183" stop-color="#FFC444"/>
<stop offset="0.4849" stop-color="#FDB946"/>
<stop offset="0.7754" stop-color="#F99C4D"/>
<stop offset="0.8658" stop-color="#F8924F"/>
<stop offset="1" stop-color="#F8924F"/>
</linearGradient>
<linearGradient id="paint26_linear_4674_8399" x1="124.691" y1="251.5" x2="248.3" y2="251.5" gradientUnits="userSpaceOnUse">
<stop stop-color="#444B8C"/>
<stop offset="0.9964" stop-color="#3E4177"/>
</linearGradient>
<linearGradient id="paint27_linear_4674_8399" x1="270.527" y1="250.456" x2="311.458" y2="250.456" gradientUnits="userSpaceOnUse">
<stop stop-color="#444B8C"/>
<stop offset="0.9964" stop-color="#3E4177"/>
</linearGradient>
<linearGradient id="paint28_linear_4674_8399" x1="241.348" y1="254.036" x2="282" y2="254.036" gradientUnits="userSpaceOnUse">
<stop stop-color="#444B8C"/>
<stop offset="0.9964" stop-color="#3E4177"/>
</linearGradient>
<linearGradient id="paint29_linear_4674_8399" x1="151.694" y1="292.94" x2="210.524" y2="234.939" gradientUnits="userSpaceOnUse">
<stop stop-color="#444B8C"/>
<stop offset="0.9964" stop-color="#3E4177"/>
</linearGradient>
<linearGradient id="paint30_linear_4674_8399" x1="242.269" y1="272.141" x2="244.208" y2="270.23" gradientUnits="userSpaceOnUse">
<stop stop-color="#444B8C"/>
<stop offset="0.9964" stop-color="#3E4177"/>
</linearGradient>
<linearGradient id="paint31_linear_4674_8399" x1="262.49" y1="273.879" x2="279.898" y2="256.716" gradientUnits="userSpaceOnUse">
<stop stop-color="#444B8C"/>
<stop offset="0.9964" stop-color="#3E4177"/>
</linearGradient>
<linearGradient id="paint32_linear_4674_8399" x1="284.623" y1="262.713" x2="301.998" y2="245.583" gradientUnits="userSpaceOnUse">
<stop stop-color="#444B8C"/>
<stop offset="0.9964" stop-color="#3E4177"/>
</linearGradient>
<linearGradient id="paint33_linear_4674_8399" x1="249.052" y1="272.277" x2="273.358" y2="248.313" gradientUnits="userSpaceOnUse">
<stop stop-color="#FCB148"/>
<stop offset="0.0521" stop-color="#FDBA46"/>
<stop offset="0.1424" stop-color="#FFC244"/>
<stop offset="0.3183" stop-color="#FFC444"/>
<stop offset="0.4849" stop-color="#FDB946"/>
<stop offset="0.7754" stop-color="#F99C4D"/>
<stop offset="0.8658" stop-color="#F8924F"/>
<stop offset="1" stop-color="#F8924F"/>
</linearGradient>
<linearGradient id="paint34_linear_4674_8399" x1="196.115" y1="289.408" x2="245.469" y2="268.858" gradientUnits="userSpaceOnUse">
<stop stop-color="#FCB148"/>
<stop offset="0.0521" stop-color="#FDBA46"/>
<stop offset="0.1424" stop-color="#FFC244"/>
<stop offset="0.3183" stop-color="#FFC444"/>
<stop offset="0.4849" stop-color="#FDB946"/>
<stop offset="0.7754" stop-color="#F99C4D"/>
<stop offset="0.8658" stop-color="#F8924F"/>
<stop offset="1" stop-color="#F8924F"/>
</linearGradient>
<clipPath id="clip0_4674_8399">
<rect width="396" height="396" fill="white"/>
</clipPath>
</defs>
</svg>
