<svg width="396" height="396" viewBox="0 0 396 396" fill="none" xmlns="http://www.w3.org/2000/svg">
<g clip-path="url(#clip0_4674_8138)">
<path opacity="0.3" d="M311.644 305.395C305.535 311.826 299.756 315.973 295.189 319.25C241.511 357.764 177.996 346.537 164.497 343.796C144.563 339.747 106.032 331.921 78.175 299.162C36.0293 249.599 42.592 171.515 75.2831 119.97C81.2628 110.542 112.849 58.2125 177.049 49.8204C215.902 44.7417 261.192 54.9849 293.989 82.4629C362.835 140.142 357.934 256.663 311.644 305.395Z" fill="url(#paint0_linear_4674_8138)"/>
<path d="M285.246 121.263C285.216 120.405 283.924 119.715 282.341 119.715H186.326C184.722 119.715 183.018 120.426 183.018 121.296V242.753C183.018 243.402 183.696 244.024 184.544 244.483C185.392 244.941 186.642 245.198 187.839 245.196L284.907 245.052C286.115 245.051 287.296 244.786 288.141 244.318C288.985 243.85 289.461 243.216 289.438 242.562L285.246 121.263Z" fill="url(#paint1_linear_4674_8138)"/>
<path d="M230.104 128.322L198.695 128.263L198.707 126.133L230.081 126.187L230.104 128.322Z" fill="white"/>
<path d="M230.19 136.168L198.652 136.09L198.664 133.942L230.167 134.015L230.19 136.168Z" fill="white"/>
<path d="M230.278 144.078L198.609 143.981L198.621 141.815L230.254 141.908L230.278 144.078Z" fill="white"/>
<path d="M230.366 152.054L198.566 151.937L198.578 149.754L230.342 149.866L230.366 152.054Z" fill="white"/>
<path d="M230.453 160.097L198.521 159.96L198.534 157.759L230.429 157.891L230.453 160.097Z" fill="white"/>
<path d="M230.632 176.385L198.432 176.207L198.444 173.969L230.607 174.141L230.632 176.385Z" fill="white"/>
<path d="M230.906 201.337L198.295 201.095L198.308 198.799L230.88 199.035L230.906 201.337Z" fill="white"/>
<path d="M230.542 168.207L198.477 168.05L198.489 165.83L230.518 165.982L230.542 168.207Z" fill="white"/>
<path d="M230.722 184.632L198.387 184.433L198.399 182.176L230.698 182.369L230.722 184.632Z" fill="white"/>
<path d="M230.814 192.949L198.342 192.729L198.354 190.452L230.789 190.667L230.814 192.949Z" fill="white"/>
<path d="M230.998 209.797L198.248 209.532L198.261 207.217L230.973 207.475L230.998 209.797Z" fill="white"/>
<path d="M231.094 218.329L198.203 218.042L198.216 215.707L231.068 215.988L231.094 218.329Z" fill="white"/>
<path d="M231.186 226.935L198.154 226.625L198.167 224.27L231.16 224.573L231.186 226.935Z" fill="white"/>
<path d="M231.282 235.615L198.107 235.282L198.12 232.906L231.256 233.233L231.282 235.615Z" fill="white"/>
<path d="M271.285 128.399L239.679 128.34L239.645 126.203L271.215 126.257L271.285 128.399Z" fill="white"/>
<path d="M271.541 136.27L239.804 136.192L239.77 134.037L271.47 134.11L271.541 136.27Z" fill="white"/>
<path d="M271.8 144.206L239.931 144.108L239.896 141.936L271.729 142.028L271.8 144.206Z" fill="white"/>
<path d="M272.06 152.208L240.059 152.09L240.023 149.899L271.989 150.012L272.06 152.208Z" fill="white"/>
<path d="M272.323 160.277L240.188 160.139L240.152 157.931L272.251 158.063L272.323 160.277Z" fill="white"/>
<path d="M272.855 176.619L240.448 176.439L240.412 174.193L272.782 174.367L272.855 176.619Z" fill="white"/>
<path d="M273.671 201.655L240.847 201.411L240.811 199.107L273.595 199.345L273.671 201.655Z" fill="white"/>
<path d="M272.588 168.414L240.317 168.255L240.281 166.028L272.515 166.181L272.588 168.414Z" fill="white"/>
<path d="M273.124 184.894L240.579 184.694L240.543 182.429L273.05 182.624L273.124 184.894Z" fill="white"/>
<path d="M273.396 193.239L240.712 193.017L240.676 190.732L273.321 190.949L273.396 193.239Z" fill="white"/>
<path d="M273.947 210.144L240.982 209.878L240.945 207.555L273.871 207.815L273.947 210.144Z" fill="white"/>
<path d="M274.226 218.706L241.12 218.417L241.082 216.073L274.15 216.356L274.226 218.706Z" fill="white"/>
<path d="M274.507 227.342L241.257 227.03L241.219 224.666L274.429 224.972L274.507 227.342Z" fill="white"/>
<path d="M274.791 236.052L241.396 235.717L241.357 233.333L274.713 233.662L274.791 236.052Z" fill="white"/>
<path d="M208.918 67.5154C208.882 65.5848 207.317 63.9961 205.399 63.9961H132.914C130.971 63.9961 129.062 65.6676 129.062 67.6246V242.528C129.062 243.47 129.601 244.373 130.263 245.037C130.925 245.702 131.906 246.074 132.841 246.072L208.628 245.863C209.571 245.861 210.494 245.477 211.154 244.798C211.813 244.12 212.185 243.182 212.167 242.232L208.918 67.5154Z" fill="url(#paint2_linear_4674_8138)"/>
<g opacity="0.5">
<path d="M155.536 84.6063L134.887 84.5783L134.723 73.9209H155.392L155.536 84.6063Z" fill="white"/>
<path d="M178.682 84.6009L158.053 84.573L157.912 73.9209H178.561L178.682 84.6009Z" fill="white"/>
<path d="M201.803 84.5956L181.195 84.5676L181.076 73.9209H201.704L201.803 84.5956Z" fill="white"/>
<path d="M155.794 103.736L135.181 103.75L135.018 93.1619L155.651 93.1533L155.794 103.736Z" fill="white"/>
<path d="M178.9 103.721L158.307 103.735L158.166 93.1521L178.779 93.1436L178.9 103.721Z" fill="white"/>
<path d="M201.982 103.706L181.41 103.72L181.291 93.1423L201.883 93.1338L201.982 103.706Z" fill="white"/>
<path d="M156.051 122.734L135.473 122.756L135.311 112.205L155.908 112.188L156.051 122.734Z" fill="white"/>
<path d="M179.115 122.71L158.558 122.732L158.418 112.186L178.995 112.169L179.115 122.71Z" fill="white"/>
<path d="M202.158 122.685L181.622 122.707L181.504 112.166L202.06 112.149L202.158 122.685Z" fill="white"/>
<path d="M156.307 141.666L135.766 141.696L135.604 131.182L156.165 131.156L156.307 141.666Z" fill="white"/>
<path d="M179.333 141.633L158.812 141.663L158.672 131.153L179.213 131.128L179.333 141.633Z" fill="white"/>
<path d="M202.335 141.599L181.834 141.629L181.717 131.125L202.237 131.1L202.335 141.599Z" fill="white"/>
<path d="M156.562 160.534L136.056 160.573L135.895 150.095L156.42 150.061L156.562 160.534Z" fill="white"/>
<path d="M179.547 160.491L159.061 160.529L158.922 150.056L179.427 150.022L179.547 160.491Z" fill="white"/>
<path d="M202.51 160.448L182.045 160.486L181.928 150.018L202.413 149.984L202.51 160.448Z" fill="white"/>
<path d="M156.817 179.336L136.347 179.383L136.186 168.941L156.676 168.898L156.817 179.336Z" fill="white"/>
<path d="M179.763 179.283L159.313 179.33L159.174 168.893L179.644 168.851L179.763 179.283Z" fill="white"/>
<path d="M202.685 179.231L182.256 179.278L182.139 168.846L202.588 168.804L202.685 179.231Z" fill="white"/>
<path d="M157.07 198.073L136.635 198.128L136.475 187.722L156.929 187.672L157.07 198.073Z" fill="white"/>
<path d="M179.975 198.012L159.56 198.067L159.422 187.666L179.856 187.615L179.975 198.012Z" fill="white"/>
<path d="M202.859 197.95L182.464 198.005L182.348 187.609L202.762 187.559L202.859 197.95Z" fill="white"/>
<path d="M157.324 216.746L136.924 216.809L136.764 206.439L157.183 206.38L157.324 216.746Z" fill="white"/>
<path d="M180.189 216.674L159.81 216.737L159.672 206.372L180.071 206.313L180.189 216.674Z" fill="white"/>
<path d="M203.034 216.604L182.675 216.667L182.559 206.307L202.938 206.248L203.034 216.604Z" fill="white"/>
<path d="M157.575 235.354L137.21 235.425L137.051 225.09L157.435 225.023L157.575 235.354Z" fill="white"/>
<path d="M180.402 235.274L160.057 235.346L159.92 225.016L180.284 224.949L180.402 235.274Z" fill="white"/>
<path d="M203.206 235.194L182.881 235.265L182.766 224.941L203.11 224.874L203.206 235.194Z" fill="white"/>
</g>
<path d="M144.117 123.492C144.078 122.151 142.374 121.048 140.285 121.048H61.3437C59.2272 121.048 57.1484 122.209 57.1484 123.567V245.021C57.1484 245.675 57.7352 246.302 58.456 246.764C59.177 247.225 60.2451 247.484 61.2633 247.482L143.801 247.337C144.828 247.335 145.834 247.069 146.552 246.598C147.271 246.127 147.676 245.475 147.657 244.816L144.117 123.492Z" fill="url(#paint3_linear_4674_8138)"/>
<g opacity="0.5">
<path d="M85.9797 135.359L63.4909 135.34L63.3125 127.939H85.8231L85.9797 135.359Z" fill="white"/>
<path d="M111.187 135.356L88.7203 135.336L88.5664 127.939H111.055L111.187 135.356Z" fill="white"/>
<path d="M136.37 135.352L113.926 135.333L113.797 127.939H136.262L136.37 135.352Z" fill="white"/>
<path d="M86.2602 148.644L63.8105 148.653L63.6328 141.301L86.1042 141.295L86.2602 148.644Z" fill="white"/>
<path d="M111.424 148.633L88.9971 148.643L88.8438 141.294L111.293 141.288L111.424 148.633Z" fill="white"/>
<path d="M136.563 148.623L114.158 148.632L114.029 141.287L136.456 141.281L136.563 148.623Z" fill="white"/>
<path d="M86.5408 161.835L64.1302 161.85L63.9531 154.524L86.3854 154.512L86.5408 161.835Z" fill="white"/>
<path d="M111.66 161.819L89.2719 161.834L89.1191 154.511L111.529 154.499L111.66 161.819Z" fill="white"/>
<path d="M136.756 161.802L114.39 161.817L114.262 154.497L136.649 154.485L136.756 161.802Z" fill="white"/>
<path d="M86.8196 174.983L64.448 175.004L64.2715 167.702L86.6647 167.685L86.8196 174.983Z" fill="white"/>
<path d="M111.896 174.958L89.5467 174.979L89.3945 167.682L111.765 167.664L111.896 174.958Z" fill="white"/>
<path d="M136.947 174.935L114.62 174.956L114.492 167.662L136.841 167.645L136.947 174.935Z" fill="white"/>
<path d="M87.0985 188.083L64.7657 188.11L64.5898 180.834L86.9441 180.811L87.0985 188.083Z" fill="white"/>
<path d="M112.13 188.054L89.8199 188.08L89.668 180.808L112 180.784L112.13 188.054Z" fill="white"/>
<path d="M137.139 188.023L114.85 188.05L114.723 180.781L137.032 180.758L137.139 188.023Z" fill="white"/>
<path d="M87.3758 201.139L65.0816 201.172L64.9062 193.921L87.222 193.892L87.3758 201.139Z" fill="white"/>
<path d="M112.365 201.104L90.0928 201.136L89.9414 193.889L112.235 193.859L112.365 201.104Z" fill="white"/>
<path d="M137.33 201.067L115.08 201.099L114.953 193.855L137.224 193.826L137.33 201.067Z" fill="white"/>
<path d="M87.6512 214.151L65.3954 214.189L65.2207 206.963L87.4977 206.928L87.6512 214.151Z" fill="white"/>
<path d="M112.597 214.108L90.3636 214.146L90.2129 206.924L112.468 206.889L112.597 214.108Z" fill="white"/>
<path d="M137.518 214.065L115.306 214.104L115.18 206.885L137.412 206.85L137.518 214.065Z" fill="white"/>
<path d="M87.9266 227.118L65.7094 227.162L65.5352 219.961L87.7737 219.92L87.9266 227.118Z" fill="white"/>
<path d="M112.83 227.069L90.6347 227.112L90.4844 219.915L112.701 219.874L112.83 227.069Z" fill="white"/>
<path d="M137.708 227.019L115.534 227.063L115.408 219.869L137.603 219.828L137.708 227.019Z" fill="white"/>
<path d="M88.2002 240.04L66.0212 240.089L65.8477 232.913L88.0479 232.866L88.2002 240.04Z" fill="white"/>
<path d="M113.061 239.983L90.9037 240.033L90.7539 232.86L112.932 232.813L113.061 239.983Z" fill="white"/>
<path d="M137.896 239.928L115.761 239.978L115.635 232.808L137.791 232.762L137.896 239.928Z" fill="white"/>
</g>
<path d="M294.042 271.006C301.862 271.39 310.322 261.663 312.095 252.152C313.919 242.364 307.442 239.346 305.558 226.425C303.417 211.746 310.718 208.395 312.812 187.865C313.284 183.234 316.017 156.43 307.125 152.811C298.903 149.465 279.607 165.476 278.345 182.469C277.444 194.585 286.376 198.281 285.285 212.399C284.328 224.787 277.135 226.039 276.096 238.008C274.831 252.579 283.775 270.503 294.042 271.006Z" fill="url(#paint4_linear_4674_8138)"/>
<path d="M295.124 274.478C290.715 258.978 291.065 233.995 292.134 215.767C293.292 196.032 295.519 179.742 295.541 179.58L296.201 179.671C296.179 179.833 293.955 196.101 292.799 215.811C291.732 233.986 291.382 258.886 295.765 274.296L295.124 274.478Z" fill="url(#paint5_linear_4674_8138)"/>
<path d="M300.335 268.287C287.855 264.125 280.619 244.142 286.098 236.396C289.799 231.163 296.905 234.91 302.278 229.24C309.137 222.001 301.585 211.636 305.392 196.021C308.632 182.733 319.294 168.945 327.01 170.192C335.088 171.497 342.129 189.63 337.381 201.979C334.294 210.009 327.828 211.412 327.505 218.474C327.13 226.667 335.641 229.017 336.913 236.7C339.197 250.5 316.844 273.794 300.335 268.287Z" fill="url(#paint6_linear_4674_8138)"/>
<path d="M307.396 272.573C307.327 272.584 307.255 272.58 307.184 272.559C306.932 272.483 306.79 272.218 306.866 271.966C317.112 238.054 315.758 200.828 315.744 200.456C315.733 200.194 315.937 199.972 316.199 199.962C316.462 199.952 316.683 200.156 316.693 200.418C316.708 200.792 318.068 238.178 307.776 272.241C307.721 272.421 307.57 272.545 307.396 272.573Z" fill="url(#paint7_linear_4674_8138)"/>
<path d="M329.215 208C329.167 208.008 329.115 208 329.069 207.975C328.96 207.914 328.92 207.776 328.98 207.666C332.813 200.708 336.671 190.558 333.286 181.716C331.27 176.45 327.592 174.124 327.555 174.101C327.448 174.035 327.415 173.895 327.481 173.788C327.548 173.682 327.688 173.649 327.794 173.715C327.95 173.811 331.64 176.146 333.71 181.554C335.612 186.524 336.405 195.126 329.378 207.886C329.343 207.949 329.281 207.99 329.215 208Z" fill="#F0F0F0"/>
<path d="M298.857 265.705C298.785 265.716 298.71 265.693 298.656 265.637C289.52 256.008 285.659 248.056 287.18 242.004C288.533 236.623 293.829 234.816 293.883 234.798C294.002 234.76 294.13 234.824 294.17 234.943C294.209 235.062 294.144 235.19 294.025 235.23C293.974 235.247 288.907 236.982 287.619 242.121C286.142 248.012 289.966 255.819 298.985 265.324C299.072 265.416 299.068 265.559 298.977 265.646C298.943 265.678 298.901 265.698 298.857 265.705Z" fill="#F0F0F0"/>
<path d="M214.834 201.053C248.534 209.479 268.306 232.006 278.056 234.283C287.805 236.561 326.86 238.644 333.228 244.561C339.597 250.478 333.513 254.683 341.701 262.29C350.76 287.851 322.712 295.5 322.712 295.5L67.7516 293.429C67.7516 293.429 50.5464 294.975 50.1654 282.688C49.7842 270.4 49.5157 264.88 50.4194 253.814C51.3231 242.749 55.7918 241.505 58.2561 235.766C60.7203 230.028 84.6555 229.405 89.3137 223.023C93.9718 216.64 99.5176 206.462 119.281 202.991C146.578 198.198 195.286 196.165 214.834 201.053Z" fill="url(#paint8_linear_4674_8138)"/>
<path d="M48.7988 281.96C49.2372 296.084 73.1835 293.581 73.2879 293.572C73.2879 293.572 92.3257 278.999 66.1358 279.558C58.2656 279.355 50.2864 275.186 50.2864 275.186L48.7988 281.96Z" fill="url(#paint9_linear_4674_8138)"/>
<path d="M343.254 268.603C343.254 268.603 343.504 272.205 336.755 275.884C328.39 280.445 296.029 275.374 296.029 275.374V294.121L323.405 295.517C322.765 295.692 359.354 293.583 343.254 268.603Z" fill="url(#paint10_linear_4674_8138)"/>
<path d="M93.6292 241.521C93.6292 241.521 92.8078 235.107 99.5451 227.244C106.282 219.381 110.215 214.195 115.396 212.859C120.577 211.524 158.499 206.277 160.989 210.313C163.48 214.349 166.688 239.127 166.688 239.127L93.6292 241.521Z" fill="url(#paint11_linear_4674_8138)"/>
<path opacity="0.25" d="M116.086 212.182C120.334 211.549 152.589 207.799 160.917 208.869L163.072 217.159L93.5984 241.517C93.5984 241.517 93.2669 236.239 96.7375 231.035C102.568 222.291 111.644 212.74 116.086 212.182Z" fill="url(#paint12_linear_4674_8138)"/>
<path d="M172.333 210.308C173.384 215.096 177.254 238.441 177.254 238.441L259.251 238.062C259.251 238.062 233.403 214.309 213.533 210.55C193.664 206.79 171.662 207.776 172.333 210.308Z" fill="url(#paint13_linear_4674_8138)"/>
<path opacity="0.25" d="M210.73 208.788C194.544 206.541 188.61 206.968 171.645 208.453L173.278 215.239C173.278 215.239 198.529 210.287 222.057 213.15C222.057 213.15 216.014 209.521 210.73 208.788Z" fill="url(#paint14_linear_4674_8138)"/>
<path d="M331.339 243.34C331.339 243.34 318.054 239.08 314.813 249.583C311.724 259.595 341.701 262.29 341.701 262.29C341.701 262.29 339.491 247.437 331.339 243.34Z" fill="url(#paint15_linear_4674_8138)"/>
<path d="M89.092 230.174C89.1658 230.174 89.2404 230.163 89.315 230.141C92.4345 229.198 95.0621 225.912 98.1048 222.107C102.548 216.55 107.585 210.252 115.797 208.685C131.549 205.679 155.424 203.596 155.664 203.575C156.088 203.538 156.403 203.164 156.366 202.74C156.329 202.315 155.97 201.997 155.531 202.038C155.291 202.058 131.335 204.149 115.508 207.169C106.736 208.844 101.281 215.664 96.8994 221.144C94.0179 224.747 91.5289 227.859 88.8689 228.664C88.4606 228.787 88.2301 229.218 88.3537 229.625C88.4548 229.959 88.7606 230.174 89.092 230.174Z" fill="white"/>
<path d="M64.6772 238.918C64.9611 238.918 65.2347 238.76 65.3687 238.489C66.6629 235.88 72.392 234.698 77.932 233.554C79.914 233.145 81.9631 232.722 83.8471 232.229C84.2599 232.12 84.5062 231.699 84.3985 231.287C84.2901 230.874 83.869 230.632 83.4569 230.736C81.6112 231.219 79.5825 231.638 77.6201 232.043C71.4458 233.317 65.6142 234.521 63.9871 237.803C63.7972 238.185 63.9532 238.648 64.3351 238.837C64.4451 238.892 64.562 238.918 64.6772 238.918Z" fill="white"/>
<path d="M177.337 291.925C177.362 291.925 177.388 291.925 177.413 291.925C177.861 291.925 178.219 291.524 178.214 291.076C178.209 290.752 178.015 290.461 177.737 290.335C176.141 287.766 174.069 259.995 173.127 242.877C173.103 242.43 172.72 242.082 172.273 242.109C171.825 242.133 171.483 242.514 171.507 242.962C171.514 243.082 172.182 255.179 173.139 267.092C175.086 291.339 176.287 291.925 177.337 291.925Z" fill="white"/>
<path d="M149.622 293.363C149.806 292.285 149.909 290.733 149.909 289.328C149.909 272.509 136.275 258.927 119.456 258.927C102.637 258.927 89.002 272.483 89.002 289.302C89.002 290.707 89.1054 292.285 89.2895 293.363H149.622Z" fill="url(#paint16_linear_4674_8138)"/>
<path d="M119.219 313.414C132.927 313.414 144.04 302.301 144.04 288.593C144.04 274.885 132.927 263.772 119.219 263.772C105.511 263.772 94.3984 274.885 94.3984 288.593C94.3984 302.301 105.511 313.414 119.219 313.414Z" fill="url(#paint17_linear_4674_8138)"/>
<path opacity="0.61" d="M119.22 308.751C130.352 308.751 139.377 299.726 139.377 288.594C139.377 277.461 130.352 268.437 119.22 268.437C108.087 268.437 99.0625 277.461 99.0625 288.594C99.0625 299.726 108.087 308.751 119.22 308.751Z" fill="url(#paint18_linear_4674_8138)"/>
<path d="M136.15 295.899C136.104 295.899 136.056 295.89 136.01 295.871C135.828 295.794 135.742 295.583 135.82 295.4C136.731 293.245 137.194 290.955 137.194 288.593C137.194 278.951 129.349 271.106 119.706 271.106C116.715 271.106 113.763 271.874 111.17 273.327C110.997 273.425 110.778 273.363 110.681 273.19C110.584 273.017 110.645 272.798 110.819 272.701C113.519 271.187 116.592 270.388 119.706 270.388C129.745 270.388 137.912 278.555 137.912 288.593C137.912 291.051 137.431 293.436 136.481 295.68C136.423 295.817 136.29 295.899 136.15 295.899Z" fill="white"/>
<path d="M300.874 294.8C301.058 293.722 301.161 292.239 301.161 290.834C301.161 274.015 287.526 260.468 270.707 260.468C253.888 260.468 240.254 273.972 240.254 290.791C240.254 292.196 240.357 293.722 240.541 294.8H300.874Z" fill="url(#paint19_linear_4674_8138)"/>
<path d="M270.471 314.99C284.179 314.99 295.292 303.877 295.292 290.169C295.292 276.461 284.179 265.349 270.471 265.349C256.763 265.349 245.65 276.461 245.65 290.169C245.65 303.877 256.763 314.99 270.471 314.99Z" fill="url(#paint20_linear_4674_8138)"/>
<path opacity="0.61" d="M270.471 310.327C281.604 310.327 290.629 301.302 290.629 290.17C290.629 279.037 281.604 270.013 270.471 270.013C259.339 270.013 250.314 279.037 250.314 290.17C250.314 301.302 259.339 310.327 270.471 310.327Z" fill="url(#paint21_linear_4674_8138)"/>
<path d="M287.402 297.475C287.356 297.475 287.308 297.466 287.262 297.447C287.079 297.369 286.994 297.159 287.071 296.976C287.983 294.82 288.446 292.53 288.446 290.169C288.446 280.526 280.601 272.682 270.958 272.682C267.967 272.682 265.015 273.45 262.422 274.903C262.249 275.001 262.03 274.938 261.933 274.765C261.836 274.592 261.897 274.373 262.071 274.276C264.771 272.763 267.844 271.963 270.958 271.963C280.997 271.963 289.164 280.13 289.164 290.169C289.164 292.627 288.683 295.011 287.733 297.256C287.675 297.393 287.542 297.475 287.402 297.475Z" fill="white"/>
<path d="M245.818 236.333L239.594 229.808C237.001 227.09 233.737 225.234 230.192 224.462L217.882 221.785C214.504 221.05 211.27 223.604 210.901 227.301L210.814 228.169C210.437 231.934 213.194 235.209 216.704 235.166L232.563 234.971C234.774 234.944 236.784 236.355 237.658 238.547L237.95 239.28C238.337 240.253 239.225 240.884 240.207 240.884H244.106C246.312 240.884 247.4 237.991 245.818 236.333Z" fill="url(#paint22_linear_4674_8138)"/>
<path d="M181.627 243.781H202.194C203.798 243.781 204.929 245.501 204.372 247.124C203.431 249.871 201.19 253.374 195.863 253.783C191.072 254.151 185.033 251.224 180.478 248.443C178.413 247.183 179.254 243.781 181.627 243.781Z" fill="url(#paint23_linear_4674_8138)"/>
<path d="M50.3379 253.814L53.9339 254.455C55.1303 254.669 56.0016 255.709 56.0016 256.924V265.41C56.0016 266.791 54.8818 267.911 53.5005 267.911H49.918L50.3379 253.814Z" fill="url(#paint24_linear_4674_8138)"/>
<path d="M250.617 118.943C250.617 137.359 266.11 152.287 285.222 152.287C304.334 152.287 320.683 136.706 320.683 118.291C320.683 99.8759 304.334 85.5996 285.222 85.5996C266.11 85.5996 250.617 100.528 250.617 118.943Z" fill="url(#paint25_linear_4674_8138)"/>
<path d="M317.964 110.835C317.985 110.835 318.005 110.833 318.026 110.828C318.153 110.795 318.229 110.669 318.195 110.546C317.823 109.199 317.347 107.862 316.781 106.574C316.73 106.457 316.589 106.403 316.468 106.451C316.347 106.501 316.29 106.636 316.341 106.753C316.898 108.022 317.367 109.337 317.733 110.665C317.762 110.768 317.858 110.835 317.964 110.835Z" fill="white"/>
<path d="M312.677 100.415C312.727 100.415 312.777 100.4 312.82 100.369C312.926 100.293 312.947 100.148 312.867 100.047C306.456 91.8543 296.129 86.9639 285.241 86.9639C280.592 86.9639 276.095 87.8723 271.875 89.663C271.754 89.7143 271.7 89.8505 271.753 89.9665C271.806 90.083 271.947 90.1356 272.068 90.0848C276.226 88.3192 280.659 87.4243 285.241 87.4243C295.979 87.4243 306.164 92.2466 312.486 100.324C312.533 100.384 312.604 100.415 312.677 100.415Z" fill="white"/>
<path d="M255.324 118.943C255.324 134.883 268.735 147.806 285.279 147.806C301.822 147.806 315.974 134.319 315.974 118.378C315.974 102.438 301.822 90.0801 285.279 90.0801C268.735 90.0801 255.324 103.002 255.324 118.943Z" fill="url(#paint26_linear_4674_8138)"/>
<path d="M286.124 90.1055L284.799 117.676L255.142 117.701C255.124 118.114 255.109 118.527 255.109 118.944C255.109 134.884 268.52 147.807 285.064 147.807C301.607 147.807 315.759 134.32 315.759 118.379C315.759 102.781 302.206 90.6205 286.124 90.1055Z" fill="url(#paint27_linear_4674_8138)"/>
<path opacity="0.78" d="M258.496 120.241C258.57 121.466 259.661 122.401 260.932 122.33C262.204 122.259 263.175 121.208 263.101 119.983C263.027 118.758 261.936 117.822 260.664 117.893C259.393 117.965 258.422 119.016 258.496 120.241Z" fill="white"/>
<path opacity="0.78" d="M289.779 140.181C288.526 140.402 287.696 141.559 287.925 142.766C288.153 143.974 289.355 144.773 290.608 144.553C291.861 144.332 292.691 143.175 292.462 141.968C292.233 140.76 291.032 139.961 289.779 140.181Z" fill="white"/>
<path opacity="0.78" d="M280.812 92.8754C279.559 93.0959 278.729 94.2534 278.958 95.4606C279.187 96.6679 280.388 97.4678 281.641 97.2473C282.894 97.0269 283.724 95.8693 283.495 94.6621C283.266 93.4549 282.065 92.655 280.812 92.8754Z" fill="white"/>
<path opacity="0.78" d="M273.384 141.452C273.15 142.021 273.208 142.555 273.515 142.643C273.821 142.731 274.26 142.341 274.494 141.772C274.729 141.202 274.67 140.668 274.363 140.58C274.057 140.491 273.618 140.882 273.384 141.452Z" fill="white"/>
<path opacity="0.78" d="M262.918 132.922C262.411 133.291 262.173 133.777 262.388 134.006C262.602 134.234 263.187 134.12 263.694 133.751C264.202 133.381 264.439 132.896 264.225 132.667C264.01 132.438 263.425 132.552 262.918 132.922Z" fill="white"/>
<path opacity="0.78" d="M261.604 107.516C261.03 107.252 260.474 107.273 260.362 107.562C260.25 107.851 260.624 108.298 261.199 108.562C261.773 108.825 262.329 108.805 262.441 108.516C262.553 108.227 262.178 107.779 261.604 107.516Z" fill="white"/>
<path opacity="0.78" d="M306.723 129.791C306.149 129.528 305.593 129.548 305.481 129.837C305.369 130.126 305.743 130.574 306.318 130.837C306.892 131.101 307.448 131.08 307.56 130.791C307.672 130.503 307.298 130.055 306.723 129.791Z" fill="white"/>
<path opacity="0.78" d="M271.136 98.0258C270.787 97.5132 270.301 97.2525 270.049 97.4434C269.798 97.6342 269.877 98.2044 270.226 98.7169C270.574 99.2293 271.061 99.4901 271.312 99.2993C271.564 99.1083 271.485 98.5381 271.136 98.0258Z" fill="white"/>
<path opacity="0.78" d="M297.695 139.636C297.346 139.124 296.859 138.863 296.608 139.054C296.357 139.244 296.436 139.815 296.784 140.327C297.133 140.84 297.62 141.1 297.871 140.909C298.122 140.719 298.043 140.149 297.695 139.636Z" fill="white"/>
<path d="M285.626 118.733L265.079 118.205C264.681 118.195 264.404 118.603 264.573 118.95L265.581 121.017C265.777 121.418 265.38 121.868 264.942 121.741L248.066 116.866C247.55 116.717 247.593 115.99 248.125 115.871L265.316 112.038C265.727 111.946 266.066 112.335 265.908 112.718L264.853 115.297C264.722 115.615 264.935 115.959 265.282 115.988L285.714 117.706C285.999 117.73 286.206 117.972 286.18 118.251C286.154 118.527 285.909 118.74 285.626 118.733Z" fill="url(#paint28_linear_4674_8138)"/>
<path d="M249.988 116.06C249.831 116.131 249.727 116.279 249.719 116.454C249.71 116.663 249.842 116.838 250.047 116.89L253.678 117.819C253.804 117.851 253.936 117.776 253.972 117.653C254.008 117.529 253.936 117.403 253.81 117.37L250.179 116.442C254.094 115.625 263.225 113.628 263.405 113.567C263.528 113.527 263.6 113.393 263.56 113.272C263.521 113.153 263.39 113.089 263.267 113.127C263 113.201 256.004 114.736 250.085 116.029C250.051 116.036 250.019 116.047 249.988 116.06Z" fill="white"/>
<path d="M284.279 117.172L284.316 99.7183C284.31 99.3319 283.878 99.0917 283.528 99.2798L281.444 100.399C281.038 100.617 280.559 100.263 280.671 99.8292L284.981 83.1415C285.113 82.6311 285.863 82.6223 286.007 83.1298L290.672 99.5228C290.784 99.915 290.398 100.27 289.997 100.144L287.299 99.2986C286.966 99.1941 286.621 99.4246 286.606 99.7621L285.339 117.187C285.327 117.464 285.087 117.681 284.798 117.675C284.513 117.669 284.284 117.447 284.279 117.172Z" fill="url(#paint29_linear_4674_8138)"/>
<path d="M289.241 97.9223C289.271 97.9223 289.3 97.9174 289.329 97.9066C289.45 97.8607 289.51 97.7298 289.466 97.6124C289.379 97.3597 287.507 90.6865 285.927 85.04C285.871 84.8403 285.695 84.709 285.475 84.714C285.26 84.7193 285.085 84.8592 285.039 85.062L284.236 88.6439C284.208 88.768 284.29 88.8908 284.419 88.9174C284.547 88.9448 284.675 88.8656 284.703 88.741L285.506 85.1591C286.511 88.8962 288.949 97.6047 289.019 97.7761C289.056 97.867 289.146 97.9223 289.241 97.9223Z" fill="white"/>
<path d="M285.434 120.481C286.794 120.481 287.897 119.418 287.897 118.108C287.897 116.797 286.794 115.734 285.434 115.734C284.073 115.734 282.971 116.797 282.971 118.108C282.971 119.418 284.073 120.481 285.434 120.481Z" fill="url(#paint30_linear_4674_8138)"/>
<path opacity="0.78" d="M293.427 96.5814C293.192 97.1511 293.251 97.6845 293.558 97.7729C293.864 97.8613 294.303 97.471 294.537 96.9014C294.772 96.3316 294.713 95.7981 294.406 95.7097C294.1 95.6215 293.661 96.0117 293.427 96.5814Z" fill="white"/>
<path opacity="0.78" d="M304.226 104.602C303.719 104.972 303.482 105.457 303.696 105.686C303.91 105.915 304.496 105.801 305.003 105.431C305.51 105.062 305.748 104.576 305.533 104.348C305.319 104.119 304.734 104.233 304.226 104.602Z" fill="white"/>
<path d="M93.9609 344.726C93.9625 344.625 93.9556 344.523 93.9298 344.42C92.4023 338.364 84.8205 334.592 84.8205 334.592L81.8162 334.827C80.0888 340.165 80.3108 343.439 80.5881 344.897C80.5958 344.938 80.6083 344.977 80.6191 345.016C83.0975 345.238 88.1985 345.382 93.9609 344.726Z" fill="url(#paint31_linear_4674_8138)"/>
<path d="M80.6191 345.016C80.753 345.503 81.1124 345.882 81.5725 345.979C85.098 346.721 90.7012 346.124 93.0539 345.816C93.5729 345.749 93.9523 345.268 93.9609 344.727C88.1984 345.382 83.0975 345.238 80.6191 345.016Z" fill="url(#paint32_linear_4674_8138)"/>
<path d="M80.6074 330.353L81.8798 336.478C81.973 336.927 82.3179 337.263 82.7357 337.302C83.247 337.35 83.9749 337.378 84.707 337.271C85.3635 337.174 85.8205 336.507 85.7042 335.791L84.8198 330.353H80.6074Z" fill="url(#paint33_linear_4674_8138)"/>
<path d="M106.971 344.938C103.653 344.845 101.937 344.454 101.05 344.092C101.048 344.422 101.049 344.757 101.06 345.105C101.072 345.477 101.347 345.774 101.685 345.771L119.904 345.654C120.485 345.65 120.825 344.976 120.573 344.443C118.184 344.64 112.1 345.082 106.971 344.938Z" fill="url(#paint34_linear_4674_8138)"/>
<path d="M120.574 344.443C120.552 344.397 120.533 344.349 120.502 344.306C118.893 342.057 114.795 337.581 106.698 335.639L102.813 335.517C102.813 335.517 101.083 338.523 101.051 344.092C101.938 344.455 103.654 344.845 106.972 344.938C112.101 345.082 118.185 344.64 120.574 344.443Z" fill="url(#paint35_linear_4674_8138)"/>
<path d="M101.92 329.811C101.981 330.097 102.79 334.455 103.103 336.145C103.177 336.547 103.49 336.842 103.862 336.862C104.527 336.9 105.6 336.904 106.523 336.654C107.02 336.518 107.355 336.011 107.319 335.448L106.885 328.554L101.92 329.811Z" fill="url(#paint36_linear_4674_8138)"/>
<path d="M98.9758 249.333C98.9758 249.333 104.319 286.052 108.176 329.747C108.248 330.561 107.599 331.269 106.8 331.438C105.622 331.686 103.89 331.98 102.456 331.94C101.691 331.919 101.051 331.351 100.923 330.596C99.609 322.892 90.2346 281.545 87.7743 272.445C87.7743 272.445 84.9482 311.1 85.8515 331.155C85.874 331.653 85.5089 332.086 85.0131 332.143C84.2609 332.23 83.0576 332.296 81.5261 332.133C80.9449 332.072 80.476 331.632 80.3928 331.054C79.457 324.533 74.0711 285.723 74.3001 257.765C74.313 256.188 76.1498 243.234 76.1498 243.234L98.9758 249.333Z" fill="url(#paint37_linear_4674_8138)"/>
<path d="M144.779 214.227C144.779 214.227 143.283 210.29 141.536 210.65C139.789 211.011 137.877 212.353 137.877 212.353L135.07 216.149C135.07 216.149 142.95 219.254 145.721 217.475C145.721 217.475 153.77 218.865 163.934 217.198C162.463 214.091 161.586 210.981 161.071 208.567C155.923 211.481 150.378 213.658 144.779 214.227Z" fill="url(#paint38_linear_4674_8138)"/>
<path d="M187.413 185.665C187.413 185.665 175.89 200.179 161.07 208.568C161.585 210.982 162.462 214.091 163.933 217.198C171.621 215.936 180.518 212.926 188.061 206.236L187.413 185.665Z" fill="url(#paint39_linear_4674_8138)"/>
<path d="M101.045 187.584L101.76 206.798C103.792 207.498 105.727 208.041 107.569 208.448C108.722 204.738 111.259 200.184 113.337 196.799C105.703 194.1 101.045 187.584 101.045 187.584Z" fill="url(#paint40_linear_4674_8138)"/>
<path d="M139.158 187.257C128.687 198.563 120.211 199.228 113.338 196.799C111.26 200.184 108.723 204.738 107.57 208.448C135.535 214.613 142.12 188.905 142.12 188.905L139.158 187.257Z" fill="url(#paint41_linear_4674_8138)"/>
<path d="M75.3459 251.45C74.7965 251.254 74.4134 250.756 74.3537 250.176C73.6431 243.282 70.2025 200.536 91.924 182.952C91.924 182.952 93.1696 179.693 103.409 187.704C113.648 195.716 108.166 204.113 105.715 215.695C102.748 229.711 97.5435 241.167 99.8462 249.792C100.005 250.388 99.6922 251.012 99.1142 251.226C91.1604 254.157 83.2374 254.254 75.3459 251.45Z" fill="url(#paint42_linear_4674_8138)"/>
<path d="M100.397 170.145C100.39 170.753 91.7168 183.073 91.7168 183.073C91.7168 183.073 93.2737 186.139 100.706 188.628L107.122 175.437L100.397 170.145Z" fill="url(#paint43_linear_4674_8138)"/>
<path d="M96.9863 212.442C96.9863 212.442 113.442 226.224 131.212 220.21C132.314 219.837 133.52 219.918 134.548 220.461L139.657 223.16C141.801 224.292 144.457 223.549 145.701 221.467C146.411 220.28 147.016 218.924 147.137 217.625L137.141 213.578L137.878 212.352C137.878 212.352 132.997 211.939 131.72 215.437C131.72 215.437 122.424 219.304 106.746 202.06C106.746 202.06 99.6321 208.109 96.9863 212.442Z" fill="url(#paint44_linear_4674_8138)"/>
<path d="M96.0996 212.3C96.0454 212.3 95.9904 212.284 95.9423 212.252C89.0132 207.57 85.7537 200.014 85.7215 199.938C85.661 199.794 85.7278 199.629 85.8709 199.569C86.0144 199.507 86.1792 199.574 86.2403 199.718C86.2717 199.792 89.4707 207.199 96.2576 211.785C96.3866 211.872 96.4205 212.047 96.3332 212.176C96.2789 212.256 96.19 212.3 96.0996 212.3Z" fill="url(#paint45_linear_4674_8138)"/>
<path d="M106.421 201.826C106.329 201.826 106.238 201.781 106.184 201.697C106.163 201.665 104.046 198.369 100.014 191.15C98.7745 188.93 97.1451 187.524 95.1714 186.972C91.9028 186.058 88.7527 187.811 88.7217 187.828C88.5861 187.903 88.4147 187.858 88.3376 187.723C88.2609 187.587 88.3078 187.416 88.4432 187.339C88.5791 187.262 91.8191 185.449 95.318 186.428C97.4439 187.021 99.1897 188.517 100.506 190.875C104.528 198.076 106.637 201.36 106.658 201.392C106.742 201.523 106.704 201.697 106.573 201.781C106.526 201.812 106.473 201.826 106.421 201.826Z" fill="url(#paint46_linear_4674_8138)"/>
<path d="M107.226 163.084C107.226 163.084 110.312 170.174 110.519 173.895C110.727 177.616 111.528 180.03 107.226 180.78C102.923 181.529 99.2986 179.386 97.335 175.679C97.335 175.679 94.2584 169.968 94.9486 167.628C95.6387 165.289 107.226 163.084 107.226 163.084Z" fill="url(#paint47_linear_4674_8138)"/>
<path d="M98.8053 173.014L99.0503 172.907C99.362 172.769 99.4956 172.398 99.3389 172.095C98.7322 170.923 97.5493 168.237 99.0774 167.61C101.046 166.802 108.847 165.212 110.53 162.444C112.147 159.784 110.714 156.35 108.56 155.374C108.416 155.308 108.246 155.36 108.172 155.5L107.993 155.84C107.87 156.072 107.526 156.037 107.453 155.784C107.383 155.542 107.061 155.495 106.927 155.709C106.41 156.537 105.013 157.879 101.278 158.569C95.9701 159.548 92.4608 161.696 92.3734 165.364C92.3679 165.597 92.12 165.727 91.9209 165.606C91.5289 165.367 90.9018 165.255 90.0636 165.959C88.6059 167.185 89.2023 170.365 92.398 172.98C92.5499 173.105 92.5486 173.342 92.3842 173.449C91.8048 173.826 90.9413 174.723 93.179 175.919C95.4936 177.157 97.2219 177.055 97.8876 176.945C98.0531 176.918 98.1598 176.758 98.1237 176.594L97.4134 173.37C97.3732 173.187 97.512 173.015 97.6988 173.015H98.8053V173.014Z" fill="url(#paint48_linear_4674_8138)"/>
<path d="M98.9396 173.695C98.9396 173.695 97.7623 169.166 95.7318 170.436C93.7014 171.705 96.7855 175.51 98.4179 175.679L98.9396 173.695Z" fill="url(#paint49_linear_4674_8138)"/>
<path d="M134.549 220.462C134.549 220.462 138.731 224.553 139.538 223.957C139.825 223.745 140.55 222.976 141.252 222.119C141.748 221.514 141.799 220.66 141.374 220.004L140.388 218.482C139.448 217.032 137.436 216.727 136.132 217.862C135.475 218.434 134.878 219.263 134.549 220.462Z" fill="url(#paint50_linear_4674_8138)"/>
<path d="M201.786 249.995C199.532 239.29 197.279 233.093 189.733 212.803C187.358 206.418 185.202 199.958 186.244 193.225L187.415 185.664C187.415 185.664 202.079 180.702 218.334 185.455C218.334 185.455 240.512 195.089 225.448 242.671C218.658 250.267 210.712 252.432 201.786 249.995Z" fill="url(#paint51_linear_4674_8138)"/>
<path d="M189.91 176.015L193.713 185.15C193.953 185.727 194.472 186.138 195.088 186.244C197.28 186.62 202.583 187.207 206.065 184.917C206.48 184.644 206.586 184.08 206.302 183.673L199.277 173.587L189.91 176.015Z" fill="url(#paint52_linear_4674_8138)"/>
<path d="M193.843 162.038C193.684 162.188 187.104 175.11 187.104 175.11L194.562 178.71L202.618 167.39C202.618 167.39 196.517 159.521 193.843 162.038Z" fill="url(#paint53_linear_4674_8138)"/>
<path d="M199.228 168.748L195.508 174.948C195.452 175.043 195.385 175.128 195.304 175.202C194.862 175.615 193.346 176.813 192.175 175.181C191.177 173.79 190.24 172.525 189.237 172.004C188.651 171.699 187.929 171.943 187.632 172.532C187.019 173.747 185.832 176.223 185.086 178.571C184.899 179.159 185.203 179.791 185.775 180.023C187.286 180.635 190.27 181.741 192.919 182.107C193.354 182.167 193.785 181.983 194.043 181.629C195.183 180.068 198.395 175.705 199.491 174.613C200.509 173.599 202.389 173.981 203.236 174.225C203.557 174.317 203.899 174.272 204.186 174.1C205.045 173.582 206.545 172.294 205.173 170.112C204.832 169.569 205.006 168.846 205.541 168.494C206.501 167.863 207.542 166.679 206.55 164.76C205.546 162.818 203.753 162.644 202.532 162.793C201.991 162.859 201.443 162.576 201.236 162.073C201.143 161.849 200.961 161.658 200.622 161.589C199.982 161.459 199.562 160.874 199.687 160.233C199.903 159.134 199.74 157.707 197.986 156.742C194.768 154.973 191.949 157.856 191.233 160.289C190.516 162.723 194.114 164.443 196.377 164.73C198.039 164.941 198.951 166.755 199.318 167.703C199.45 168.047 199.418 168.431 199.228 168.748Z" fill="url(#paint54_linear_4674_8138)"/>
<path d="M198.094 176.89C198.094 176.89 199.525 172.703 201.356 172.857C203.188 173.01 204.629 174.835 202.359 176.886C199.536 179.438 198.094 176.89 198.094 176.89Z" fill="url(#paint55_linear_4674_8138)"/>
<path d="M200.342 344.335C203.883 344.641 210.03 345.138 214.876 345.352C217.789 345.48 219.466 345.195 220.432 344.808C220.431 344.917 220.427 345.02 220.423 345.115C220.4 345.625 219.986 346.033 219.471 346.062C210.314 346.573 203.032 346.239 200.439 346.081C199.903 346.048 199.584 345.466 199.858 345.009C199.995 344.78 200.161 344.556 200.342 344.335Z" fill="url(#paint56_linear_4674_8138)"/>
<path d="M214.876 345.352C210.031 345.139 203.883 344.641 200.342 344.335C203.824 340.063 214.876 337.184 214.876 337.184H217.998C220.145 340.278 220.456 343.225 220.432 344.808C219.466 345.195 217.789 345.48 214.876 345.352Z" fill="url(#paint57_linear_4674_8138)"/>
<path d="M218.523 332.087L218.231 337.868C218.199 338.494 217.73 339.02 217.104 339.109C216.48 339.198 215.645 339.21 214.759 338.915C214.214 338.734 213.809 338.274 213.709 337.714L212.699 332.087L218.523 332.087Z" fill="url(#paint58_linear_4674_8138)"/>
<path d="M259.068 345.308C260.603 345.093 261.298 344.296 261.59 343.442C261.592 343.45 261.594 343.458 261.596 343.465C261.821 344.365 261.298 345.298 260.25 345.741C258.984 346.277 257.6 346.369 256.526 346.324C255.373 346.277 254.315 345.8 253.733 345.036L253.725 345.025C254.882 345.597 256.506 345.665 259.068 345.308Z" fill="url(#paint59_linear_4674_8138)"/>
<path d="M251.826 332.049H254.4C258.322 331.969 260.784 340.24 261.59 343.443C261.299 344.296 260.604 345.094 259.068 345.308C256.506 345.665 254.882 345.598 253.725 345.025C251.607 342.237 250.556 338.155 250.051 335.772C249.477 333.062 251.826 332.049 251.826 332.049Z" fill="url(#paint60_linear_4674_8138)"/>
<path d="M254.07 326.685L255.499 332.37C255.675 333.067 255.341 333.788 254.696 334.119C253.897 334.529 252.771 334.96 251.736 334.836C251.249 334.777 250.845 334.434 250.685 333.976L248.586 327.994L254.07 326.685Z" fill="url(#paint61_linear_4674_8138)"/>
<path d="M255.776 328.328C253.998 329.906 248.213 330.114 248.213 330.114C227.375 280.102 218.688 266.334 218.688 266.334C221.697 285.211 219.336 333.665 219.336 333.665C215.898 335.182 211.465 333.665 211.465 333.665C211.185 302.761 206.834 269.553 201.223 248.305C215.306 247.989 222.96 244.919 225.406 242.984C237.146 261.911 255.776 328.328 255.776 328.328Z" fill="url(#paint62_linear_4674_8138)"/>
<path d="M138.27 185.052C138.27 185.052 137.355 183.396 137.453 182.063C137.551 180.731 136.721 178.774 137.605 178.919C138.488 179.064 138.671 178.945 138.91 180.544C139.15 182.143 141.307 188.041 138.27 185.052Z" fill="url(#paint63_linear_4674_8138)"/>
<path d="M144.947 175.161C144.937 174.911 144.816 174.678 144.618 174.526C144.419 174.374 144.163 174.318 143.919 174.374L137.824 175.76C137.588 175.814 137.429 176.037 137.456 176.278L139.228 192.118C139.236 192.187 139.27 192.249 139.324 192.292C139.378 192.334 139.447 192.354 139.515 192.345L144.835 191.701C145.271 191.648 145.593 191.269 145.575 190.831L144.947 175.161Z" fill="url(#paint64_linear_4674_8138)"/>
<path d="M143.232 176.075C143.224 175.933 143.154 175.802 143.039 175.718C142.925 175.634 142.778 175.605 142.641 175.639L138.631 176.642C138.399 176.7 138.246 176.92 138.273 177.158L139.794 190.647C139.802 190.718 139.839 190.782 139.896 190.825C139.953 190.867 140.025 190.884 140.095 190.872L143.793 190.214C143.921 190.191 144.012 190.076 144.005 189.946L143.232 176.075Z" fill="url(#paint65_linear_4674_8138)"/>
<path d="M140.929 175.712C140.939 175.759 140.873 175.813 140.782 175.832L139.441 176.11C139.35 176.129 139.269 176.106 139.259 176.058L139.249 176.011C139.239 175.964 139.305 175.91 139.396 175.891L140.737 175.613C140.827 175.594 140.909 175.618 140.919 175.665L140.929 175.712Z" fill="url(#paint66_linear_4674_8138)"/>
<path d="M147.064 179.186C146.079 178.823 144.152 175.489 143.783 176.586C143.414 177.683 143.939 179.186 143.783 179.652C143.627 180.119 142.561 182.711 143.041 183.903C143.387 184.763 143.958 187.411 144.249 188.818C144.346 189.285 144.757 189.62 145.234 189.62C145.711 189.621 146.123 189.286 146.22 188.819C146.259 188.632 148.048 179.549 147.064 179.186Z" fill="url(#paint67_linear_4674_8138)"/>
<path d="M211.543 235.421C211.07 235.52 210.692 235.813 210.509 236.221L207.979 241.866C207.644 242.614 208.047 243.539 208.89 243.953L221.716 250.264C222.157 250.481 222.657 250.524 223.093 250.383C223.529 250.242 223.859 249.93 224.001 249.525L225.491 245.281C225.723 244.622 225.417 243.854 224.75 243.417L212.964 235.705C212.536 235.425 212.017 235.321 211.543 235.421Z" fill="url(#paint68_linear_4674_8138)"/>
<path d="M233.335 223.9C236.077 203.185 220.113 187.257 220.113 187.257L210.615 198.33C217.826 207.318 221.254 215.554 222.82 222.023C224.896 221.418 229.896 220.463 233.335 223.9Z" fill="url(#paint69_linear_4674_8138)"/>
<path d="M222.82 222.611C222.555 222.611 222.314 222.431 222.248 222.161C220.318 214.187 216.25 206.292 210.157 198.698C209.954 198.444 209.994 198.074 210.247 197.87C210.5 197.668 210.871 197.708 211.074 197.961C217.276 205.692 221.421 213.741 223.392 221.884C223.468 222.2 223.274 222.518 222.959 222.594C222.912 222.606 222.866 222.611 222.82 222.611Z" fill="url(#paint70_linear_4674_8138)"/>
<path d="M222.96 222.595C224.415 228.607 224.124 233.29 223.903 235.432C223.819 236.24 223.17 236.87 222.36 236.927C221.441 236.991 220.189 237.076 219.07 237.14C217.84 237.211 216.475 236.434 215.562 235.784C215.097 235.452 214.494 235.969 214.754 236.478C215.435 237.811 217.164 238.997 218.356 239.695C218.789 239.949 218.708 240.597 218.225 240.734L214.954 241.661C214.584 241.766 214.306 242.072 214.237 242.45C214.168 242.829 214.32 243.213 214.629 243.442C222.156 249.023 227.031 241.241 227.031 241.241C230.727 235.529 232.638 229.175 233.337 223.9C229.846 219.691 225.037 221.99 222.96 222.595Z" fill="url(#paint71_linear_4674_8138)"/>
<path d="M138.897 161.067C140.061 160.093 144.477 152.687 151.543 161.065C152.308 161.464 154.284 160.347 154.033 159.564C145.764 147.503 135.465 158.822 136.475 160.063C137.485 161.304 137.543 162.2 138.897 161.067Z" fill="white"/>
<path d="M159.021 156.045C160.563 155.864 162.013 154.812 161.579 153.463C161.152 152.134 146.434 134.939 130.04 154.322C129.839 154.56 129.741 154.868 129.768 155.179C129.795 155.489 129.945 155.776 130.184 155.975C130.931 156.597 131.567 157.014 132.391 156.913C147.393 139.902 157.478 156.226 159.021 156.045Z" fill="white"/>
<path d="M166.683 150.907C167.778 151.127 170.018 150.303 169.439 148.504C143.532 120.315 120.459 149.86 121.306 151.052C122.152 152.243 123.868 152.288 124.559 151.886C145.186 125.427 165.587 150.688 166.683 150.907Z" fill="white"/>
<path d="M148.542 165.372C148.542 167.268 147.005 168.804 145.11 168.804C143.214 168.804 141.678 167.268 141.678 165.372C141.678 163.477 143.214 161.94 145.11 161.94C147.005 161.94 148.542 163.477 148.542 165.372Z" fill="white"/>
<path d="M81.0093 108.136C88.699 108.136 94.9327 101.902 94.9327 94.2125C94.9327 86.5228 88.699 80.2891 81.0093 80.2891C73.3197 80.2891 67.0859 86.5228 67.0859 94.2125C67.0859 101.902 73.3197 108.136 81.0093 108.136Z" fill="url(#paint72_linear_4674_8138)"/>
<path d="M81.0093 107.673C88.4433 107.673 94.4698 101.646 94.4698 94.2124C94.4698 86.7784 88.4433 80.752 81.0093 80.752C73.5753 80.752 67.5488 86.7784 67.5488 94.2124C67.5488 101.646 73.5753 107.673 81.0093 107.673Z" fill="url(#paint73_linear_4674_8138)"/>
<path d="M69.9091 89.1442C69.83 89.1442 69.7497 89.1264 69.674 89.088C69.4162 88.958 69.3128 88.6436 69.443 88.3857C71.6599 83.9933 76.0915 81.2646 81.0088 81.2646C81.7942 81.2646 82.5797 81.3353 83.3441 81.4745C83.6282 81.5263 83.8166 81.7984 83.7647 82.0825C83.7132 82.3666 83.4418 82.5543 83.1567 82.5032C82.4541 82.375 81.7314 82.3103 81.0088 82.3103C76.4885 82.3103 72.4145 84.8189 70.3763 88.857C70.2844 89.0393 70.1003 89.1442 69.9091 89.1442Z" fill="white"/>
<path opacity="0.78" d="M89.3566 102.562C93.8057 98.1125 93.8057 90.8992 89.3566 86.4501C84.9076 82.0011 77.6942 82.0011 73.2452 86.4501C68.7961 90.8992 68.7961 98.1125 73.2452 102.562C77.6942 107.011 84.9076 107.011 89.3566 102.562Z" fill="white"/>
<path d="M80.185 102.976V101.736C78.8929 101.685 77.6148 101.379 76.7072 100.982C76.3831 100.84 76.2178 100.476 76.3109 100.135L76.6258 98.9805C76.7413 98.557 77.2019 98.338 77.6068 98.5077C78.5073 98.8852 79.619 99.1838 80.8179 99.1838C82.0624 99.1838 82.9905 98.7619 82.9905 97.8969C82.9905 97.1166 82.2733 96.6526 80.5436 96.1886C78.0757 95.5136 76.3038 94.4378 76.3038 92.2652C76.3038 90.3034 77.7382 88.8058 80.2273 88.4051V87.1656C80.2273 86.7668 80.5506 86.4434 80.9494 86.4434H81.6776C82.0764 86.4434 82.3998 86.7667 82.3998 87.1656V88.2785C83.5954 88.3263 84.4657 88.5308 85.1565 88.7735C85.5103 88.8978 85.7037 89.2791 85.6055 89.641L85.3159 90.7087C85.2043 91.1205 84.7642 91.346 84.3652 91.1951C83.7293 90.9547 82.8302 90.7043 81.6615 90.7043C80.1849 90.7043 79.7632 91.316 79.7632 91.8644C79.7632 92.5393 80.649 93.0034 82.5686 93.5941C85.3107 94.4167 86.4498 95.5557 86.4498 97.6018C86.4498 99.4792 85.0576 101.167 82.3577 101.588V102.976C82.3577 103.375 82.0343 103.698 81.6355 103.698H80.9072C80.5083 103.698 80.185 103.374 80.185 102.976Z" fill="url(#paint74_linear_4674_8138)"/>
<path d="M124.273 101.329C137.66 101.329 148.512 90.4773 148.512 77.0908C148.512 63.7044 137.66 52.8525 124.273 52.8525C110.887 52.8525 100.035 63.7044 100.035 77.0908C100.035 90.4773 110.887 101.329 124.273 101.329Z" fill="url(#paint75_linear_4674_8138)"/>
<path d="M124.274 100.523C137.215 100.523 147.706 90.0318 147.706 77.0905C147.706 64.1492 137.215 53.6582 124.274 53.6582C111.333 53.6582 100.842 64.1492 100.842 77.0905C100.842 90.0318 111.333 100.523 124.274 100.523Z" fill="url(#paint76_linear_4674_8138)"/>
<path d="M104.952 67.8791C104.873 67.8791 104.793 67.8612 104.717 67.823C104.459 67.693 104.356 67.3785 104.486 67.1206C108.279 59.6052 115.862 54.9365 124.275 54.9365C125.616 54.9365 126.961 55.0575 128.271 55.2959C128.555 55.3477 128.743 55.6199 128.691 55.904C128.64 56.1879 128.368 56.3747 128.083 56.3247C126.835 56.0972 125.554 55.982 124.275 55.982C116.259 55.982 109.034 60.4306 105.419 67.5918C105.327 67.7741 105.143 67.8791 104.952 67.8791Z" fill="white"/>
<path opacity="0.78" d="M138.807 91.6252C146.552 83.8801 146.552 71.323 138.807 63.578C131.062 55.8329 118.505 55.8329 110.76 63.578C103.015 71.323 103.015 83.8801 110.76 91.6252C118.505 99.3702 131.062 99.3702 138.807 91.6252Z" fill="white"/>
<path d="M122.838 92.3442V90.1865C120.588 90.0965 118.364 89.5656 116.783 88.8739C116.219 88.6269 115.932 87.9937 116.094 87.3994L116.642 85.3896C116.843 84.6524 117.645 84.271 118.35 84.5664C119.917 85.2235 121.852 85.7434 123.939 85.7434C126.106 85.7434 127.722 85.0089 127.722 83.5034C127.722 82.1449 126.473 81.3371 123.462 80.5293C119.166 79.3543 116.081 77.4815 116.081 73.6993C116.081 70.2842 118.578 67.6771 122.911 66.9796V64.8217C122.911 64.1274 123.474 63.5645 124.168 63.5645H125.436C126.131 63.5645 126.693 64.1273 126.693 64.8217V66.7591C128.775 66.8424 130.29 67.1984 131.492 67.6208C132.108 67.8372 132.445 68.5009 132.274 69.1311L131.77 70.9898C131.575 71.7066 130.809 72.0992 130.115 71.8365C129.008 71.4178 127.443 70.9819 125.408 70.9819C122.838 70.9819 122.104 72.0467 122.104 73.0015C122.104 74.1765 123.646 74.9843 126.987 76.0126C131.761 77.4446 133.744 79.4275 133.744 82.9894C133.744 86.2575 131.32 89.195 126.62 89.9296V92.3443C126.62 93.0387 126.057 93.6015 125.363 93.6015H124.095C123.401 93.6014 122.838 93.0386 122.838 92.3442Z" fill="url(#paint77_linear_4674_8138)"/>
<path d="M109.4 146.14C120.322 146.14 129.177 137.285 129.177 126.363C129.177 115.44 120.322 106.586 109.4 106.586C98.4774 106.586 89.623 115.44 89.623 126.363C89.623 137.285 98.4774 146.14 109.4 146.14Z" fill="url(#paint78_linear_4674_8138)"/>
<path d="M109.4 145.482C119.96 145.482 128.52 136.922 128.52 126.362C128.52 115.803 119.96 107.243 109.4 107.243C98.8412 107.243 90.2812 115.803 90.2812 126.362C90.2812 136.922 98.8412 145.482 109.4 145.482Z" fill="url(#paint79_linear_4674_8138)"/>
<path d="M93.6331 118.835C93.5703 118.835 93.5066 118.821 93.4466 118.79C93.2421 118.687 93.1601 118.438 93.2634 118.233C96.3567 112.106 102.539 108.299 109.399 108.299C110.494 108.299 111.59 108.397 112.657 108.592C112.883 108.633 113.032 108.849 112.991 109.074C112.95 109.299 112.735 109.448 112.509 109.408C111.49 109.222 110.444 109.128 109.399 109.128C102.854 109.128 96.9551 112.76 94.0035 118.607C93.9306 118.752 93.7847 118.835 93.6331 118.835Z" fill="white"/>
<path opacity="0.78" d="M121.257 138.222C127.576 131.902 127.576 121.656 121.257 115.337C114.937 109.017 104.691 109.017 98.372 115.337C92.0526 121.656 92.0526 131.902 98.372 138.222C104.691 144.541 114.937 144.541 121.257 138.222Z" fill="white"/>
<path d="M108.229 138.81V137.049C106.393 136.976 104.578 136.543 103.289 135.978C102.829 135.777 102.594 135.26 102.726 134.775L103.173 133.135C103.337 132.534 103.992 132.222 104.567 132.463C105.846 133 107.425 133.424 109.128 133.424C110.895 133.424 112.214 132.824 112.214 131.596C112.214 130.488 111.195 129.828 108.738 129.169C105.233 128.211 102.716 126.683 102.716 123.596C102.716 120.81 104.753 118.683 108.289 118.114V116.353C108.289 115.786 108.748 115.327 109.314 115.327H110.349C110.915 115.327 111.375 115.786 111.375 116.353V117.934C113.073 118.002 114.309 118.292 115.29 118.637C115.793 118.814 116.067 119.355 115.928 119.869L115.517 121.386C115.358 121.97 114.733 122.291 114.166 122.077C113.263 121.735 111.986 121.379 110.326 121.379C108.229 121.379 107.63 122.248 107.63 123.027C107.63 123.986 108.888 124.645 111.614 125.484C115.509 126.652 117.127 128.27 117.127 131.177C117.127 133.843 115.15 136.24 111.315 136.839V138.81C111.315 139.376 110.855 139.835 110.289 139.835H109.254C108.688 139.835 108.229 139.376 108.229 138.81Z" fill="url(#paint80_linear_4674_8138)"/>
</g>
<defs>
<linearGradient id="paint0_linear_4674_8138" x1="384.805" y1="435.644" x2="118.868" y2="105.368" gradientUnits="userSpaceOnUse">
<stop stop-color="#B37CFF"/>
<stop offset="1" stop-color="#F895E7"/>
</linearGradient>
<linearGradient id="paint1_linear_4674_8138" x1="183.018" y1="182.455" x2="289.439" y2="182.455" gradientUnits="userSpaceOnUse">
<stop stop-color="#A737D5"/>
<stop offset="1" stop-color="#EF497A"/>
</linearGradient>
<linearGradient id="paint2_linear_4674_8138" x1="129.063" y1="155.034" x2="212.168" y2="155.034" gradientUnits="userSpaceOnUse">
<stop stop-color="#A737D5"/>
<stop offset="1" stop-color="#EF497A"/>
</linearGradient>
<linearGradient id="paint3_linear_4674_8138" x1="57.1485" y1="184.265" x2="147.657" y2="184.265" gradientUnits="userSpaceOnUse">
<stop stop-color="#B37CFF"/>
<stop offset="1" stop-color="#F895E7"/>
</linearGradient>
<linearGradient id="paint4_linear_4674_8138" x1="319.596" y1="208.7" x2="271.833" y2="215.838" gradientUnits="userSpaceOnUse">
<stop stop-color="#CB236D"/>
<stop offset="0.9001" stop-color="#59246D"/>
<stop offset="1" stop-color="#4C246D"/>
</linearGradient>
<linearGradient id="paint5_linear_4674_8138" x1="297.541" y1="179.69" x2="292.337" y2="274.325" gradientUnits="userSpaceOnUse">
<stop stop-color="#2B3582"/>
<stop offset="1" stop-color="#150E42"/>
</linearGradient>
<linearGradient id="paint6_linear_4674_8138" x1="336.783" y1="171.52" x2="271.338" y2="346.04" gradientUnits="userSpaceOnUse">
<stop stop-color="#A737D5"/>
<stop offset="1" stop-color="#EF497A"/>
</linearGradient>
<linearGradient id="paint7_linear_4674_8138" x1="313.674" y1="199.847" x2="310.398" y2="272.718" gradientUnits="userSpaceOnUse">
<stop stop-color="#2B3582"/>
<stop offset="1" stop-color="#150E42"/>
</linearGradient>
<linearGradient id="paint8_linear_4674_8138" x1="195.089" y1="208.909" x2="198.682" y2="351.194" gradientUnits="userSpaceOnUse">
<stop stop-color="#53D8FF"/>
<stop offset="1" stop-color="#3840F7"/>
</linearGradient>
<linearGradient id="paint9_linear_4674_8138" x1="82.5222" y1="32.0457" x2="58.1851" y2="369.115" gradientUnits="userSpaceOnUse">
<stop stop-color="#53D8FF"/>
<stop offset="1" stop-color="#3840F7"/>
</linearGradient>
<linearGradient id="paint10_linear_4674_8138" x1="317.261" y1="169.329" x2="322.111" y2="298.134" gradientUnits="userSpaceOnUse">
<stop stop-color="#53D8FF"/>
<stop offset="1" stop-color="#3840F7"/>
</linearGradient>
<linearGradient id="paint11_linear_4674_8138" x1="164.02" y1="151.781" x2="114.629" y2="278.246" gradientUnits="userSpaceOnUse">
<stop stop-color="#2B3582"/>
<stop offset="1" stop-color="#150E42"/>
</linearGradient>
<linearGradient id="paint12_linear_4674_8138" x1="262.55" y1="-223.195" x2="209.45" y2="-44.7129" gradientUnits="userSpaceOnUse">
<stop stop-color="#5AB6FF"/>
<stop offset="1" stop-color="#2F68E3"/>
</linearGradient>
<linearGradient id="paint13_linear_4674_8138" x1="233.446" y1="178.849" x2="184.057" y2="305.36" gradientUnits="userSpaceOnUse">
<stop stop-color="#2B3582"/>
<stop offset="1" stop-color="#150E42"/>
</linearGradient>
<linearGradient id="paint14_linear_4674_8138" x1="320.813" y1="-205.86" x2="267.713" y2="-27.3791" gradientUnits="userSpaceOnUse">
<stop stop-color="#5AB6FF"/>
<stop offset="1" stop-color="#2F68E3"/>
</linearGradient>
<linearGradient id="paint15_linear_4674_8138" x1="328.554" y1="254.152" x2="299.451" y2="417.987" gradientUnits="userSpaceOnUse">
<stop stop-color="#53D8FF"/>
<stop offset="1" stop-color="#3840F7"/>
</linearGradient>
<linearGradient id="paint16_linear_4674_8138" x1="119.256" y1="202.379" x2="119.532" y2="322.609" gradientUnits="userSpaceOnUse">
<stop stop-color="#53D8FF"/>
<stop offset="1" stop-color="#3840F7"/>
</linearGradient>
<linearGradient id="paint17_linear_4674_8138" x1="94.3985" y1="288.593" x2="144.04" y2="288.593" gradientUnits="userSpaceOnUse">
<stop stop-color="#2B3582"/>
<stop offset="1" stop-color="#150E42"/>
</linearGradient>
<linearGradient id="paint18_linear_4674_8138" x1="119.22" y1="121.576" x2="119.22" y2="296.217" gradientUnits="userSpaceOnUse">
<stop stop-color="#53D8FF"/>
<stop offset="1" stop-color="#3840F7"/>
</linearGradient>
<linearGradient id="paint19_linear_4674_8138" x1="286.435" y1="189.4" x2="268.47" y2="305.096" gradientUnits="userSpaceOnUse">
<stop stop-color="#53D8FF"/>
<stop offset="1" stop-color="#3840F7"/>
</linearGradient>
<linearGradient id="paint20_linear_4674_8138" x1="245.65" y1="290.169" x2="295.292" y2="290.169" gradientUnits="userSpaceOnUse">
<stop stop-color="#2B3582"/>
<stop offset="1" stop-color="#150E42"/>
</linearGradient>
<linearGradient id="paint21_linear_4674_8138" x1="265.812" y1="152.138" x2="271.561" y2="322.448" gradientUnits="userSpaceOnUse">
<stop stop-color="#53D8FF"/>
<stop offset="1" stop-color="#3840F7"/>
</linearGradient>
<linearGradient id="paint22_linear_4674_8138" x1="228.129" y1="236.729" x2="239.446" y2="163.973" gradientUnits="userSpaceOnUse">
<stop stop-color="#53D8FF"/>
<stop offset="1" stop-color="#3840F7"/>
</linearGradient>
<linearGradient id="paint23_linear_4674_8138" x1="195.467" y1="223.425" x2="206.785" y2="150.669" gradientUnits="userSpaceOnUse">
<stop stop-color="#53D8FF"/>
<stop offset="1" stop-color="#3840F7"/>
</linearGradient>
<linearGradient id="paint24_linear_4674_8138" x1="85.4076" y1="184.508" x2="30.0744" y2="313.858" gradientUnits="userSpaceOnUse">
<stop stop-color="#53D8FF"/>
<stop offset="1" stop-color="#3840F7"/>
</linearGradient>
<linearGradient id="paint25_linear_4674_8138" x1="261.812" y1="91.7748" x2="350.791" y2="193.197" gradientUnits="userSpaceOnUse">
<stop stop-color="#2B3582"/>
<stop offset="1" stop-color="#150E42"/>
</linearGradient>
<linearGradient id="paint26_linear_4674_8138" x1="284.166" y1="117.144" x2="321.453" y2="162.17" gradientUnits="userSpaceOnUse">
<stop stop-color="#FDF53F"/>
<stop offset="1" stop-color="#D93C65"/>
</linearGradient>
<linearGradient id="paint27_linear_4674_8138" x1="296.728" y1="50.914" x2="274.116" y2="187.717" gradientUnits="userSpaceOnUse">
<stop stop-color="#FDF53F"/>
<stop offset="1" stop-color="#D93C65"/>
</linearGradient>
<linearGradient id="paint28_linear_4674_8138" x1="263.415" y1="131.861" x2="250.594" y2="184.813" gradientUnits="userSpaceOnUse">
<stop stop-color="#CB236D"/>
<stop offset="1" stop-color="#4C246D"/>
</linearGradient>
<linearGradient id="paint29_linear_4674_8138" x1="286.291" y1="96.7835" x2="300.83" y2="25.6177" gradientUnits="userSpaceOnUse">
<stop stop-color="#CB236D"/>
<stop offset="1" stop-color="#4C246D"/>
</linearGradient>
<linearGradient id="paint30_linear_4674_8138" x1="284.028" y1="126.592" x2="290.915" y2="85.0187" gradientUnits="userSpaceOnUse">
<stop stop-color="#CB236D"/>
<stop offset="1" stop-color="#4C246D"/>
</linearGradient>
<linearGradient id="paint31_linear_4674_8138" x1="80.3985" y1="339.897" x2="93.9611" y2="339.897" gradientUnits="userSpaceOnUse">
<stop stop-color="#2B3582"/>
<stop offset="1" stop-color="#150E42"/>
</linearGradient>
<linearGradient id="paint32_linear_4674_8138" x1="114.352" y1="323.897" x2="65.0101" y2="362.64" gradientUnits="userSpaceOnUse">
<stop stop-color="#53D8FF"/>
<stop offset="1" stop-color="#3840F7"/>
</linearGradient>
<linearGradient id="paint33_linear_4674_8138" x1="84.1694" y1="324.457" x2="81.5787" y2="347.067" gradientUnits="userSpaceOnUse">
<stop stop-color="#F9B776"/>
<stop offset="1" stop-color="#F47960"/>
</linearGradient>
<linearGradient id="paint34_linear_4674_8138" x1="123.116" y1="335.043" x2="73.7743" y2="373.786" gradientUnits="userSpaceOnUse">
<stop stop-color="#53D8FF"/>
<stop offset="1" stop-color="#3840F7"/>
</linearGradient>
<linearGradient id="paint35_linear_4674_8138" x1="101.051" y1="340.242" x2="120.574" y2="340.242" gradientUnits="userSpaceOnUse">
<stop stop-color="#2B3582"/>
<stop offset="1" stop-color="#150E42"/>
</linearGradient>
<linearGradient id="paint36_linear_4674_8138" x1="104.92" y1="326.845" x2="103.757" y2="349.573" gradientUnits="userSpaceOnUse">
<stop stop-color="#F9B776"/>
<stop offset="1" stop-color="#F47960"/>
</linearGradient>
<linearGradient id="paint37_linear_4674_8138" x1="116.747" y1="236.484" x2="100.219" y2="270.259" gradientUnits="userSpaceOnUse">
<stop stop-color="#2B3582"/>
<stop offset="1" stop-color="#150E42"/>
</linearGradient>
<linearGradient id="paint38_linear_4674_8138" x1="135.07" y1="213.296" x2="163.934" y2="213.296" gradientUnits="userSpaceOnUse">
<stop stop-color="#F9B776"/>
<stop offset="1" stop-color="#F47960"/>
</linearGradient>
<linearGradient id="paint39_linear_4674_8138" x1="167.616" y1="222.131" x2="230.854" y2="88.1101" gradientUnits="userSpaceOnUse">
<stop stop-color="#FDF53F"/>
<stop offset="1" stop-color="#D93C65"/>
</linearGradient>
<linearGradient id="paint40_linear_4674_8138" x1="114.657" y1="187.455" x2="99.5374" y2="202.883" gradientUnits="userSpaceOnUse">
<stop stop-color="#CE1567"/>
<stop offset="1" stop-color="#7A1DBC"/>
</linearGradient>
<linearGradient id="paint41_linear_4674_8138" x1="152.983" y1="185.642" x2="107.701" y2="208.168" gradientUnits="userSpaceOnUse">
<stop stop-color="#F9B776"/>
<stop offset="1" stop-color="#F47960"/>
</linearGradient>
<linearGradient id="paint42_linear_4674_8138" x1="117.68" y1="175.591" x2="55.2569" y2="286.044" gradientUnits="userSpaceOnUse">
<stop stop-color="#CE1567"/>
<stop offset="1" stop-color="#7A1DBC"/>
</linearGradient>
<linearGradient id="paint43_linear_4674_8138" x1="94.5042" y1="192.677" x2="100.521" y2="176.246" gradientUnits="userSpaceOnUse">
<stop stop-color="#F9B776"/>
<stop offset="1" stop-color="#F47960"/>
</linearGradient>
<linearGradient id="paint44_linear_4674_8138" x1="124.321" y1="211.783" x2="79.5876" y2="289.512" gradientUnits="userSpaceOnUse">
<stop stop-color="#F9B776"/>
<stop offset="1" stop-color="#F47960"/>
</linearGradient>
<linearGradient id="paint45_linear_4674_8138" x1="714.816" y1="1183.17" x2="684.657" y2="1135.93" gradientUnits="userSpaceOnUse">
<stop stop-color="#CE1567"/>
<stop offset="1" stop-color="#7A1DBC"/>
</linearGradient>
<linearGradient id="paint46_linear_4674_8138" x1="724.881" y1="1176.74" x2="694.722" y2="1129.5" gradientUnits="userSpaceOnUse">
<stop stop-color="#CE1567"/>
<stop offset="1" stop-color="#7A1DBC"/>
</linearGradient>
<linearGradient id="paint47_linear_4674_8138" x1="109.293" y1="168.029" x2="73.4426" y2="196.582" gradientUnits="userSpaceOnUse">
<stop stop-color="#F9B776"/>
<stop offset="1" stop-color="#F47960"/>
</linearGradient>
<linearGradient id="paint48_linear_4674_8138" x1="95.4528" y1="158.636" x2="111.885" y2="179.792" gradientUnits="userSpaceOnUse">
<stop stop-color="#2B3582"/>
<stop offset="1" stop-color="#150E42"/>
</linearGradient>
<linearGradient id="paint49_linear_4674_8138" x1="105.685" y1="166.465" x2="88.042" y2="179.964" gradientUnits="userSpaceOnUse">
<stop stop-color="#F9B776"/>
<stop offset="1" stop-color="#F47960"/>
</linearGradient>
<linearGradient id="paint50_linear_4674_8138" x1="134.549" y1="220.594" x2="141.662" y2="220.594" gradientUnits="userSpaceOnUse">
<stop stop-color="#F9B776"/>
<stop offset="1" stop-color="#F47960"/>
</linearGradient>
<linearGradient id="paint51_linear_4674_8138" x1="205.429" y1="203.054" x2="260.043" y2="321.624" gradientUnits="userSpaceOnUse">
<stop stop-color="#FDF53F"/>
<stop offset="1" stop-color="#D93C65"/>
</linearGradient>
<linearGradient id="paint52_linear_4674_8138" x1="196.752" y1="189.661" x2="202.86" y2="149.06" gradientUnits="userSpaceOnUse">
<stop stop-color="#F9B776"/>
<stop offset="1" stop-color="#F47960"/>
</linearGradient>
<linearGradient id="paint53_linear_4674_8138" x1="196.011" y1="164.481" x2="191.389" y2="191.678" gradientUnits="userSpaceOnUse">
<stop stop-color="#F9B776"/>
<stop offset="1" stop-color="#F47960"/>
</linearGradient>
<linearGradient id="paint54_linear_4674_8138" x1="200.87" y1="177.354" x2="187.25" y2="162.885" gradientUnits="userSpaceOnUse">
<stop stop-color="#2B3582"/>
<stop offset="1" stop-color="#150E42"/>
</linearGradient>
<linearGradient id="paint55_linear_4674_8138" x1="200.021" y1="194.167" x2="200.843" y2="175.068" gradientUnits="userSpaceOnUse">
<stop stop-color="#F9B776"/>
<stop offset="1" stop-color="#F47960"/>
</linearGradient>
<linearGradient id="paint56_linear_4674_8138" x1="220.432" y1="345.335" x2="199.758" y2="345.335" gradientUnits="userSpaceOnUse">
<stop stop-color="#CE1567"/>
<stop offset="1" stop-color="#7A1DBC"/>
</linearGradient>
<linearGradient id="paint57_linear_4674_8138" x1="274.786" y1="758.033" x2="269.756" y2="725.695" gradientUnits="userSpaceOnUse">
<stop stop-color="#53D8FF"/>
<stop offset="1" stop-color="#3840F7"/>
</linearGradient>
<linearGradient id="paint58_linear_4674_8138" x1="218.523" y1="335.626" x2="212.699" y2="335.626" gradientUnits="userSpaceOnUse">
<stop stop-color="#F9B776"/>
<stop offset="1" stop-color="#F47960"/>
</linearGradient>
<linearGradient id="paint59_linear_4674_8138" x1="261.647" y1="344.888" x2="253.725" y2="344.888" gradientUnits="userSpaceOnUse">
<stop stop-color="#CE1567"/>
<stop offset="1" stop-color="#7A1DBC"/>
</linearGradient>
<linearGradient id="paint60_linear_4674_8138" x1="319.816" y1="751.027" x2="314.786" y2="718.689" gradientUnits="userSpaceOnUse">
<stop stop-color="#53D8FF"/>
<stop offset="1" stop-color="#3840F7"/>
</linearGradient>
<linearGradient id="paint61_linear_4674_8138" x1="255.546" y1="330.771" x2="248.586" y2="330.771" gradientUnits="userSpaceOnUse">
<stop stop-color="#F9B776"/>
<stop offset="1" stop-color="#F47960"/>
</linearGradient>
<linearGradient id="paint62_linear_4674_8138" x1="253.091" y1="336.237" x2="146.891" y2="189.412" gradientUnits="userSpaceOnUse">
<stop stop-color="#CE1567"/>
<stop offset="1" stop-color="#7A1DBC"/>
</linearGradient>
<linearGradient id="paint63_linear_4674_8138" x1="140.297" y1="179.885" x2="133.777" y2="189.083" gradientUnits="userSpaceOnUse">
<stop stop-color="#F9B776"/>
<stop offset="1" stop-color="#F47960"/>
</linearGradient>
<linearGradient id="paint64_linear_4674_8138" x1="147.768" y1="174.78" x2="124.934" y2="206.996" gradientUnits="userSpaceOnUse">
<stop stop-color="#2B3582"/>
<stop offset="1" stop-color="#150E42"/>
</linearGradient>
<linearGradient id="paint65_linear_4674_8138" x1="146.195" y1="176.361" x2="127.801" y2="202.314" gradientUnits="userSpaceOnUse">
<stop stop-color="#FDF53F"/>
<stop offset="1" stop-color="#D93C65"/>
</linearGradient>
<linearGradient id="paint66_linear_4674_8138" x1="140.43" y1="175.48" x2="140.183" y2="177.092" gradientUnits="userSpaceOnUse">
<stop stop-color="#8D55D1"/>
<stop offset="0.9964" stop-color="#1C2873"/>
</linearGradient>
<linearGradient id="paint67_linear_4674_8138" x1="148.285" y1="178.123" x2="134.791" y2="197.162" gradientUnits="userSpaceOnUse">
<stop stop-color="#F9B776"/>
<stop offset="1" stop-color="#F47960"/>
</linearGradient>
<linearGradient id="paint68_linear_4674_8138" x1="216.724" y1="234.003" x2="216.69" y2="267.899" gradientUnits="userSpaceOnUse">
<stop stop-color="#2B3582"/>
<stop offset="1" stop-color="#150E42"/>
</linearGradient>
<linearGradient id="paint69_linear_4674_8138" x1="218.738" y1="196.923" x2="273.353" y2="315.494" gradientUnits="userSpaceOnUse">
<stop stop-color="#FDF53F"/>
<stop offset="1" stop-color="#D93C65"/>
</linearGradient>
<linearGradient id="paint70_linear_4674_8138" x1="242.058" y1="126.915" x2="200.092" y2="264.804" gradientUnits="userSpaceOnUse">
<stop stop-color="#FDF53F"/>
<stop offset="1" stop-color="#D93C65"/>
</linearGradient>
<linearGradient id="paint71_linear_4674_8138" x1="228.087" y1="224.961" x2="212.528" y2="254.882" gradientUnits="userSpaceOnUse">
<stop stop-color="#F9B776"/>
<stop offset="1" stop-color="#F47960"/>
</linearGradient>
<linearGradient id="paint72_linear_4674_8138" x1="61.9564" y1="116.327" x2="80.6321" y2="94.6503" gradientUnits="userSpaceOnUse">
<stop stop-color="#FDF53F"/>
<stop offset="1" stop-color="#D93C65"/>
</linearGradient>
<linearGradient id="paint73_linear_4674_8138" x1="91.185" y1="78.8398" x2="35.9605" y2="162.268" gradientUnits="userSpaceOnUse">
<stop stop-color="#FDF53F"/>
<stop offset="1" stop-color="#D93C65"/>
</linearGradient>
<linearGradient id="paint74_linear_4674_8138" x1="89.538" y1="81.2308" x2="60.1322" y2="130.598" gradientUnits="userSpaceOnUse">
<stop stop-color="#FDF53F"/>
<stop offset="1" stop-color="#D93C65"/>
</linearGradient>
<linearGradient id="paint75_linear_4674_8138" x1="91.1057" y1="115.589" x2="123.617" y2="77.853" gradientUnits="userSpaceOnUse">
<stop stop-color="#FDF53F"/>
<stop offset="1" stop-color="#D93C65"/>
</linearGradient>
<linearGradient id="paint76_linear_4674_8138" x1="141.988" y1="50.3294" x2="45.8521" y2="195.564" gradientUnits="userSpaceOnUse">
<stop stop-color="#FDF53F"/>
<stop offset="1" stop-color="#D93C65"/>
</linearGradient>
<linearGradient id="paint77_linear_4674_8138" x1="139.12" y1="54.4902" x2="87.9293" y2="140.431" gradientUnits="userSpaceOnUse">
<stop stop-color="#FDF53F"/>
<stop offset="1" stop-color="#D93C65"/>
</linearGradient>
<linearGradient id="paint78_linear_4674_8138" x1="82.337" y1="157.775" x2="108.864" y2="126.985" gradientUnits="userSpaceOnUse">
<stop stop-color="#FDF53F"/>
<stop offset="1" stop-color="#D93C65"/>
</linearGradient>
<linearGradient id="paint79_linear_4674_8138" x1="123.854" y1="104.527" x2="45.4131" y2="223.029" gradientUnits="userSpaceOnUse">
<stop stop-color="#FDF53F"/>
<stop offset="1" stop-color="#D93C65"/>
</linearGradient>
<linearGradient id="paint80_linear_4674_8138" x1="121.514" y1="107.923" x2="79.7456" y2="178.045" gradientUnits="userSpaceOnUse">
<stop stop-color="#FDF53F"/>
<stop offset="1" stop-color="#D93C65"/>
</linearGradient>
<clipPath id="clip0_4674_8138">
<rect width="396" height="396" fill="white"/>
</clipPath>
</defs>
</svg>
