<svg width="396" height="396" viewBox="0 0 396 396" fill="none" xmlns="http://www.w3.org/2000/svg">
<g clip-path="url(#clip0_4674_7755)">
<path d="M313.686 252.923C313.686 252.923 376.18 155.558 347.381 93.2924C318.583 31.027 249.847 30.6714 226.085 56.6941C211.561 72.5998 215.794 99.1667 181.411 109.444C160.378 115.731 145.066 105.651 113.711 94.7188C82.3559 83.7868 45.9524 107.552 41.4792 145.499C36.4587 188.092 75.2271 210.357 96.5089 225.689C117.791 241.02 107.012 266.45 115.835 290.264C124.658 314.077 266.961 339.357 313.686 252.923Z" fill="#D5FAF6"/>
<path d="M344.606 145.5C344.606 145.5 349.36 90.4675 313.686 63.111C283.004 39.5831 252.334 50.9911 242.681 61.3282C233.028 71.6662 243.59 84.1426 270.255 82.3606C296.919 80.5786 337.358 98.9966 344.606 145.5Z" fill="white"/>
<path d="M174.702 355.608C193.472 355.608 208.688 352.319 208.688 348.262C208.688 344.204 193.472 340.915 174.702 340.915C155.933 340.915 140.717 344.204 140.717 348.262C140.717 352.319 155.933 355.608 174.702 355.608Z" fill="#D2EDFF"/>
<path d="M295.275 348.262C314.044 348.262 329.26 344.972 329.26 340.915C329.26 336.858 314.044 333.568 295.275 333.568C276.505 333.568 261.289 336.858 261.289 340.915C261.289 344.972 276.505 348.262 295.275 348.262Z" fill="#D2EDFF"/>
<path d="M241.204 340.915C289.91 340.915 329.394 337.626 329.394 333.568C329.394 329.511 289.91 326.222 241.204 326.222C192.498 326.222 153.014 329.511 153.014 333.568C153.014 337.626 192.498 340.915 241.204 340.915Z" fill="#D2EDFF"/>
<path d="M134.143 335.914C182.849 335.914 222.333 332.625 222.333 328.567C222.333 324.51 182.849 321.221 134.143 321.221C85.4371 321.221 45.9531 324.51 45.9531 328.567C45.9531 332.625 85.4371 335.914 134.143 335.914Z" fill="#D2EDFF"/>
<path d="M113.408 240.24C144.343 240.24 169.421 215.162 169.421 184.226C169.421 153.291 144.343 128.213 113.408 128.213C82.4726 128.213 57.3945 153.291 57.3945 184.226C57.3945 215.162 82.4726 240.24 113.408 240.24Z" fill="#ACDAFF"/>
<path d="M113.408 232.743C140.203 232.743 161.925 211.021 161.925 184.226C161.925 157.431 140.203 135.709 113.408 135.709C86.6125 135.709 64.8906 157.431 64.8906 184.226C64.8906 211.021 86.6125 232.743 113.408 232.743Z" fill="#E6FFFF"/>
<path opacity="0.57" d="M130.762 186.115C137.529 175.89 138.247 157.462 134.846 147.647C128.648 144.006 121.445 141.885 113.741 141.824C90.3229 141.64 71.189 160.474 71.0052 183.893C70.9522 190.665 72.4974 197.074 75.2765 202.775C75.606 202.822 75.9552 202.792 76.2633 202.92C91.7509 209.377 118.04 205.341 130.762 186.115Z" fill="#FFFAFF"/>
<path d="M113.663 151.523C114.479 151.529 115.151 150.867 115.157 150.051L115.229 140.97C115.235 140.154 114.573 139.482 113.757 139.476C112.941 139.469 112.269 140.131 112.263 140.947L112.191 150.028C112.186 150.844 112.847 151.516 113.663 151.523Z" fill="#ACDAFF"/>
<path d="M113.056 228.976C113.871 228.982 114.544 228.32 114.55 227.504L114.621 218.423C114.628 217.607 113.966 216.935 113.15 216.929C112.334 216.922 111.662 217.585 111.655 218.4L111.584 227.481C111.578 228.297 112.24 228.97 113.056 228.976Z" fill="#ACDAFF"/>
<path d="M146.111 184.482C146.105 185.298 146.767 185.97 147.583 185.977L156.664 186.048C157.48 186.054 158.152 185.392 158.158 184.577C158.165 183.761 157.503 183.088 156.687 183.082L147.606 183.011C146.79 183.005 146.118 183.667 146.111 184.482Z" fill="#ACDAFF"/>
<path d="M68.6582 183.874C68.6519 184.69 69.314 185.362 70.1298 185.368L79.2109 185.44C80.0266 185.446 80.699 184.784 80.7054 183.968C80.7117 183.152 80.0496 182.48 79.2338 182.474L70.1527 182.402C69.337 182.396 68.6646 183.058 68.6582 183.874Z" fill="#ACDAFF"/>
<path d="M133.582 151.392C134.401 151.392 135.065 150.728 135.065 149.909C135.065 149.091 134.401 148.427 133.582 148.427C132.763 148.427 132.1 149.091 132.1 149.909C132.1 150.728 132.763 151.392 133.582 151.392Z" fill="#ACDAFF"/>
<path d="M93.2346 220.025C94.0534 220.025 94.7172 219.361 94.7172 218.542C94.7172 217.723 94.0534 217.06 93.2346 217.06C92.4157 217.06 91.752 217.723 91.752 218.542C91.752 219.361 92.4157 220.025 93.2346 220.025Z" fill="#ACDAFF"/>
<path d="M148.037 166.077C148.856 166.077 149.52 165.413 149.52 164.594C149.52 163.775 148.856 163.111 148.037 163.111C147.218 163.111 146.555 163.775 146.555 164.594C146.555 165.413 147.218 166.077 148.037 166.077Z" fill="#ACDAFF"/>
<path d="M78.7795 205.341C79.5983 205.341 80.2621 204.677 80.2621 203.859C80.2621 203.04 79.5983 202.376 78.7795 202.376C77.9607 202.376 77.2969 203.04 77.2969 203.859C77.2969 204.677 77.9607 205.341 78.7795 205.341Z" fill="#ACDAFF"/>
<path d="M147.725 205.881C148.544 205.881 149.207 205.217 149.207 204.399C149.207 203.58 148.544 202.916 147.725 202.916C146.906 202.916 146.242 203.58 146.242 204.399C146.242 205.217 146.906 205.881 147.725 205.881Z" fill="#ACDAFF"/>
<path d="M79.092 165.535C79.9108 165.535 80.5746 164.871 80.5746 164.052C80.5746 163.233 79.9108 162.569 79.092 162.569C78.2732 162.569 77.6094 163.233 77.6094 164.052C77.6094 164.871 78.2732 165.535 79.092 165.535Z" fill="#ACDAFF"/>
<path d="M133.039 220.337C133.858 220.337 134.522 219.674 134.522 218.855C134.522 218.036 133.858 217.372 133.039 217.372C132.22 217.372 131.557 218.036 131.557 218.855C131.557 219.674 132.22 220.337 133.039 220.337Z" fill="#ACDAFF"/>
<path d="M93.7756 151.08C94.5944 151.08 95.2582 150.417 95.2582 149.598C95.2582 148.779 94.5944 148.115 93.7756 148.115C92.9568 148.115 92.293 148.779 92.293 149.598C92.293 150.417 92.9568 151.08 93.7756 151.08Z" fill="#ACDAFF"/>
<path d="M128.461 173.076C132.896 171.345 153.594 162.442 153.594 162.442L153.67 162.584L153.82 162.865L153.896 163.006C153.896 163.006 135.059 175.368 131.171 178.114C127.283 180.861 113.496 185.157 113.496 185.157L113.245 184.69L113.095 184.409L112.844 183.942C112.844 183.942 124.027 174.806 128.461 173.076Z" fill="#FFBC00"/>
<path d="M99.3344 187.236C95.9399 186.71 79.8298 184.988 79.8298 184.988L79.8274 184.827L79.8227 184.509L79.8203 184.348C79.8203 184.348 95.8718 182.144 99.2489 181.516C102.626 180.888 112.824 183.483 112.824 183.483L112.832 184.014L112.836 184.332L112.844 184.863C112.844 184.863 102.729 187.762 99.3344 187.236Z" fill="#FFBC00"/>
<path d="M113.407 187.193C115.046 187.193 116.373 185.865 116.373 184.227C116.373 182.589 115.046 181.261 113.407 181.261C111.769 181.261 110.441 182.589 110.441 184.227C110.441 185.865 111.769 187.193 113.407 187.193Z" fill="#ACDAFF"/>
<path d="M83.9639 244.798L70.7708 323.827C70.6187 324.737 71.3204 325.565 72.2431 325.565C72.9456 325.565 73.5531 325.076 73.702 324.389L90.9755 244.798H83.9639Z" fill="#ACDAFF"/>
<path d="M96.7181 240.052L87.4224 319.633C87.3155 320.55 88.0568 321.343 88.9787 321.297C89.6804 321.262 90.2633 320.744 90.3781 320.051L103.722 239.707L96.7181 240.052Z" fill="#ACDAFF"/>
<path d="M151.26 244.798L164.453 323.827C164.605 324.737 163.903 325.565 162.98 325.565C162.278 325.565 161.67 325.076 161.522 324.389L144.248 244.798H151.26Z" fill="#ACDAFF"/>
<path d="M138.505 240.052L147.801 319.633C147.908 320.55 147.167 321.343 146.245 321.297C145.543 321.262 144.96 320.744 144.846 320.051L131.502 239.707L138.505 240.052Z" fill="#ACDAFF"/>
<path d="M162.425 246.638H74.13C72.1231 246.638 70.4805 244.995 70.4805 242.988C70.4805 240.981 72.1231 239.339 74.13 239.339H162.425C164.431 239.339 166.074 240.981 166.074 242.988C166.074 244.996 164.431 246.638 162.425 246.638Z" fill="#2099FF"/>
<path d="M75.2181 307.615L74.9932 307.535C75.0201 307.461 77.629 299.975 76.1265 291.115C74.7413 282.945 69.4729 271.898 52.2422 265.665L52.323 265.44C59.9777 268.209 65.9462 272.149 70.0614 277.15C73.3561 281.154 75.4763 285.842 76.3633 291.084C77.8729 300.003 75.2442 307.54 75.2181 307.615Z" fill="#6CB7D8"/>
<path d="M54.6624 266.473C54.6624 266.473 50.1314 267.157 47.7958 265.072C45.4594 262.987 49.4399 261.981 54.6624 266.473Z" fill="#6CB7D8"/>
<path d="M59.3568 268.7C59.3568 268.7 57.9384 262.706 55.7366 261.526C53.5341 260.346 53.2244 264.617 59.3568 268.7Z" fill="#6CB7D8"/>
<path d="M58.6375 268.289C58.6375 268.289 52.5399 267.42 50.6368 269.039C48.7344 270.657 52.597 272.505 58.6375 268.289Z" fill="#6CB7D8"/>
<path d="M62.3856 270.585C62.3856 270.585 56.288 269.717 54.3848 271.335C52.4824 272.954 56.345 274.803 62.3856 270.585Z" fill="#6CB7D8"/>
<path d="M66.1571 273.249C66.1571 273.249 60.0595 272.381 58.1563 273.999C56.2539 275.618 60.1165 277.466 66.1571 273.249Z" fill="#6CB7D8"/>
<path d="M69.8077 276.931C69.8077 276.931 63.7988 275.577 61.7729 277.038C59.7461 278.499 63.4487 280.651 69.8077 276.931Z" fill="#6CB7D8"/>
<path d="M73.1488 281.819C73.1488 281.819 67.5636 279.222 65.274 280.221C62.9843 281.22 66.1467 284.107 73.1488 281.819Z" fill="#6CB7D8"/>
<path d="M75.5792 287.807C75.5792 287.807 71.1187 283.559 68.6294 283.772C66.1402 283.986 68.2121 287.733 75.5792 287.807Z" fill="#6CB7D8"/>
<path d="M76.6386 294.807C76.6386 294.807 73.8532 289.314 71.4352 288.683C69.0172 288.054 69.7189 292.278 76.6386 294.807Z" fill="#6CB7D8"/>
<path d="M76.3679 301.683C76.3679 301.683 74.9201 295.696 72.7128 294.527C70.5055 293.358 70.2156 297.629 76.3679 301.683Z" fill="#6CB7D8"/>
<path d="M63.5542 271.308C63.5542 271.308 64.153 266.04 62.1262 263.222C60.0987 260.404 59.4152 263.636 60.1945 265.453C60.9731 267.271 63.5542 271.308 63.5542 271.308Z" fill="#6CB7D8"/>
<path d="M66.6293 273.748C66.6293 273.748 68.0541 268.642 66.4979 265.538C64.9416 262.435 63.756 265.518 64.2375 267.435C64.719 269.353 66.6293 273.748 66.6293 273.748Z" fill="#6CB7D8"/>
<path d="M69.4912 276.624C69.4912 276.624 72.0605 271.987 71.2661 268.608C70.4717 265.228 68.6034 267.952 68.6272 269.929C68.6509 271.906 69.4912 276.624 69.4912 276.624Z" fill="#6CB7D8"/>
<path d="M72.2803 280.325C72.2803 280.325 74.8496 275.688 74.0552 272.309C73.2608 268.929 71.3925 271.653 71.4162 273.631C71.4408 275.607 72.2803 280.325 72.2803 280.325Z" fill="#6CB7D8"/>
<path d="M74.711 285.387C74.711 285.387 77.8569 281.12 77.5044 277.666C77.152 274.213 74.9486 276.673 74.7174 278.636C74.4869 280.601 74.711 285.387 74.711 285.387Z" fill="#6CB7D8"/>
<path d="M76.3496 292.111C76.3496 292.111 80.2486 288.518 80.5575 285.06C80.8672 281.602 78.2362 283.6 77.6374 285.484C77.0379 287.368 76.3496 292.111 76.3496 292.111Z" fill="#6CB7D8"/>
<path d="M76.625 298.218C76.625 298.218 81.1655 295.482 82.1642 292.157C83.1622 288.833 80.1842 290.26 79.218 291.985C78.2518 293.711 76.625 298.218 76.625 298.218Z" fill="#6CB7D8"/>
<path d="M104.468 295.83L104.693 295.75C104.666 295.676 102.057 288.189 103.56 279.33C104.945 271.16 110.213 260.113 127.444 253.88L127.363 253.655C119.709 256.424 113.74 260.364 109.625 265.365C106.33 269.369 104.21 274.056 103.323 279.299C101.813 288.218 104.441 295.755 104.468 295.83Z" fill="#6CB7D8"/>
<path d="M125.025 254.688C125.025 254.688 129.556 255.373 131.892 253.287C134.228 251.203 130.248 250.196 125.025 254.688Z" fill="#6CB7D8"/>
<path d="M120.33 256.914C120.33 256.914 121.749 250.92 123.95 249.74C126.153 248.561 126.463 252.831 120.33 256.914Z" fill="#6CB7D8"/>
<path d="M121.049 256.503C121.049 256.503 127.146 255.635 129.05 257.253C130.952 258.872 127.089 260.721 121.049 256.503Z" fill="#6CB7D8"/>
<path d="M117.301 258.8C117.301 258.8 123.398 257.931 125.302 259.55C127.205 261.169 123.341 263.018 117.301 258.8Z" fill="#6CB7D8"/>
<path d="M113.529 261.464C113.529 261.464 119.627 260.595 121.53 262.214C123.433 263.833 119.57 265.681 113.529 261.464Z" fill="#6CB7D8"/>
<path d="M109.879 265.146C109.879 265.146 115.888 263.791 117.914 265.253C119.94 266.715 116.238 268.866 109.879 265.146Z" fill="#6CB7D8"/>
<path d="M106.539 270.035C106.539 270.035 112.124 267.438 114.414 268.437C116.704 269.435 113.541 272.322 106.539 270.035Z" fill="#6CB7D8"/>
<path d="M104.109 276.022C104.109 276.022 108.57 271.773 111.059 271.987C113.548 272.201 111.477 275.948 104.109 276.022Z" fill="#6CB7D8"/>
<path d="M103.049 283.023C103.049 283.023 105.834 277.53 108.252 276.899C110.67 276.269 109.969 280.493 103.049 283.023Z" fill="#6CB7D8"/>
<path d="M103.318 289.897C103.318 289.897 104.766 283.91 106.973 282.741C109.181 281.572 109.471 285.844 103.318 289.897Z" fill="#6CB7D8"/>
<path d="M116.131 259.523C116.131 259.523 115.533 254.255 117.559 251.437C119.587 248.619 120.27 251.851 119.491 253.668C118.713 255.486 116.131 259.523 116.131 259.523Z" fill="#6CB7D8"/>
<path d="M113.057 261.963C113.057 261.963 111.632 256.856 113.188 253.753C114.745 250.65 115.93 253.733 115.449 255.651C114.967 257.568 113.057 261.963 113.057 261.963Z" fill="#6CB7D8"/>
<path d="M110.195 264.839C110.195 264.839 107.626 260.202 108.42 256.822C109.214 253.443 111.083 256.167 111.059 258.144C111.035 260.121 110.195 264.839 110.195 264.839Z" fill="#6CB7D8"/>
<path d="M107.406 268.54C107.406 268.54 104.837 263.903 105.631 260.524C106.425 257.144 108.294 259.868 108.27 261.845C108.245 263.822 107.406 268.54 107.406 268.54Z" fill="#6CB7D8"/>
<path d="M104.977 273.603C104.977 273.603 101.831 269.336 102.184 265.882C102.536 262.429 104.74 264.889 104.971 266.852C105.201 268.816 104.977 273.603 104.977 273.603Z" fill="#6CB7D8"/>
<path d="M103.337 280.325C103.337 280.325 99.4376 276.733 99.1288 273.275C98.8191 269.817 101.45 271.815 102.049 273.699C102.648 275.584 103.337 280.325 103.337 280.325Z" fill="#6CB7D8"/>
<path d="M103.062 286.433C103.062 286.433 98.521 283.697 97.5223 280.372C96.5236 277.047 99.5023 278.475 100.469 280.2C101.435 281.926 103.062 286.433 103.062 286.433Z" fill="#6CB7D8"/>
<path d="M78.2208 285.569C78.2208 285.569 72.9263 269.898 77.6917 265.397C82.4572 260.896 76.5433 254.509 77.9436 250.348C79.3446 246.187 84.4744 243.715 86.7118 251.348C88.9492 258.981 89.5828 259.217 95.2052 259.569C100.828 259.921 100.395 271.241 99.4013 276.45C98.4073 281.659 103.929 273.431 105.599 279.021C107.27 284.612 99.1787 296.14 90.6687 302.149C82.1586 308.158 71.7502 291.069 72.4645 286.795C73.1797 282.521 76.3034 288.242 78.2208 285.569Z" fill="#82C4E8"/>
<path d="M78.9692 263.71C78.6738 264.294 78.2604 264.86 77.691 265.398C72.9255 269.899 78.22 285.571 78.22 285.571C76.3026 288.244 73.1789 282.522 72.4645 286.796C71.7502 291.07 82.1578 308.159 90.6687 302.15C91.1256 301.828 91.581 301.486 92.0341 301.134C91.0464 287.765 86.532 274.95 78.9692 263.71Z" fill="#6CB7D8"/>
<path d="M87.774 303.635C87.6884 303.729 87.5578 303.778 87.4239 303.752C87.2196 303.713 87.0857 303.515 87.1245 303.311C87.1649 303.098 91.0893 281.659 81.1742 250.58C81.1109 250.382 81.2202 250.169 81.419 250.107C81.6178 250.043 81.83 250.153 81.8926 250.352C91.871 281.627 87.9062 303.239 87.8651 303.454C87.8508 303.523 87.8183 303.586 87.774 303.635Z" fill="#98CFF4"/>
<path d="M84.1497 259.798L79.1347 255.758C78.9723 255.627 78.947 255.39 79.0777 255.228C79.2084 255.068 79.446 255.04 79.6075 255.171L83.9461 258.667L86.2326 254.835C86.3403 254.654 86.5708 254.597 86.7498 254.704C86.9288 254.811 86.9874 255.042 86.8805 255.221L84.1497 259.798Z" fill="#98CFF4"/>
<path d="M96.4124 262.87C96.4045 262.879 96.3965 262.888 96.3878 262.896L86.6312 271.822L78.8799 266.555C78.708 266.438 78.6629 266.203 78.7801 266.031C78.8965 265.858 79.1317 265.814 79.3036 265.931L86.5615 270.862L95.8786 262.339C96.0322 262.199 96.2706 262.209 96.4116 262.363C96.5439 262.508 96.5423 262.728 96.4124 262.87Z" fill="#98CFF4"/>
<path d="M98.5262 275.314C98.5222 275.318 98.5182 275.323 98.5143 275.327L88.1755 285.752L77.9666 277.614C77.8035 277.484 77.7765 277.247 77.9064 277.084C78.045 276.919 78.2731 276.895 78.4363 277.024L88.1153 284.741L97.9781 274.796C98.1246 274.648 98.3638 274.647 98.5111 274.794C98.656 274.936 98.6608 275.166 98.5262 275.314Z" fill="#98CFF4"/>
<path d="M102.973 282.662C102.97 282.666 102.966 282.67 102.962 282.674L88.2004 297.672L75.5458 288.823C75.3755 288.703 75.3335 288.468 75.4523 288.298C75.5735 288.128 75.8072 288.085 75.9774 288.204L88.1101 296.688L102.425 282.144C102.571 281.996 102.81 281.993 102.958 282.14C103.103 282.283 103.108 282.514 102.973 282.662Z" fill="#98CFF4"/>
<path d="M75.836 305.715C75.836 305.715 64.2681 299.926 64.4368 294.803C64.6055 289.679 57.8046 289.388 56.2918 286.306C54.7791 283.224 56.2673 279.027 61.7123 282.035C67.1565 285.043 67.6388 284.824 70.9549 281.925C74.271 279.025 80.2633 285.55 82.5791 288.99C84.8949 292.431 83.4321 284.821 87.4372 287.006C91.4424 289.191 93.2964 300.049 91.8772 308.071C90.4587 316.093 75.2705 312.333 73.3143 309.566C71.3581 306.798 76.2431 308.255 75.836 305.715Z" fill="#98CFF4"/>
<path d="M64.2168 293.162C64.3752 293.649 64.4568 294.191 64.4362 294.803C64.2675 299.927 75.8354 305.715 75.8354 305.715C76.2417 308.255 71.3575 306.797 73.3137 309.564C75.2699 312.332 90.4581 316.092 91.8766 308.07C91.9526 307.639 92.0176 307.199 92.0754 306.754C84.1673 299.873 74.6055 295.241 64.2168 293.162Z" fill="#82C4E8"/>
<path d="M91.0883 310.489C91.0922 310.588 91.0471 310.687 90.9584 310.747C90.823 310.838 90.64 310.802 90.5497 310.667C90.4547 310.527 80.8319 296.459 58.2155 284.658C58.0714 284.582 58.0144 284.404 58.0904 284.26C58.1656 284.116 58.3438 284.06 58.488 284.135C81.2477 296.011 90.9441 310.197 91.0392 310.338C91.0693 310.383 91.0859 310.436 91.0883 310.489Z" fill="#ACDAFF"/>
<path d="M64.9413 288.138L59.9319 288.654C59.7703 288.671 59.6254 288.554 59.6087 288.391C59.5937 288.231 59.7101 288.085 59.8717 288.068L64.2063 287.622L63.3668 284.235C63.3272 284.075 63.4238 283.917 63.5822 283.878C63.7406 283.839 63.9006 283.935 63.9394 284.093L64.9413 288.138Z" fill="#ACDAFF"/>
<path d="M73.4431 283.093C73.4439 283.103 73.4439 283.111 73.4431 283.121L72.9378 293.449L65.7338 294.792C65.5738 294.822 65.4194 294.716 65.3901 294.556C65.3592 294.395 65.4661 294.241 65.6261 294.212L72.3716 292.955L72.8539 283.092C72.8618 282.93 73.0004 282.804 73.1628 282.812C73.3164 282.82 73.4368 282.943 73.4431 283.093Z" fill="#ACDAFF"/>
<path d="M81.468 288.841C81.468 288.845 81.468 288.85 81.468 288.854L81.4656 300.336L71.3162 301.437C71.1538 301.454 71.0089 301.337 70.9914 301.176C70.9772 301.008 71.0912 300.868 71.2528 300.851L80.8764 299.808L80.8788 288.855C80.8788 288.692 81.011 288.561 81.1734 288.561C81.3318 288.56 81.4609 288.685 81.468 288.841Z" fill="#ACDAFF"/>
<path d="M87.9845 290.473C87.9845 290.477 87.9845 290.481 87.9845 290.485L88.0431 306.942L76.1433 308.994C75.9826 309.022 75.8305 308.914 75.8028 308.753C75.7766 308.593 75.8828 308.44 76.0435 308.413L87.4523 306.446L87.3953 290.488C87.3945 290.324 87.526 290.192 87.6891 290.191C87.8483 290.191 87.9782 290.316 87.9845 290.473Z" fill="#ACDAFF"/>
<path d="M101.842 304.084C101.842 304.084 117.089 297.67 117.305 291.119C117.52 284.567 126.223 284.767 128.412 280.961C130.601 277.156 129.055 271.675 121.855 275.055C114.655 278.436 114.057 278.116 110.07 274.137C106.082 270.158 97.8872 277.98 94.644 282.175C91.4007 286.371 93.9066 276.783 88.6121 279.235C83.3176 281.688 80.0395 295.385 81.176 305.741C82.3117 316.096 102.008 312.574 104.737 309.208C107.464 305.84 101.109 307.29 101.842 304.084Z" fill="#ACDAFF"/>
<path d="M117.721 289.043C117.479 289.651 117.329 290.336 117.303 291.119C117.088 297.67 101.84 304.084 101.84 304.084C101.108 307.291 107.463 305.84 104.735 309.207C102.007 312.574 82.3103 316.095 81.1738 305.74C81.1128 305.184 81.0669 304.617 81.0312 304.043C91.7003 295.929 104.291 290.822 117.721 289.043Z" fill="#98CFF4"/>
<path d="M81.9809 308.894C81.9666 309.019 82.0173 309.15 82.125 309.233C82.2898 309.361 82.5266 309.33 82.6541 309.165C82.7863 308.994 96.2488 291.853 126.1 278.695C126.291 278.611 126.378 278.389 126.293 278.198C126.209 278.007 125.987 277.921 125.796 278.005C95.7561 291.245 82.1908 308.531 82.0577 308.704C82.0126 308.761 81.988 308.827 81.9809 308.894Z" fill="#D2EDFF"/>
<path d="M117.223 282.571L123.571 283.652C123.776 283.686 123.971 283.549 124.006 283.343C124.039 283.139 123.902 282.943 123.697 282.908L118.204 281.973L119.56 277.722C119.624 277.521 119.514 277.311 119.315 277.247C119.116 277.184 118.904 277.293 118.841 277.492L117.223 282.571Z" fill="#D2EDFF"/>
<path d="M106.797 275.42C106.795 275.432 106.794 275.444 106.794 275.456L106.57 288.677L115.651 290.996C115.853 291.048 116.058 290.926 116.109 290.724C116.162 290.522 116.039 290.317 115.837 290.265L107.335 288.094L107.548 275.468C107.552 275.26 107.386 275.088 107.178 275.085C106.981 275.082 106.818 275.229 106.797 275.42Z" fill="#D2EDFF"/>
<path d="M96.0752 282.08C96.0744 282.086 96.0736 282.091 96.0736 282.097L95.1113 296.747L107.97 299.004C108.175 299.04 108.371 298.903 108.407 298.699C108.438 298.485 108.305 298.298 108.101 298.262L95.9089 296.121L96.826 282.146C96.8395 281.938 96.6827 281.758 96.4744 281.745C96.2732 281.732 96.0974 281.88 96.0752 282.08Z" fill="#D2EDFF"/>
<path d="M87.6237 283.615C87.6229 283.62 87.6229 283.625 87.6221 283.63L86.1641 304.625L101.176 308.244C101.378 308.292 101.582 308.168 101.631 307.966C101.678 307.763 101.555 307.56 101.353 307.511L86.9608 304.041L88.3745 283.682C88.3888 283.475 88.2328 283.294 88.0245 283.28C87.8217 283.267 87.6459 283.416 87.6237 283.615Z" fill="#D2EDFF"/>
<path d="M146.29 284.575C146.29 284.575 150.699 271.527 146.731 267.779C142.763 264.031 147.687 258.713 146.521 255.249C145.354 251.785 141.083 249.726 139.22 256.082C137.357 262.437 136.829 262.634 132.148 262.926C127.467 263.219 127.827 272.645 128.655 276.982C129.483 281.319 124.885 274.468 123.494 279.123C122.103 283.777 128.84 293.376 135.926 298.38C143.012 303.382 151.678 289.154 151.083 285.595C150.487 282.037 147.886 286.8 146.29 284.575Z" fill="#82C4E8"/>
<path d="M145.666 266.374C145.912 266.861 146.256 267.332 146.731 267.78C150.699 271.528 146.29 284.576 146.29 284.576C147.887 286.801 150.487 282.037 151.083 285.596C151.678 289.154 143.012 303.383 135.926 298.38C135.546 298.112 135.167 297.828 134.789 297.534C135.61 286.403 139.369 275.732 145.666 266.374Z" fill="#6CB7D8"/>
<path d="M138.337 299.617C138.408 299.696 138.516 299.736 138.628 299.715C138.798 299.682 138.91 299.518 138.878 299.347C138.843 299.17 135.576 281.319 143.832 255.443C143.885 255.277 143.794 255.101 143.629 255.048C143.463 254.995 143.287 255.086 143.234 255.252C134.926 281.293 138.227 299.287 138.261 299.465C138.272 299.524 138.299 299.575 138.337 299.617Z" fill="#98CFF4"/>
<path d="M141.355 263.118L145.53 259.754C145.665 259.645 145.686 259.447 145.577 259.313C145.469 259.181 145.271 259.157 145.136 259.265L141.524 262.176L139.619 258.985C139.529 258.834 139.337 258.787 139.188 258.876C139.04 258.964 138.99 259.158 139.08 259.306L141.355 263.118Z" fill="#98CFF4"/>
<path d="M131.144 265.676C131.15 265.683 131.157 265.69 131.164 265.697L139.288 273.128L145.742 268.743C145.885 268.645 145.923 268.45 145.825 268.306C145.729 268.161 145.532 268.126 145.389 268.223L139.345 272.329L131.587 265.233C131.459 265.115 131.261 265.125 131.144 265.252C131.035 265.374 131.036 265.557 131.144 265.676Z" fill="#98CFF4"/>
<path d="M129.384 276.037C129.387 276.041 129.391 276.045 129.394 276.048L138.002 284.728L146.502 277.952C146.637 277.844 146.66 277.647 146.552 277.511C146.436 277.373 146.246 277.354 146.111 277.461L138.051 283.886L129.84 275.607C129.718 275.484 129.519 275.482 129.395 275.605C129.276 275.722 129.272 275.914 129.384 276.037Z" fill="#98CFF4"/>
<path d="M125.681 282.155C125.684 282.159 125.686 282.162 125.689 282.165L137.98 294.653L148.517 287.285C148.659 287.185 148.694 286.99 148.595 286.848C148.493 286.707 148.299 286.671 148.158 286.77L138.056 293.834L126.137 281.725C126.015 281.601 125.816 281.599 125.693 281.721C125.573 281.839 125.568 282.031 125.681 282.155Z" fill="#98CFF4"/>
<path d="M128.512 302.768C128.512 302.768 116.944 296.979 117.113 291.855C117.281 286.732 110.48 286.44 108.968 283.359C107.455 280.277 108.943 276.08 114.388 279.088C119.832 282.096 120.315 281.877 123.631 278.977C126.947 276.077 132.939 282.602 135.255 286.043C137.57 289.483 136.108 281.874 140.113 284.059C144.118 286.244 145.972 297.102 144.553 305.124C143.134 313.146 127.946 309.386 125.99 306.618C124.033 303.849 128.918 305.308 128.512 302.768Z" fill="#98CFF4"/>
<path d="M116.893 290.215C117.051 290.702 117.133 291.244 117.112 291.856C116.943 296.979 128.511 302.768 128.511 302.768C128.918 305.308 124.033 303.85 125.989 306.617C127.946 309.384 143.134 313.145 144.552 305.123C144.628 304.692 144.693 304.251 144.751 303.806C136.844 296.925 127.281 292.294 116.893 290.215Z" fill="#82C4E8"/>
<path d="M143.762 307.541C143.767 307.64 143.721 307.739 143.632 307.8C143.497 307.891 143.314 307.854 143.224 307.72C143.129 307.58 133.506 293.512 110.889 281.71C110.745 281.635 110.688 281.457 110.764 281.313C110.839 281.169 111.018 281.112 111.162 281.188C133.921 293.064 143.618 307.249 143.713 307.391C143.744 307.436 143.76 307.488 143.762 307.541Z" fill="#ACDAFF"/>
<path d="M117.615 285.191L112.606 285.707C112.444 285.724 112.299 285.607 112.283 285.444C112.268 285.284 112.384 285.138 112.546 285.121L116.88 284.675L116.041 281.288C116.001 281.128 116.098 280.97 116.256 280.931C116.414 280.891 116.574 280.988 116.613 281.146L117.615 285.191Z" fill="#ACDAFF"/>
<path d="M126.117 280.146C126.118 280.155 126.118 280.164 126.117 280.173L125.612 290.502L118.408 291.844C118.248 291.874 118.093 291.768 118.064 291.608C118.033 291.448 118.14 291.294 118.3 291.265L125.045 290.008L125.528 280.145C125.536 279.983 125.674 279.857 125.837 279.865C125.99 279.873 126.111 279.995 126.117 280.146Z" fill="#ACDAFF"/>
<path d="M134.142 285.894C134.142 285.898 134.142 285.902 134.142 285.907L134.139 297.389L123.99 298.49C123.828 298.507 123.683 298.39 123.665 298.228C123.651 298.06 123.765 297.921 123.927 297.904L133.55 296.86L133.553 285.908C133.553 285.745 133.685 285.613 133.847 285.613C134.006 285.612 134.135 285.737 134.142 285.894Z" fill="#ACDAFF"/>
<path d="M140.658 287.526C140.658 287.53 140.658 287.534 140.658 287.538L140.717 303.995L128.817 306.047C128.656 306.075 128.504 305.967 128.477 305.806C128.45 305.645 128.557 305.493 128.717 305.466L140.126 303.498L140.069 287.54C140.068 287.377 140.2 287.245 140.363 287.244C140.521 287.243 140.651 287.368 140.658 287.526Z" fill="#ACDAFF"/>
<path d="M112.647 306.035C112.647 306.035 102.142 304.668 100.896 300.66C99.6481 296.652 94.3093 298.255 92.3102 296.278C90.3112 294.301 90.3342 290.654 95.3547 291.516C100.375 292.379 100.69 292.08 102.475 288.945C104.26 285.811 110.65 289.246 113.366 291.285C116.083 293.324 112.905 287.83 116.591 288.444C120.277 289.058 124.63 296.957 125.69 303.544C126.75 310.131 113.99 311.307 111.732 309.692C109.475 308.077 113.645 307.89 112.647 306.035Z" fill="#82C4E8"/>
<path d="M100.283 299.449C100.537 299.784 100.746 300.18 100.895 300.66C102.142 304.668 112.646 306.035 112.646 306.035C113.644 307.891 109.474 308.076 111.731 309.691C113.988 311.306 126.748 310.13 125.688 303.543C125.631 303.189 125.563 302.831 125.488 302.472C117.52 299.276 108.878 298.265 100.283 299.449Z" fill="#6CB7D8"/>
<path d="M125.729 305.627C125.759 305.702 125.75 305.792 125.697 305.861C125.617 305.968 125.466 305.99 125.359 305.909C125.248 305.826 114.021 297.532 93.3527 294.485C93.2205 294.466 93.1294 294.343 93.1492 294.211C93.1682 294.079 93.2917 293.988 93.4232 294.008C114.222 297.074 125.537 305.439 125.649 305.523C125.686 305.551 125.713 305.587 125.729 305.627Z" fill="#98CFF4"/>
<path d="M99.4934 295.369L95.7568 297.115C95.6364 297.172 95.4922 297.12 95.436 296.999C95.3813 296.879 95.432 296.734 95.5524 296.678L98.7846 295.167L97.2243 292.773C97.1507 292.66 97.1831 292.511 97.2948 292.439C97.4065 292.366 97.5562 292.397 97.629 292.509L99.4934 295.369Z" fill="#98CFF4"/>
<path d="M104.713 289.18C104.716 289.187 104.719 289.194 104.72 289.201L107.107 297.326L101.895 300.302C101.779 300.368 101.632 300.328 101.566 300.212C101.498 300.096 101.539 299.949 101.656 299.882L106.536 297.096L104.257 289.337C104.22 289.208 104.292 289.075 104.421 289.037C104.542 289.002 104.668 289.066 104.713 289.18Z" fill="#98CFF4"/>
<path d="M112.466 291.468C112.468 291.471 112.468 291.475 112.47 291.478L115.556 300.36L108.001 303.941C107.88 303.998 107.736 303.946 107.679 303.826C107.623 303.7 107.674 303.561 107.794 303.504L114.958 300.109L112.015 291.636C111.971 291.51 112.038 291.373 112.163 291.329C112.285 291.286 112.418 291.348 112.466 291.468Z" fill="#98CFF4"/>
<path d="M117.945 290.978C117.947 290.982 117.948 290.985 117.948 290.988L122.419 303.702L113.767 308.489C113.65 308.554 113.503 308.512 113.438 308.395C113.375 308.278 113.416 308.131 113.532 308.067L121.828 303.477L117.493 291.148C117.449 291.022 117.515 290.884 117.64 290.84C117.764 290.797 117.898 290.859 117.945 290.978Z" fill="#98CFF4"/>
<path d="M154.516 304.084C154.516 304.084 169.763 297.67 169.979 291.119C170.194 284.567 178.896 284.767 181.086 280.961C183.275 277.156 181.729 271.675 174.529 275.055C167.328 278.436 166.731 278.116 162.744 274.137C158.756 270.158 150.561 277.98 147.318 282.175C144.075 286.371 146.58 276.783 141.286 279.235C135.991 281.688 132.713 295.385 133.85 305.741C134.986 316.096 154.682 312.574 157.411 309.208C160.139 305.84 153.783 307.29 154.516 304.084Z" fill="#ACDAFF"/>
<path d="M170.395 289.043C170.153 289.651 170.003 290.336 169.977 291.119C169.762 297.67 154.514 304.084 154.514 304.084C153.781 307.291 160.137 305.84 157.409 309.207C154.68 312.574 134.984 316.095 133.848 305.74C133.787 305.184 133.741 304.617 133.705 304.043C144.374 295.929 156.965 290.822 170.395 289.043Z" fill="#98CFF4"/>
<path d="M134.655 308.894C134.64 309.019 134.691 309.15 134.799 309.233C134.964 309.361 135.2 309.33 135.328 309.165C135.46 308.994 148.923 291.853 178.774 278.695C178.965 278.611 179.052 278.389 178.967 278.198C178.883 278.007 178.661 277.921 178.47 278.005C148.43 291.245 134.865 308.531 134.732 308.704C134.687 308.761 134.662 308.827 134.655 308.894Z" fill="#D2EDFF"/>
<path d="M169.896 282.571L176.245 283.652C176.45 283.686 176.645 283.549 176.68 283.343C176.712 283.139 176.576 282.943 176.371 282.908L170.878 281.973L172.234 277.722C172.298 277.521 172.188 277.311 171.989 277.247C171.79 277.184 171.578 277.293 171.515 277.492L169.896 282.571Z" fill="#D2EDFF"/>
<path d="M159.471 275.42C159.469 275.432 159.468 275.444 159.468 275.456L159.244 288.677L168.324 290.996C168.526 291.048 168.732 290.926 168.783 290.724C168.836 290.522 168.712 290.317 168.511 290.265L160.008 288.094L160.222 275.468C160.225 275.26 160.06 275.088 159.852 275.085C159.656 275.082 159.492 275.229 159.471 275.42Z" fill="#D2EDFF"/>
<path d="M148.749 282.08C148.748 282.086 148.747 282.091 148.747 282.097L147.785 296.747L160.644 299.004C160.849 299.04 161.045 298.903 161.08 298.699C161.112 298.485 160.979 298.298 160.775 298.262L148.583 296.121L149.5 282.146C149.513 281.938 149.356 281.758 149.148 281.745C148.946 281.732 148.771 281.88 148.749 282.08Z" fill="#D2EDFF"/>
<path d="M140.298 283.615C140.297 283.62 140.297 283.625 140.296 283.63L138.838 304.625L153.849 308.244C154.052 308.292 154.256 308.168 154.305 307.966C154.352 307.763 154.229 307.56 154.027 307.511L139.635 304.041L141.048 283.682C141.063 283.475 140.907 283.294 140.698 283.28C140.496 283.267 140.32 283.416 140.298 283.615Z" fill="#D2EDFF"/>
<path d="M177.75 328.568H64.1774L61.3262 302.634H180.601L177.75 328.568Z" fill="#FF9900"/>
<path d="M178.577 321.029H63.3477L63.5631 322.99H178.362L178.577 321.029Z" fill="#FFBC00"/>
<path d="M179.342 314.078H62.584L63.0022 317.881H178.924L179.342 314.078Z" fill="#FFBC00"/>
<path d="M182.172 300.84H59.543V306.949H182.172V300.84Z" fill="#FFBC00"/>
<path d="M283.171 334.453H186.717C179.891 334.453 169.283 329.321 170.075 322.494L199.534 117.439C200.326 110.612 206.502 105.078 213.329 105.078L303.88 101.548C314.892 101.548 321.501 110.612 320.709 117.439L296.965 322.092C296.173 328.918 289.997 334.453 283.171 334.453Z" fill="#144182"/>
<path d="M276.063 330.864H179.61C172.784 330.864 167.892 325.331 168.684 318.504L192.427 113.85C193.219 107.024 199.395 101.489 206.222 101.489H302.675C309.501 101.489 314.393 107.023 313.601 113.85L289.858 318.504C289.066 325.33 282.89 330.864 276.063 330.864Z" fill="#2099FF"/>
<path d="M276.039 326.573H180.629C175.434 326.573 171.711 322.361 172.314 317.166L195.828 114.485C196.431 109.289 201.132 105.078 206.326 105.078H301.736C306.932 105.078 310.654 109.29 310.051 114.485L286.537 317.166C285.934 322.361 281.235 326.573 276.039 326.573Z" fill="#ACDAFF"/>
<path d="M237.001 321.474H217.114C214.812 321.474 213.146 319.589 213.413 317.287C213.68 314.985 215.783 313.101 218.086 313.101H237.973C240.275 313.101 241.941 314.985 241.674 317.287C241.406 319.589 239.303 321.474 237.001 321.474Z" fill="#2099FF"/>
<path d="M210.634 114.753C211.972 113.49 212.145 111.501 211.02 110.309C209.896 109.117 207.899 109.175 206.561 110.437C205.223 111.7 205.05 113.69 206.175 114.881C207.299 116.073 209.296 116.016 210.634 114.753Z" fill="#2099FF"/>
<path d="M218.247 113.895C219.053 113.134 219.158 111.935 218.48 111.217C217.803 110.499 216.6 110.534 215.794 111.295C214.987 112.055 214.883 113.254 215.561 113.972C216.238 114.69 217.441 114.655 218.247 113.895Z" fill="#2099FF"/>
<path d="M282.487 308.315H177.621L199.358 120.961H304.224L282.487 308.315Z" fill="white"/>
<path d="M289.706 149.869H207.26C204.728 149.869 202.913 147.816 203.207 145.284L204.873 130.929C205.166 128.397 207.458 126.344 209.99 126.344H292.435C294.968 126.344 296.783 128.397 296.489 130.929L294.823 145.284C294.529 147.816 292.238 149.869 289.706 149.869Z" fill="#E6F2FF"/>
<path d="M214.336 142.187L215.151 135.156H216.233L218.732 140.289H218.166L221.805 135.156H222.887L222.082 142.187H220.838L221.419 137.094H221.681L218.595 141.384H218.009L215.877 137.094H216.18L215.59 142.187H214.336ZM226.291 142.258C225.739 142.258 225.26 142.14 224.856 141.906C224.452 141.665 224.15 141.337 223.949 140.922C223.747 140.506 223.677 140.034 223.739 139.505C223.801 138.97 223.98 138.497 224.277 138.089C224.575 137.674 224.953 137.349 225.411 137.114C225.87 136.88 226.376 136.763 226.929 136.763C227.488 136.763 227.97 136.88 228.374 137.114C228.785 137.349 229.089 137.67 229.284 138.079C229.486 138.487 229.556 138.963 229.493 139.505C229.431 140.034 229.252 140.506 228.954 140.922C228.663 141.337 228.285 141.665 227.819 141.906C227.36 142.14 226.851 142.258 226.291 142.258ZM226.416 141.183C226.726 141.183 227.01 141.116 227.269 140.982C227.527 140.848 227.738 140.654 227.902 140.399C228.074 140.145 228.179 139.847 228.219 139.505C228.259 139.157 228.223 138.859 228.11 138.611C228.005 138.357 227.838 138.163 227.611 138.029C227.384 137.895 227.119 137.828 226.815 137.828C226.505 137.828 226.221 137.895 225.963 138.029C225.711 138.163 225.5 138.357 225.329 138.611C225.159 138.859 225.053 139.157 225.013 139.505C224.973 139.847 225.009 140.145 225.122 140.399C225.234 140.654 225.4 140.848 225.62 140.982C225.847 141.116 226.113 141.183 226.416 141.183ZM234.084 136.763C234.515 136.763 234.89 136.847 235.207 137.014C235.532 137.181 235.771 137.439 235.927 137.788C236.083 138.129 236.129 138.571 236.066 139.113L235.71 142.187H234.446L234.783 139.274C234.839 138.799 234.765 138.444 234.563 138.209C234.368 137.975 234.068 137.858 233.663 137.858C233.367 137.858 233.097 137.918 232.854 138.039C232.61 138.159 232.411 138.34 232.255 138.581C232.106 138.815 232.011 139.113 231.969 139.475L231.654 142.187H230.39L231.013 136.823H232.216L232.048 138.27L231.887 137.828C232.115 137.486 232.419 137.225 232.797 137.044C233.183 136.857 233.612 136.763 234.084 136.763ZM239.6 142.258C239.081 142.258 238.626 142.144 238.234 141.916C237.85 141.682 237.564 141.36 237.375 140.952C237.187 140.543 237.125 140.061 237.189 139.505C237.254 138.949 237.427 138.467 237.711 138.059C237.994 137.65 238.355 137.332 238.792 137.104C239.237 136.877 239.718 136.763 240.238 136.763C240.689 136.763 241.082 136.863 241.416 137.064C241.751 137.258 241.999 137.556 242.162 137.958C242.324 138.36 242.369 138.876 242.296 139.505C242.224 140.128 242.063 140.644 241.813 141.052C241.564 141.454 241.25 141.755 240.869 141.956C240.488 142.157 240.065 142.258 239.6 142.258ZM239.877 141.183C240.18 141.183 240.457 141.116 240.709 140.982C240.967 140.848 241.182 140.654 241.353 140.399C241.531 140.145 241.639 139.847 241.679 139.505C241.719 139.157 241.68 138.859 241.56 138.611C241.448 138.357 241.279 138.163 241.051 138.029C240.831 137.895 240.569 137.828 240.266 137.828C239.962 137.828 239.682 137.895 239.423 138.029C239.172 138.163 238.957 138.357 238.779 138.611C238.609 138.859 238.504 139.157 238.463 139.505C238.424 139.847 238.46 140.145 238.572 140.399C238.691 140.654 238.86 140.848 239.081 140.982C239.308 141.116 239.573 141.183 239.877 141.183ZM241.398 142.187L241.545 140.922L241.761 139.495L241.825 138.069L242.212 134.734H243.466L242.602 142.187H241.398ZM247.593 142.187L247.718 141.102L247.674 140.871L247.895 138.973C247.937 138.605 247.859 138.32 247.66 138.119C247.461 137.911 247.136 137.808 246.685 137.808C246.381 137.808 246.076 137.854 245.768 137.948C245.468 138.042 245.206 138.173 244.985 138.34L244.595 137.426C244.911 137.205 245.274 137.041 245.684 136.934C246.102 136.82 246.526 136.763 246.958 136.763C247.74 136.763 248.321 136.95 248.702 137.325C249.091 137.694 249.241 138.266 249.15 139.043L248.786 142.187H247.593ZM245.885 142.258C245.481 142.258 245.135 142.191 244.847 142.057C244.56 141.916 244.346 141.725 244.205 141.484C244.072 141.236 244.024 140.958 244.059 140.65C244.094 140.349 244.197 140.078 244.366 139.837C244.542 139.596 244.804 139.405 245.151 139.264C245.497 139.124 245.944 139.053 246.49 139.053H248.057L247.96 139.887H246.484C246.053 139.887 245.755 139.957 245.59 140.098C245.426 140.232 245.332 140.399 245.309 140.6C245.283 140.828 245.353 141.009 245.519 141.143C245.686 141.277 245.931 141.344 246.254 141.344C246.565 141.344 246.849 141.273 247.108 141.133C247.374 140.992 247.577 140.784 247.716 140.51L247.841 141.263C247.683 141.578 247.436 141.822 247.099 141.996C246.769 142.171 246.364 142.258 245.885 142.258ZM250.52 144.206C250.257 144.206 249.999 144.163 249.746 144.076C249.494 143.989 249.289 143.868 249.131 143.714L249.744 142.79C249.859 142.904 249.993 142.994 250.147 143.061C250.301 143.128 250.463 143.162 250.631 143.162C250.86 143.162 251.052 143.105 251.207 142.991C251.362 142.877 251.516 142.686 251.668 142.418L252.063 141.715L252.182 141.565L254.774 136.823H255.988L252.787 142.619C252.572 143.021 252.347 143.339 252.11 143.574C251.881 143.808 251.633 143.972 251.366 144.066C251.105 144.16 250.823 144.206 250.52 144.206ZM251.845 142.378L250.052 136.823H251.366L252.811 141.454L251.845 142.378ZM259.699 142.187L260.456 135.658L260.964 136.251H258.891L259.018 135.156H261.829L261.013 142.187H259.699ZM263.55 142.187L264.307 135.658L264.815 136.251H262.742L262.869 135.156H265.68L264.865 142.187H263.55ZM267.05 142.258C266.82 142.258 266.634 142.181 266.49 142.027C266.347 141.866 266.289 141.665 266.317 141.424C266.347 141.169 266.451 140.969 266.63 140.821C266.809 140.667 267.014 140.59 267.243 140.59C267.472 140.59 267.659 140.667 267.803 140.821C267.948 140.969 268.005 141.169 267.976 141.424C267.948 141.665 267.843 141.866 267.663 142.027C267.483 142.181 267.279 142.258 267.05 142.258ZM271.561 142.288C271.001 142.288 270.512 142.147 270.093 141.866C269.68 141.585 269.377 141.176 269.183 140.64C268.99 140.098 268.938 139.442 269.027 138.672C269.117 137.901 269.32 137.248 269.639 136.713C269.958 136.17 270.356 135.758 270.834 135.477C271.318 135.196 271.84 135.055 272.399 135.055C272.966 135.055 273.455 135.196 273.867 135.477C274.28 135.758 274.583 136.17 274.776 136.713C274.977 137.248 275.032 137.901 274.943 138.672C274.854 139.442 274.646 140.098 274.32 140.64C274.002 141.176 273.604 141.585 273.126 141.866C272.649 142.147 272.127 142.288 271.561 142.288ZM271.692 141.153C272.023 141.153 272.319 141.066 272.582 140.891C272.846 140.711 273.066 140.436 273.244 140.068C273.428 139.699 273.553 139.234 273.618 138.672C273.684 138.102 273.667 137.637 273.568 137.275C273.476 136.907 273.318 136.636 273.096 136.462C272.874 136.281 272.598 136.19 272.268 136.19C271.951 136.19 271.657 136.281 271.387 136.462C271.124 136.636 270.9 136.907 270.716 137.275C270.539 137.637 270.418 138.102 270.352 138.672C270.287 139.234 270.3 139.699 270.392 140.068C270.491 140.436 270.651 140.711 270.873 140.891C271.102 141.066 271.375 141.153 271.692 141.153ZM278.365 142.288C277.805 142.288 277.316 142.147 276.897 141.866C276.485 141.585 276.181 141.176 275.987 140.64C275.794 140.098 275.742 139.442 275.831 138.672C275.921 137.901 276.125 137.248 276.443 136.713C276.762 136.17 277.16 135.758 277.638 135.477C278.122 135.196 278.644 135.055 279.204 135.055C279.77 135.055 280.259 135.196 280.672 135.477C281.084 135.758 281.387 136.17 281.58 136.713C281.781 137.248 281.837 137.901 281.747 138.672C281.658 139.442 281.45 140.098 281.125 140.64C280.806 141.176 280.408 141.585 279.931 141.866C279.453 142.147 278.931 142.288 278.365 142.288ZM278.497 141.153C278.827 141.153 279.123 141.066 279.386 140.891C279.65 140.711 279.871 140.436 280.048 140.068C280.233 139.699 280.357 139.234 280.423 138.672C280.489 138.102 280.472 137.637 280.372 137.275C280.28 136.907 280.123 136.636 279.9 136.462C279.678 136.281 279.402 136.19 279.072 136.19C278.755 136.19 278.462 136.281 278.191 136.462C277.928 136.636 277.705 136.907 277.52 137.275C277.344 137.637 277.222 138.102 277.156 138.672C277.091 139.234 277.104 139.699 277.196 140.068C277.295 140.436 277.456 140.711 277.677 140.891C277.907 141.066 278.18 141.153 278.497 141.153ZM211.952 154.107L215.953 147.076H217.247L219.627 154.107H218.252L216.247 147.769H216.773L213.307 154.107H211.952ZM213.607 152.48L214.08 151.455H217.902L218.138 152.48H213.607ZM220.528 154.107L221.343 147.076H222.425L224.924 152.209H224.358L227.997 147.076H229.079L228.274 154.107H227.03L227.611 149.015H227.874L224.787 153.304H224.201L222.069 149.015H222.372L221.782 154.107H220.528Z" fill="#ACDAFF"/>
<path d="M218.447 175.657H199.682L201.858 156.892H220.624L218.447 175.657Z" fill="#E6F2FF"/>
<path d="M242.731 175.657H223.965L226.142 156.892H244.908L242.731 175.657Z" fill="#ACDAFF"/>
<path d="M267.014 175.657H248.248L250.425 156.892H269.192L267.014 175.657Z" fill="#E6F2FF"/>
<path d="M291.298 175.657H272.531L274.708 156.892H293.475L291.298 175.657Z" fill="#E6F2FF"/>
<path d="M215.665 199.655H196.898L199.076 180.89H217.842L215.665 199.655Z" fill="#E6F2FF"/>
<path d="M239.948 199.655H221.182L223.359 180.89H242.125L239.948 199.655Z" fill="#E6F2FF"/>
<path d="M264.231 199.655H245.465L247.642 180.89H266.408L264.231 199.655Z" fill="#E6F2FF"/>
<path d="M288.514 199.655H269.748L271.925 180.89H290.692L288.514 199.655Z" fill="#E6F2FF"/>
<path d="M212.879 223.653H194.113L196.29 204.887H215.056L212.879 223.653Z" fill="#E6F2FF"/>
<path d="M237.162 223.653H218.396L220.574 204.887H239.339L237.162 223.653Z" fill="#E6F2FF"/>
<path d="M261.445 223.653H242.68L244.857 204.887H263.623L261.445 223.653Z" fill="#E6F2FF"/>
<path d="M285.729 223.653H266.963L269.14 204.887H287.906L285.729 223.653Z" fill="#E6F2FF"/>
<path d="M210.096 247.651H191.33L193.507 228.885H212.273L210.096 247.651Z" fill="#E6F2FF"/>
<path d="M234.379 247.651H215.613L217.79 228.885H236.556L234.379 247.651Z" fill="#E6F2FF"/>
<path d="M258.663 247.651H239.896L242.074 228.885H260.84L258.663 247.651Z" fill="#E6F2FF"/>
<path d="M282.946 247.651H264.18L266.357 228.885H285.123L282.946 247.651Z" fill="#E6F2FF"/>
<path d="M205.474 286.462C205.646 284.991 206.982 283.794 208.453 283.794H225.41C227.003 283.794 228.477 282.88 229.257 281.408C230.038 279.936 229.904 278.322 228.908 277.196L222.325 269.749C221.68 269.018 220.756 268.617 219.723 268.617H199.099C197.965 268.617 197.036 267.898 196.787 266.827L195.913 263.074C195.721 262.248 195.949 261.364 196.538 260.65C197.128 259.936 197.969 259.527 198.845 259.527H227.294C228.001 259.527 228.635 259.8 229.08 260.297L239.73 272.173C239.822 271.65 239.927 271.129 240.034 270.613L230.019 259.445C229.374 258.727 228.455 258.331 227.432 258.331H198.982C197.714 258.331 196.496 258.924 195.643 259.958C194.788 260.992 194.458 262.271 194.737 263.469L195.61 267.221C195.971 268.772 197.317 269.813 198.959 269.813H219.583C220.296 269.813 220.934 270.091 221.379 270.595L227.962 278.042C228.785 278.971 228.625 280.155 228.203 280.951C227.781 281.747 226.861 282.598 225.546 282.598H208.589C206.458 282.598 204.523 284.332 204.276 286.463L203.82 290.396C203.573 292.527 205.105 294.261 207.237 294.261H225.972C227.444 294.261 228.502 295.458 228.326 296.975C228.156 298.447 226.819 299.644 225.347 299.644H187.869L187.73 300.84H225.209C227.34 300.84 229.275 299.106 229.527 296.93C229.775 294.799 228.242 293.065 226.111 293.065H207.375C205.904 293.065 204.846 291.867 205.016 290.396L205.474 286.462Z" fill="#E6F2FF"/>
<path d="M246.697 262.547C246.343 265.598 239.88 273.696 239.88 273.696C239.88 273.696 235.297 265.598 235.65 262.547C236.004 259.496 238.764 257.023 241.814 257.023C244.865 257.023 247.051 259.496 246.697 262.547Z" fill="#ACDAFF"/>
<path d="M243.12 264.335C244.383 263.143 244.546 261.266 243.486 260.142C242.425 259.018 240.541 259.072 239.278 260.264C238.016 261.455 237.852 263.332 238.913 264.457C239.974 265.581 241.858 265.526 243.12 264.335Z" fill="white"/>
<path d="M193.215 303.43C195.188 301.568 195.444 298.635 193.786 296.878C192.128 295.121 189.184 295.206 187.211 297.067C185.238 298.929 184.983 301.863 186.641 303.62C188.299 305.377 191.242 305.292 193.215 303.43Z" fill="#ACDAFF"/>
<path d="M191.763 301.89C192.782 300.929 192.914 299.415 192.058 298.508C191.202 297.601 189.682 297.645 188.664 298.606C187.646 299.567 187.514 301.081 188.37 301.988C189.226 302.895 190.745 302.851 191.763 301.89Z" fill="white"/>
<path d="M146.657 214.362C146.657 214.362 156.516 200.012 158.078 196.597C159.641 193.182 159.811 190.277 157.361 188.503C154.912 186.729 150.397 185.338 146.406 190.961C142.416 196.585 135.039 213.857 134.737 219.261C134.435 224.664 158.872 241.026 161.043 242.083C163.437 241.457 164.452 237.883 164.452 237.883C164.452 237.883 148.674 217.852 146.657 214.362Z" fill="#FF9900"/>
<path d="M154.746 333.09C154.746 333.09 155.241 335.925 153.62 340.2C152 344.476 151.91 345.826 153.62 346.771C155.33 347.716 156.546 347.986 161.316 346.771C166.086 345.556 171.397 342.9 171.397 342.9C171.397 342.9 166.222 339.615 164.962 338.22C163.702 336.824 161.046 331.829 161.091 331.109C161.136 330.39 154.746 333.09 154.746 333.09Z" fill="#F79E77"/>
<path d="M167.718 340.432C165.798 341.712 163.965 343.111 161.506 342.76C159.532 342.267 158.793 340.293 157.559 338.813C156.708 338.132 155.389 337.922 154.247 338.261C154.085 338.867 153.88 339.515 153.62 340.2C152 344.476 151.91 345.826 153.62 346.771C155.33 347.716 156.546 347.986 161.316 346.771C166.086 345.556 171.397 342.9 171.397 342.9C171.397 342.9 169.496 341.694 167.718 340.432Z" fill="#0C2C51"/>
<path d="M212.611 185.421L218.585 187.992C220.566 185.537 222.054 183.687 223.026 183.486C225.555 183.825 226.64 182.755 227.316 181.891C227.993 181.027 227.147 180.532 227.257 180.201C227.956 179.173 226.771 178.769 226.961 178.526C227.695 177.669 227.559 177.205 227.116 176.971C226.673 176.736 225.927 176.519 226.064 176.088C226.201 175.657 228.019 174.508 229.599 173.76C231.179 173.012 232.917 171.811 231.955 171.18C230.994 170.548 222.017 174.861 220.337 176.701C218.657 178.541 219.09 180.499 216.983 182.526C216.219 183.262 214.525 184.35 212.611 185.421Z" fill="#FFB797"/>
<path d="M160.986 332.219C160.986 332.219 161.406 338.039 159.546 342.78C157.686 347.52 158.226 349.621 161.587 350.581C164.947 351.542 166.807 349.261 171.188 349.381C175.569 349.502 181.389 349.021 182.889 345.001C184.389 340.981 177.386 342.777 173.147 341.518C168.907 340.26 170.792 332.819 170.792 332.819L160.986 332.219Z" fill="#FFAE83"/>
<path d="M173.265 341.434C172.885 342.708 176.342 344.053 175.321 344.733C171.621 347.446 167.18 342.759 162.987 341.279C162.132 340.852 161.114 340.837 160.121 341.042C159.958 341.629 159.769 342.212 159.546 342.78C157.686 347.521 158.226 349.62 161.587 350.581C164.947 351.541 166.807 349.261 171.188 349.381C175.569 349.502 183.854 348.672 185.354 344.651C186.839 340.671 177.516 342.618 173.265 341.434Z" fill="#0F3163"/>
<path d="M184.838 342.73C184.814 342.825 184.788 342.921 184.75 343.022C183.249 347.042 174.964 347.872 170.583 347.752C166.202 347.631 164.342 349.912 160.982 348.952C159.828 348.622 159.016 348.154 158.51 347.495C158.654 349.092 159.649 350.027 161.584 350.58C164.945 351.54 166.805 349.26 171.185 349.38C175.565 349.5 183.851 348.67 185.351 344.65C185.697 343.73 185.456 343.129 184.838 342.73Z" fill="#0C2C51"/>
<path d="M168.066 257.571C165.773 256.485 164.231 254.871 163.23 253.085C161.249 249.544 161.407 245.324 162.126 243.169C163.206 239.929 167.526 231.769 167.526 231.769L156.905 229.804C156.905 229.804 152.134 238.04 149.704 244.521C147.273 251.002 149.254 257.842 150.424 262.973C151.594 268.103 154.564 282.775 153.304 288.265C152.044 293.756 149.704 302.127 150.334 308.517C150.965 314.908 154.114 330.12 154.025 333.54C155.088 334.015 156.129 334.177 157.09 334.154C159.956 334.085 162.126 332.369 162.126 332.369C162.126 332.369 162.845 306.176 165.546 294.655C168.246 283.134 170.947 261.712 168.066 257.571Z" fill="#144182"/>
<path d="M168.067 257.571C165.773 256.485 164.231 254.871 163.231 253.085C158.736 250.961 161.87 242.712 161.506 237.62C159.726 242.535 152.917 251.395 162.222 262.434C165.533 265.51 162.301 289.637 159.462 300.518C156.917 309.744 158.029 324.562 158.479 333.99C160.627 333.55 162.125 332.369 162.125 332.369C162.125 332.369 162.845 306.176 165.546 294.655C168.246 283.134 170.947 261.712 168.067 257.571Z" fill="#0F3163"/>
<path d="M185.049 231.648C185.049 231.648 188.17 243.53 187.21 256.251C186.25 268.972 177.729 290.335 176.769 295.015C175.809 299.696 174.489 313.155 173.289 319.207C172.089 325.259 171.489 330.899 172.149 332.46C169.328 335.46 161.827 335.1 160.147 332.46C160.748 320.098 160.448 309.477 162.788 301.136C165.128 292.795 163.688 290.635 164.648 285.414C165.608 280.193 166.568 264.051 167.049 262.132C167.529 260.212 162.728 259.251 160.988 256.131C159.248 253.01 155.648 245.509 165.609 230.208C176.228 229.848 185.049 231.648 185.049 231.648Z" fill="#144182"/>
<path d="M185.049 231.649C185.049 231.649 176.227 229.848 165.607 230.209C165.407 230.515 165.222 230.814 165.033 231.114C173.794 231.226 180.502 232.594 180.502 232.594C180.502 232.594 183.622 244.476 182.662 257.197C181.702 269.918 174.898 290.926 173.938 295.607C172.978 300.287 172.598 313.137 171.398 319.188C170.363 324.407 170.173 330.9 170.564 333.592C171.173 333.287 171.719 332.918 172.148 332.461C171.488 330.901 172.088 325.26 173.288 319.208C174.488 313.157 175.808 299.697 176.768 295.017C177.728 290.336 186.249 268.974 187.209 256.252C188.169 243.53 185.049 231.649 185.049 231.649Z" fill="#164E91"/>
<path d="M179.587 159.88C179.587 159.88 180.487 170.561 179.287 173.862C178.087 177.162 176.887 179.562 176.227 180.222C175.567 180.882 172.39 179.682 171.758 180.222C171.126 180.762 171.187 186.943 171.187 186.943L162.365 186.583C162.365 186.583 163.385 175.422 164.165 172.361C164.946 169.301 178.688 159.64 179.587 159.88Z" fill="#FFAE83"/>
<path d="M158.707 186.374C158.707 186.374 165.547 182.953 171.128 185.654C176.709 188.354 185.44 199.695 186.79 201.856C188.14 204.016 189.04 208.877 186.79 213.287C184.54 217.697 185.35 230.658 186.52 232.908C177.069 235.699 162.397 233.898 155.647 230.928C159.427 225.437 161.408 223.368 158.707 217.337C156.007 211.306 152.766 194.204 158.707 186.374Z" fill="#FFAA00"/>
<path d="M182.541 214.119C184.791 209.708 183.892 204.848 182.541 202.688C181.191 200.527 172.46 189.187 166.88 186.486C164.952 185.553 162.878 185.359 160.984 185.493C159.596 185.934 158.707 186.374 158.707 186.374C152.766 194.205 156.006 211.307 158.707 217.337C161.407 223.368 159.427 225.438 155.647 230.929C161.327 233.428 172.616 235.099 181.684 233.903C181.881 233.85 182.079 233.798 182.271 233.741C181.101 231.49 180.291 218.529 182.541 214.119Z" fill="#FF9900"/>
<path d="M193.181 199.426C193.181 199.426 178.937 189.413 175.539 187.814C172.14 186.215 169.238 186.014 167.438 188.445C165.638 190.875 164.198 195.375 169.778 199.426C175.359 203.476 192.551 211.037 197.952 211.397C203.352 211.757 219.974 187.497 221.054 185.337C220.454 182.936 216.891 181.883 216.891 181.883C216.891 181.883 196.691 197.446 193.181 199.426Z" fill="#FFBC00"/>
<path d="M169.779 199.425C169.589 199.287 169.426 199.157 169.252 199.024C169.42 199.158 169.595 199.292 169.779 199.425Z" fill="#FF69A6"/>
<path d="M167.089 190.795C168.89 188.364 171.792 188.566 175.19 190.165C178.588 191.764 192.289 200.716 192.289 200.716C195.799 198.736 216.89 181.882 216.89 181.882C216.89 181.882 196.69 197.445 193.18 199.425C193.18 199.425 178.937 189.413 175.538 187.814C172.14 186.215 169.238 186.014 167.438 188.444C166.596 189.582 165.832 191.172 165.83 192.957C166.082 192.223 166.552 191.521 167.089 190.795Z" fill="#FFD815"/>
<path d="M178.928 154.84C174.847 150.76 167.286 149.2 167.286 149.2C160.87 147.021 155.885 153.04 154.444 158.441C153.005 163.841 153.713 170.125 151.505 177.222C150.388 180.68 134.408 205.432 155.358 223.359C160.683 225.99 164.759 227.148 170.516 222.707C164.451 208.288 166.367 194.45 167.59 190.301C168.773 186.288 171.202 186.139 173.432 186.968C173.533 187.007 173.633 187.046 173.738 187.088C173.53 186.682 173.262 186.215 172.944 185.702C171.821 182.355 172.878 175.413 175.177 172.961C177.877 170.081 179.137 165.401 179.587 161.98C180.218 166.031 178.777 168.551 177.787 169.991C181.658 167.021 183.008 158.921 178.928 154.84Z" fill="#144182"/>
<path d="M153.233 208.501C150.867 191.942 157.49 174.91 163.641 159.299C165.482 154.513 170.759 152.307 176.13 152.677C172.109 150.197 167.286 149.2 167.286 149.2C160.87 147.021 155.885 153.04 154.444 158.441C153.005 163.841 153.713 170.125 151.505 177.222C150.388 180.68 134.408 205.432 155.358 223.359C159.663 225.486 163.152 226.649 167.371 224.671C165.572 224.35 163.465 223.175 163.018 222.812C158.287 219.501 154.179 214.178 153.233 208.501Z" fill="#0F3163"/>
<path d="M280.18 223.519C280.18 223.519 271.106 196.656 279.274 188.941C287.442 181.227 277.305 170.277 279.706 163.145C282.107 156.013 290.901 151.776 294.735 164.86C298.569 177.944 299.657 178.348 309.294 178.951C318.932 179.554 318.191 198.959 316.487 207.887C314.782 216.815 324.248 202.712 327.11 212.295C329.973 221.878 316.105 241.64 301.517 251.939C286.929 262.237 269.088 232.946 270.314 225.62C271.541 218.293 276.894 228.1 280.18 223.519Z" fill="#82C4E8"/>
<path d="M281.465 186.048C280.959 187.051 280.251 188.019 279.275 188.942C271.106 196.657 280.182 223.519 280.182 223.519C276.895 228.101 271.541 218.293 270.316 225.619C269.09 232.945 286.931 262.237 301.519 251.938C302.302 251.385 303.083 250.8 303.859 250.195C302.168 227.281 294.429 205.315 281.465 186.048Z" fill="#6CB7D8"/>
<path d="M296.556 254.485C296.409 254.647 296.185 254.73 295.955 254.686C295.605 254.618 295.375 254.28 295.442 253.929C295.512 253.564 302.238 216.815 285.242 163.543C285.133 163.203 285.32 162.838 285.661 162.731C286.001 162.622 286.365 162.81 286.473 163.15C303.577 216.76 296.781 253.805 296.71 254.172C296.688 254.294 296.633 254.4 296.556 254.485Z" fill="#98CFF4"/>
<path d="M290.344 179.344L281.749 172.418C281.471 172.194 281.427 171.787 281.651 171.509C281.875 171.236 282.282 171.188 282.56 171.412L289.996 177.404L293.916 170.836C294.101 170.525 294.496 170.429 294.802 170.612C295.109 170.795 295.209 171.192 295.026 171.498L290.344 179.344Z" fill="#98CFF4"/>
<path d="M311.364 184.611C311.351 184.626 311.337 184.641 311.322 184.655L294.597 199.954L281.31 190.927C281.015 190.726 280.939 190.324 281.139 190.029C281.339 189.731 281.742 189.657 282.037 189.858L294.479 198.31L310.45 183.701C310.713 183.46 311.122 183.478 311.363 183.742C311.589 183.99 311.586 184.367 311.364 184.611Z" fill="#98CFF4"/>
<path d="M314.986 205.941C314.98 205.948 314.972 205.955 314.966 205.963L297.244 223.832L279.746 209.883C279.466 209.66 279.42 209.253 279.643 208.974C279.881 208.692 280.272 208.65 280.551 208.872L297.143 222.098L314.048 205.053C314.299 204.799 314.709 204.797 314.962 205.049C315.208 205.293 315.217 205.687 314.986 205.941Z" fill="#98CFF4"/>
<path d="M322.611 218.537C322.605 218.543 322.599 218.551 322.592 218.556L297.288 244.265L275.597 229.098C275.304 228.893 275.232 228.49 275.437 228.197C275.645 227.907 276.045 227.833 276.337 228.037L297.133 242.58L321.671 217.65C321.921 217.396 322.331 217.392 322.585 217.643C322.832 217.887 322.842 218.282 322.611 218.537Z" fill="#98CFF4"/>
<path d="M276.445 283.175C276.445 283.175 256.616 273.253 256.905 264.471C257.194 255.689 245.537 255.188 242.944 249.906C240.351 244.623 242.902 237.428 252.235 242.584C261.568 247.739 262.394 247.366 268.078 242.394C273.762 237.423 284.034 248.608 288.002 254.505C291.971 260.401 289.464 247.358 296.329 251.104C303.194 254.85 306.372 273.46 303.94 287.21C301.508 300.961 275.474 294.515 272.121 289.772C268.769 285.03 277.142 287.529 276.445 283.175Z" fill="#98CFF4"/>
<path d="M256.529 261.658C256.8 262.494 256.94 263.422 256.906 264.471C256.616 273.253 276.445 283.176 276.445 283.176C277.142 287.53 268.769 285.031 272.122 289.774C275.475 294.517 301.509 300.964 303.942 287.213C304.072 286.475 304.183 285.72 304.282 284.956C290.727 273.16 274.336 265.221 256.529 261.658Z" fill="#82C4E8"/>
<path d="M302.586 291.359C302.593 291.529 302.515 291.699 302.363 291.801C302.131 291.957 301.817 291.895 301.662 291.663C301.5 291.422 285.004 267.309 246.237 247.08C245.989 246.951 245.892 246.645 246.023 246.398C246.152 246.15 246.458 246.054 246.705 246.184C285.718 266.541 302.338 290.856 302.501 291.1C302.555 291.18 302.582 291.269 302.586 291.359Z" fill="#ACDAFF"/>
<path d="M257.769 253.048L249.182 253.933C248.905 253.962 248.656 253.76 248.627 253.482C248.601 253.208 248.801 252.956 249.078 252.928L256.508 252.162L255.069 246.357C255.001 246.083 255.167 245.811 255.438 245.745C255.709 245.677 255.983 245.843 256.05 246.114L257.769 253.048Z" fill="#ACDAFF"/>
<path d="M272.342 244.4C272.343 244.416 272.343 244.432 272.342 244.448L271.477 262.152L259.128 264.454C258.854 264.504 258.589 264.324 258.538 264.049C258.485 263.773 258.668 263.51 258.943 263.46L270.506 261.305L271.333 244.399C271.347 244.12 271.584 243.905 271.863 243.919C272.124 243.931 272.33 244.142 272.342 244.4Z" fill="#ACDAFF"/>
<path d="M286.098 254.252C286.098 254.259 286.099 254.267 286.099 254.275L286.094 273.955L268.696 275.842C268.418 275.872 268.169 275.671 268.139 275.394C268.115 275.106 268.309 274.868 268.586 274.837L285.082 273.048L285.087 254.275C285.087 253.996 285.313 253.77 285.592 253.77C285.864 253.77 286.086 253.983 286.098 254.252Z" fill="#ACDAFF"/>
<path d="M297.265 257.051C297.265 257.058 297.265 257.064 297.265 257.071L297.365 285.28L276.968 288.798C276.693 288.846 276.431 288.661 276.384 288.386C276.339 288.111 276.521 287.849 276.795 287.802L296.352 284.429L296.254 257.075C296.253 256.796 296.478 256.569 296.758 256.568C297.03 256.567 297.253 256.781 297.265 257.051Z" fill="#ACDAFF"/>
<path d="M328.184 270.361C328.184 270.361 345.151 247.644 339.782 237.774C334.413 227.904 347.448 220.643 347.38 213.118C347.312 205.593 340.269 198.835 332.561 210.082C324.853 221.328 323.695 221.376 314.346 218.956C304.998 216.536 299.676 235.213 298.525 244.229C297.373 253.245 292.753 236.9 287.057 245.12C281.361 253.34 288.408 276.431 299.077 290.75C309.746 305.069 335.799 282.764 336.91 275.42C338.02 268.076 329.886 275.736 328.184 270.361Z" fill="#ACDAFF"/>
<path d="M338.597 234.343C338.767 235.452 339.14 236.594 339.781 237.774C345.15 247.644 328.183 270.361 328.183 270.361C329.885 275.736 338.019 268.076 336.909 275.421C335.799 282.765 309.745 305.07 299.076 290.751C298.504 289.982 297.943 289.183 297.393 288.367C306.116 267.11 320.292 248.632 338.597 234.343Z" fill="#98CFF4"/>
<path d="M303.004 294.712C303.093 294.911 303.281 295.06 303.513 295.089C303.867 295.134 304.191 294.883 304.235 294.529C304.282 294.161 309.298 257.139 341.995 211.777C342.204 211.487 342.14 211.083 341.849 210.875C341.559 210.666 341.155 210.732 340.946 211.022C308.043 256.671 303 293.995 302.953 294.367C302.937 294.489 302.957 294.608 303.004 294.712Z" fill="#D2EDFF"/>
<path d="M332.237 225.213L342.559 221.298C342.892 221.172 343.06 220.798 342.933 220.464C342.805 220.135 342.434 219.963 342.1 220.09L333.17 223.477L331.483 216.016C331.403 215.664 331.057 215.449 330.71 215.528C330.361 215.606 330.143 215.953 330.221 216.301L332.237 225.213Z" fill="#D2EDFF"/>
<path d="M310.623 223.693C310.63 223.712 310.64 223.73 310.65 223.748L321.797 243.484L337.23 239.028C337.573 238.929 337.771 238.57 337.671 238.227C337.574 237.882 337.213 237.687 336.87 237.786L322.419 241.958L311.774 223.111C311.598 222.801 311.204 222.692 310.893 222.867C310.602 223.033 310.488 223.393 310.623 223.693Z" fill="#D2EDFF"/>
<path d="M300.557 242.845C300.561 242.854 300.565 242.864 300.569 242.871L311.866 265.36L332.832 257.534C333.167 257.409 333.336 257.036 333.212 256.702C333.074 256.359 332.714 256.198 332.38 256.322L312.502 263.743L301.724 242.291C301.564 241.972 301.175 241.843 300.857 242.003C300.546 242.159 300.416 242.532 300.557 242.845Z" fill="#D2EDFF"/>
<path d="M289.398 252.452C289.402 252.459 289.405 252.467 289.409 252.475L305.481 284.771L330.81 277.087C331.151 276.984 331.344 276.623 331.241 276.281C331.133 275.941 330.775 275.747 330.435 275.85L306.151 283.216L290.567 251.899C290.408 251.58 290.02 251.45 289.701 251.609C289.389 251.764 289.257 252.137 289.398 252.452Z" fill="#D2EDFF"/>
<path d="M272.102 292.71H322.054L311.665 342.162H279.459L272.102 292.71Z" fill="#FF9900"/>
<path d="M317.762 313.142H275.143L275.912 318.314H316.677L317.762 313.142Z" fill="#FFBC00"/>
<path d="M316.207 320.548H276.244L276.629 323.134H315.664L316.207 320.548Z" fill="#FFBC00"/>
<path d="M323.46 291.891H270.602V298.918H323.46V291.891Z" fill="#FFBC00"/>
</g>
<defs>
<clipPath id="clip0_4674_7755">
<rect width="396" height="396" fill="white"/>
</clipPath>
</defs>
</svg>
