<svg width="396" height="396" viewBox="0 0 396 396" fill="none" xmlns="http://www.w3.org/2000/svg">
<g clip-path="url(#clip0_4674_7557)">
<path d="M128.618 93.409C126.788 95.5497 124.72 97.5068 122.553 99.2436C115.499 104.899 107.252 108.9 100.088 114.414C86.6742 124.74 72.2416 141.882 54.6767 126.74C50.5329 123.168 48.2638 117.882 46.8485 112.598C36.9105 75.4908 75.9886 43.3688 111.36 50.8738C123.871 53.5286 135.874 63.7676 135.728 76.5568C135.656 82.8207 132.746 88.5801 128.618 93.409Z" fill="#FADDD4"/>
<path d="M161.046 358.887C185.417 360.568 209.993 359.283 234.045 355C252.806 351.659 271.483 346.418 287.891 336.725C328.791 312.564 347.685 268.505 356.763 224.279C362.776 194.986 367.195 161.863 362.713 132.075C359.322 109.541 350.469 87.5715 335.63 70.2766C310.27 40.7152 267.43 27.4239 229.791 37.4387C208.148 43.1965 188.866 55.8194 172.103 70.671C155.34 85.5218 140.797 102.663 125.681 119.187C108.235 138.26 89.8554 156.708 75.616 178.28C69.5612 187.452 64.6722 197.383 61.0194 207.746C47.1008 247.234 50.8819 294.933 78.3167 327.886C96.0797 349.221 117.133 353.813 143.905 357.209C149.601 357.933 155.317 358.492 161.046 358.887Z" fill="#FADDD4"/>
<path d="M156.755 110.491C154.537 106.051 149.78 104.498 145.07 104.333C144.438 98.5908 139.574 93.735 133.915 92.5747C128.256 91.4145 122.158 93.7152 118.23 97.9508C116.654 99.6505 115.365 101.711 115.032 104.005C113.376 102.67 110.982 102.322 109.014 103.129C106.212 104.278 105.14 107.082 105.679 109.924C102.982 109.98 100.229 111.967 98.9227 114.269C96.2022 119.066 98.7968 124.975 103.825 126.766C108.176 128.315 113.374 127.208 117.265 124.931C118.932 128.669 123.051 131.045 127.092 131.48C130.322 131.827 133.767 131.133 136.27 128.976C137.792 127.664 138.872 125.752 139.228 123.745C139.236 123.748 139.243 123.751 139.25 123.754C141.147 124.59 143.239 124.945 145.304 125.051C147.467 125.162 149.872 125.083 151.915 124.33C157.148 122.4 159.131 115.864 156.971 110.956C156.903 110.798 156.831 110.643 156.755 110.491Z" fill="#9DD1C9" stroke="black" stroke-width="0.5" stroke-miterlimit="10"/>
<path d="M119.392 120.818C119.171 125.076 122.924 129.13 127.185 129.237" stroke="black" stroke-width="0.5" stroke-miterlimit="10"/>
<path d="M107.694 112.532C105.739 112.655 103.754 113.308 102.363 114.685C100.971 116.063 100.295 118.244 101.013 120.066" stroke="black" stroke-width="0.5" stroke-miterlimit="10"/>
<path d="M121.374 98.9492C118.73 100.758 117.074 103.932 117.106 107.136" stroke="black" stroke-width="0.5" stroke-miterlimit="10"/>
<path d="M94.5995 88.0908C93.6713 87.5214 92.5601 87.1951 91.308 87.184C91.3103 87.1365 91.3143 87.089 91.3151 87.0422C91.3365 85.9247 91.0252 84.8753 90.5104 83.8893C89.5521 82.0542 87.6695 80.7157 85.6626 80.2675C83.6778 79.8239 81.659 80.2025 79.9214 81.2139C78.9496 79.5832 77.3894 78.2875 75.582 77.6792C70.4388 75.9471 63.9539 79.6077 64.0228 85.3426C64.0188 85.0432 61.3632 84.9711 61.0837 84.9799C59.9598 85.0163 58.8423 85.2452 57.7953 85.6539C55.7765 86.4427 54.3509 87.8952 53.2928 89.8031C51.2446 93.497 52.4738 98.7195 56.7047 100.226C59.8109 101.331 63.5214 100.542 66.3006 98.9159C67.4909 101.585 70.4316 103.281 73.3169 103.592C75.6232 103.84 78.0824 103.344 79.8699 101.804C80.1328 101.578 80.3752 101.325 80.597 101.053C81.0872 101.541 81.8151 101.93 82.2293 102.127C83.4276 102.695 84.7462 102.954 86.0681 103.017C88.5415 103.135 91.2288 102.706 93.4171 101.51C95.7107 100.256 97.2377 97.9687 97.6083 95.3939C98.0542 92.2971 96.8662 89.4808 94.5995 88.0908Z" fill="#9DD1C9" stroke="black" stroke-width="0.5" stroke-miterlimit="10"/>
<path d="M72.1207 79.1924C69.6037 79.2922 67.242 81.0924 66.4785 83.4929Z" fill="#9DD1C9"/>
<path d="M72.1207 79.1924C69.6037 79.2922 67.242 81.0924 66.4785 83.4929" stroke="black" stroke-width="0.5" stroke-miterlimit="10"/>
<path d="M60.7322 87.3418C58.5146 87.5137 56.4649 89.0755 55.7109 91.1679Z" fill="#9DD1C9"/>
<path d="M60.7322 87.3418C58.5146 87.5137 56.4649 89.0755 55.7109 91.1679" stroke="black" stroke-width="0.5" stroke-miterlimit="10"/>
<path d="M87.3627 82.6099C86.0543 82.0024 84.5059 81.9327 83.1484 82.4198Z" fill="#9DD1C9"/>
<path d="M87.3627 82.6099C86.0543 82.0024 84.5059 81.9327 83.1484 82.4198" stroke="black" stroke-width="0.5" stroke-miterlimit="10"/>
<path d="M77.439 207.042C77.439 198.455 65.753 191.494 51.3386 191.494C36.9242 191.494 25.2383 198.455 25.2383 207.042C25.2383 215.057 35.4218 221.654 48.5025 222.496C48.7646 224.092 49.2264 225.648 50.0081 227.118C51.9311 230.737 56.2617 233.686 60.8395 233.217C57.2343 231.854 55.1307 228.439 54.6706 225.064C54.5526 224.199 54.5249 223.333 54.5629 222.467C67.455 221.52 77.439 214.978 77.439 207.042Z" fill="#F65E59" stroke="black" stroke-width="0.5" stroke-miterlimit="10"/>
<path d="M32.5957 208.519C35.6251 211.682 41.4946 211.34 44.1359 207.846C44.7109 207.085 45.1505 206.174 45.1339 205.221C45.1172 204.267 44.5525 203.284 43.6449 202.991C42.5084 202.625 41.2348 203.493 40.8658 204.629C40.4967 205.765 40.8594 207.03 41.4978 208.039C43.0493 210.494 46.306 211.722 49.0923 210.903C51.8777 210.084 53.9528 207.289 53.929 204.385C53.9259 204.004 53.8823 203.601 53.6542 203.296C53.2764 202.791 52.4852 202.74 51.9427 203.062C51.3994 203.383 51.0754 203.98 50.8988 204.586C49.9967 207.688 52.8899 211.095 56.1205 211.141C59.3503 211.187 62.2054 208.36 62.6909 205.167C62.7891 204.522 62.797 203.826 62.4739 203.259C62.1508 202.693 61.4031 202.328 60.8186 202.617C60.5794 202.735 60.3965 202.941 60.2365 203.154C58.8299 205.029 58.8632 207.852 60.3125 209.693C61.7619 211.535 64.4975 212.23 66.6509 211.303" stroke="black" stroke-width="0.5" stroke-miterlimit="10"/>
<path d="M280.145 331.521H168.562C165.001 331.521 162.115 328.635 162.115 325.074V77.1764C162.115 73.6155 165.001 70.7295 168.562 70.7295H280.144C283.705 70.7295 286.591 73.6155 286.591 77.1764V325.075C286.591 328.635 283.705 331.521 280.145 331.521Z" fill="black"/>
<path d="M272.974 331.521H161.392C157.831 331.521 154.945 328.635 154.945 325.074V77.1764C154.945 73.6155 157.831 70.7295 161.392 70.7295H272.974C276.535 70.7295 279.421 73.6155 279.421 77.1764V325.075C279.421 328.635 276.535 331.521 272.974 331.521Z" fill="white" stroke="#222221" stroke-width="0.5" stroke-miterlimit="10"/>
<path d="M279.421 84.8848H154.945V317.364H279.421V84.8848Z" fill="#7696EA" stroke="black" stroke-width="0.5" stroke-miterlimit="10"/>
<path d="M285.043 141.345H284.953C283.218 141.345 281.811 139.937 281.811 138.202V120.109C281.811 118.374 283.217 116.967 284.953 116.967H285.043C286.778 116.967 288.185 118.373 288.185 120.109V138.202C288.185 139.938 286.779 141.345 285.043 141.345Z" fill="#7696EA" stroke="black" stroke-width="0.5" stroke-miterlimit="10"/>
<path d="M285.043 167.242H284.953C283.218 167.242 281.811 165.835 281.811 164.099V146.007C281.811 144.272 283.217 142.864 284.953 142.864H285.043C286.778 142.864 288.185 144.272 288.185 146.007V164.099C288.185 165.835 286.779 167.242 285.043 167.242Z" fill="#7696EA" stroke="black" stroke-width="0.5" stroke-miterlimit="10"/>
<path d="M285.043 297.096H284.953C283.218 297.096 281.811 295.689 281.811 293.953V279.048C281.811 277.313 283.217 275.905 284.953 275.905H285.043C286.778 275.905 288.185 277.313 288.185 279.048V293.953C288.185 295.689 286.779 297.096 285.043 297.096Z" fill="#9DD1C9" stroke="black" stroke-width="0.5" stroke-miterlimit="10"/>
<path d="M194.738 116.381H161.691V145.066H194.738V116.381Z" fill="#7696EA" stroke="black" stroke-width="0.5" stroke-miterlimit="10"/>
<path d="M233.792 116.381H200.746V145.066H233.792V116.381Z" fill="#7696EA" stroke="black" stroke-width="0.5" stroke-miterlimit="10"/>
<path d="M272.847 116.381H239.801V145.066H272.847V116.381Z" fill="white" stroke="#222221" stroke-width="0.5" stroke-miterlimit="10"/>
<path d="M194.14 151.042H161.094V179.727H194.14V151.042Z" fill="white" stroke="#222221" stroke-width="0.5" stroke-miterlimit="10"/>
<path d="M233.195 151.042H200.148V179.727H233.195V151.042Z" fill="#7696EA" stroke="black" stroke-width="0.5" stroke-miterlimit="10"/>
<path d="M272.249 151.042H239.203V179.727H272.249V151.042Z" fill="#F65E59" stroke="black" stroke-width="0.5" stroke-miterlimit="10"/>
<path d="M193.542 185.704H160.496V214.39H193.542V185.704Z" fill="#7696EA" stroke="black" stroke-width="0.5" stroke-miterlimit="10"/>
<path d="M225.878 185.704H199.551V214.39H225.878V185.704Z" fill="#7696EA" stroke="black" stroke-width="0.5" stroke-miterlimit="10"/>
<path d="M271.652 185.704H231.23V214.39H271.652V185.704Z" fill="#7696EA" stroke="black" stroke-width="0.5" stroke-miterlimit="10"/>
<path d="M227.247 221.344H160.496V272.136H227.247V221.344Z" fill="white" stroke="#222221" stroke-width="0.5" stroke-miterlimit="10"/>
<mask id="mask0_4674_7557" style="mask-type:luminance" maskUnits="userSpaceOnUse" x="160" y="221" width="68" height="52">
<path d="M227.247 221.344H160.496V272.136H227.247V221.344Z" fill="white"/>
</mask>
<g mask="url(#mask0_4674_7557)">
<path d="M140.506 267.845C147.002 261.548 153.644 255.147 161.776 251.183C169.907 247.219 179.928 246.028 187.888 250.327C196.55 255.003 200.905 264.878 203.835 274.276C204.864 277.575 201.266 279.376 198.582 281.555C195.899 283.734 192.671 285.127 189.425 286.313C182.214 288.946 174.549 290.7 166.893 290.148C159.237 289.595 151.564 286.542 146.482 280.788" fill="#F65E59"/>
<path d="M140.506 267.845C147.002 261.548 153.644 255.147 161.776 251.183C169.907 247.219 179.928 246.028 187.888 250.327C196.55 255.003 200.905 264.878 203.835 274.276C204.864 277.575 201.266 279.376 198.582 281.555C195.899 283.734 192.671 285.127 189.425 286.313C182.214 288.946 174.549 290.7 166.893 290.148C159.237 289.595 151.564 286.542 146.482 280.788" stroke="black" stroke-width="0.5" stroke-miterlimit="10"/>
</g>
<mask id="mask1_4674_7557" style="mask-type:luminance" maskUnits="userSpaceOnUse" x="160" y="221" width="68" height="52">
<path d="M227.247 221.344H160.496V272.136H227.247V221.344Z" fill="white"/>
</mask>
<g mask="url(#mask1_4674_7557)">
<path d="M237.753 275.123C236.519 272.438 235.285 269.754 234.051 267.069C230.701 259.781 226.662 251.827 219.158 248.995C214.675 247.303 209.591 247.795 205.097 249.459C200.603 251.123 196.604 253.879 192.759 256.738C182.18 264.606 172.355 273.489 163.465 283.224" fill="white"/>
<path d="M237.753 275.123C236.519 272.438 235.285 269.754 234.051 267.069C230.701 259.781 226.662 251.827 219.158 248.995C214.675 247.303 209.591 247.795 205.097 249.459C200.603 251.123 196.604 253.879 192.759 256.738C182.18 264.606 172.355 273.489 163.465 283.224" stroke="#222221" stroke-width="0.5" stroke-miterlimit="10"/>
</g>
<path d="M207.122 237.579C207.122 239.95 205.2 241.872 202.829 241.872C200.457 241.872 198.535 239.95 198.535 237.579C198.535 235.207 200.457 233.285 202.829 233.285C205.2 233.285 207.122 235.207 207.122 237.579Z" fill="#F65E59" stroke="black" stroke-width="0.5" stroke-miterlimit="10"/>
<path d="M227.247 221.344H160.496V272.136H227.247V221.344Z" stroke="#222221" stroke-width="0.5" stroke-miterlimit="10"/>
<path d="M269.869 105.624H165.785V94.8672H269.869C270.854 94.8672 271.653 95.6655 271.653 96.6508V103.841C271.653 104.826 270.854 105.624 269.869 105.624Z" fill="#7696EA" stroke="black" stroke-width="0.5" stroke-miterlimit="10"/>
<path d="M181.792 105.624H163.258C162.393 105.624 161.691 104.923 161.691 104.058V96.4338C161.691 95.5689 162.392 94.8672 163.258 94.8672H181.792V105.624Z" fill="white" stroke="#222221" stroke-width="0.5" stroke-miterlimit="10"/>
<path d="M173.047 99.548C173.047 101.253 171.665 102.636 169.959 102.636C168.254 102.636 166.871 101.254 166.871 99.548C166.871 97.842 168.253 96.46 169.959 96.46C171.664 96.4608 173.047 97.8428 173.047 99.548Z" fill="white" stroke="#222221" stroke-width="0.5" stroke-miterlimit="10"/>
<path d="M174.84 103.831L172.25 101.64" stroke="#222221" stroke-width="0.5" stroke-miterlimit="10"/>
<path d="M234.197 230.234H267.929" stroke="black" stroke-width="0.5" stroke-miterlimit="10"/>
<path d="M234.197 235.674H267.929" stroke="black" stroke-width="0.5" stroke-miterlimit="10"/>
<path d="M234.197 241.112H267.929" stroke="black" stroke-width="0.5" stroke-miterlimit="10"/>
<path d="M234.197 246.551H263.329" stroke="black" stroke-width="0.5" stroke-miterlimit="10"/>
<path d="M234.197 251.99H267.929" stroke="black" stroke-width="0.5" stroke-miterlimit="10"/>
<path d="M234.197 257.43H261.539" stroke="black" stroke-width="0.5" stroke-miterlimit="10"/>
<path d="M365.922 159.971C365.865 159.576 365.765 159.189 365.613 158.827C365.282 158.038 364.775 157.515 364.106 157.078C361.052 155.084 357.736 155.532 354.663 157.098C353.238 157.824 351.743 158.237 350.332 159.081C348.684 160.066 347.127 161.241 345.684 162.567C341.358 166.544 337.87 172.063 336.835 178.29C336.785 178.589 336.741 178.89 336.703 179.192C336.84 178.102 338.728 176.416 339.428 175.711C340.498 174.629 341.687 173.692 342.959 172.928C345.753 171.252 348.766 170.45 351.924 170.16C354.984 169.879 358.075 169.829 360.93 168.385C363.527 167.07 365.779 164.419 365.97 161.244C365.995 160.821 365.983 160.391 365.922 159.971Z" fill="#9DD1C9" stroke="black" stroke-width="0.5" stroke-miterlimit="10"/>
<path d="M352.478 164.356C332.316 172.905 337.957 182.795 331.76 198.406" stroke="black" stroke-width="0.5" stroke-miterlimit="10"/>
<path d="M339.376 134.228C337.957 132.528 335.892 131.455 333.797 131.196C328.608 130.553 323.309 134.901 322.315 140.618C322.083 141.946 322.06 143.306 322.037 144.658C321.769 160.728 321.272 178.385 327.344 193.332C328.469 189.898 329.29 185.819 331.015 182.71C332.542 179.956 334.325 177.48 335.567 174.456C338.25 168.288 339.845 161.597 340.679 154.821C341.345 149.402 342.658 141.753 340.73 136.556C340.409 135.687 339.944 134.907 339.376 134.228ZM331.053 142.232C331.647 146.48 326.937 142.633 327.501 139.846C328.762 137.81 330.866 139.475 331.053 142.232Z" fill="#9DD1C9" stroke="black" stroke-width="0.5" stroke-miterlimit="10"/>
<path d="M331.625 153.809L325.986 204.711" stroke="#1C0C03" stroke-width="0.5" stroke-miterlimit="10"/>
<path d="M320.745 172.369C319.468 167.361 316.16 163.278 311.366 162.562C309.674 162.309 307.952 162.267 306.291 161.829C304.684 161.405 303.103 160.611 301.459 160.777C299.947 160.931 298.55 161.931 297.687 163.323C296.288 165.582 296.183 168.553 297.502 170.842C298.169 171.998 299.254 172.766 300.355 173.381C302.072 174.339 303.916 175.014 305.809 175.376C308.724 175.933 312.283 175.525 315.031 176.845C317.573 178.065 319.45 182.111 320.185 184.892C320.475 185.994 320.782 186.787 320.691 188.518C320.541 187.575 321.06 185.848 321.145 184.842C321.259 183.517 321.358 182.188 321.41 180.857C321.508 178.338 321.454 175.783 320.96 173.312C320.897 172.995 320.824 172.68 320.745 172.369Z" fill="#9DD1C9" stroke="black" stroke-width="0.5" stroke-miterlimit="10"/>
<path d="M320.353 197.519C320.337 194.38 321.057 184.471 320.546 181.384C320.063 178.473 319.336 175.541 317.812 173.117C316.288 170.695 313.841 168.838 311.188 168.823" stroke="#1C0C03" stroke-width="0.5" stroke-miterlimit="10"/>
<path d="M315.805 196.195H336.764L335.544 205.608C334.883 210.713 330.96 214.502 326.336 214.502C321.753 214.502 317.853 210.779 317.144 205.729L315.805 196.195Z" fill="#F65E59" stroke="black" stroke-width="0.5" stroke-miterlimit="10"/>
<path d="M310.098 331.951V214.501H351.634V331.951" stroke="#222221" stroke-width="0.5" stroke-miterlimit="10"/>
<path d="M307.291 233.655H355.002" stroke="#222221" stroke-width="0.5" stroke-miterlimit="10"/>
<path d="M307.291 252.761H355.002" stroke="#222221" stroke-width="0.5" stroke-miterlimit="10"/>
<path d="M307.291 271.865H355.002" stroke="#222221" stroke-width="0.5" stroke-miterlimit="10"/>
<path d="M307.291 290.97H355.002" stroke="#222221" stroke-width="0.5" stroke-miterlimit="10"/>
<path d="M307.291 310.075H355.002" stroke="#222221" stroke-width="0.5" stroke-miterlimit="10"/>
<path d="M237.093 356.304C237.241 356.388 237.393 356.463 237.544 356.537H260.34C263.183 354.869 261.921 349.227 261.783 346.543C261.618 343.35 261.489 338.782 257.578 338.256C256.512 338.113 255.327 338.221 254.526 338.939C253.593 339.777 253.449 341.163 253.367 342.413L253.115 346.254C253.077 346.832 253.04 347.409 253.002 347.986C249.866 348.574 246.724 349.163 243.654 350.033C240.762 350.853 237.606 352.243 236.613 355.08C236.533 355.308 236.469 355.56 236.553 355.787C236.641 356.025 236.871 356.178 237.093 356.304Z" fill="black"/>
<path d="M343.683 355.859C343.671 355.746 343.658 355.631 343.645 355.515C343.633 355.412 343.617 355.301 343.543 355.228C343.465 355.151 343.345 355.139 343.236 355.132C341.455 355.019 339.674 354.905 337.893 354.792C336.731 354.719 335.399 354.55 334.76 353.577C334.461 353.122 334.373 352.561 334.327 352.018C334.163 350.031 334.353 345.771 336.75 344.951C337.153 344.813 337.593 344.921 338.004 345.029C342.652 346.253 347.301 347.477 351.949 348.701C352.556 348.861 353.198 349.041 353.625 349.501C354.453 350.393 354.086 351.817 353.671 352.962C352.332 356.652 351.363 362.122 347.927 364.531C346.635 365.437 338.208 368.399 338.744 364.74C338.878 363.827 339.555 363.088 340.284 362.521C341.014 361.953 341.833 361.489 342.457 360.807C343.862 359.273 343.884 357.731 343.683 355.859Z" fill="black"/>
<path d="M237.017 276.057C235.36 276.318 233.784 276.417 231.916 276.151C230.064 275.887 228.138 275.62 226.354 276.185C224.57 276.751 222.986 278.418 223.173 280.28C223.236 280.898 223.485 281.485 223.813 282.013C226.341 286.067 233.268 285.974 236.912 283.712C237.52 283.334 238.079 282.877 238.708 282.536C239.9 281.893 241.283 281.702 242.53 281.172C243.776 280.643 244.975 279.573 244.968 278.218C244.961 277.058 244.027 276.054 242.938 275.656C241.848 275.259 240.639 275.36 239.503 275.592C238.628 275.768 237.813 275.931 237.017 276.057Z" fill="white" stroke="#222221" stroke-width="0.5" stroke-miterlimit="10"/>
<path d="M319.104 298.508C317.978 296.167 314.253 294.776 311.965 293.973C303.735 291.085 294.975 289.968 286.323 288.992C282.625 288.575 278.921 288.189 275.202 288.01C271.93 287.852 268.587 287.558 265.321 287.652C263.902 287.692 262.483 287.733 261.064 287.773C260.038 287.802 259.003 287.833 258.01 288.089C256.477 288.484 255.282 288.593 254.125 289.827C251.461 292.665 249.917 296.41 249.161 300.23C249.068 300.702 248.986 301.177 248.913 301.653C248.894 309.006 248.94 316.352 249.542 323.711C250.111 330.66 250.836 337.594 251.566 344.529C254.546 344.612 257.526 344.693 260.504 344.797C261.49 344.788 262.475 344.781 263.46 344.776C266.979 333.614 267.584 321.663 267.955 309.916C278.202 312.278 289.081 314.167 299.613 315.046C307.367 315.693 316.922 315.203 319.276 306.082C319.575 304.925 319.698 303.729 319.736 302.535C319.779 301.163 319.699 299.745 319.104 298.508Z" fill="#F65E59" stroke="black" stroke-width="0.5" stroke-miterlimit="10"/>
<path d="M272.81 226.031C272.368 226.165 271.941 226.34 271.539 226.575C269.624 227.694 268.645 229.969 268.424 232.177C268.234 234.081 268.52 236.03 269.247 237.799C269.668 238.824 270.256 239.812 271.13 240.494C272.419 241.496 274.135 241.704 275.758 241.875C276.539 241.957 277.031 246.201 277.192 246.891C277.65 248.861 278.153 250.795 278.45 252.801C281.096 253.12 283.901 253.416 286.319 252.296C285.448 245.134 284.019 238.04 282.051 231.098C281.195 228.077 278.992 225.354 275.656 225.59C274.699 225.658 273.721 225.754 272.81 226.031Z" fill="white" stroke="#222221" stroke-width="0.5" stroke-miterlimit="10"/>
<path d="M281.924 252.692C280.346 252.242 278.624 252.372 277.249 253.257C275.327 254.494 274.446 256.791 273.364 258.804C272.049 261.253 270.457 263.574 268.562 265.607C259.523 275.305 243.027 274.884 236.958 274.009C237.218 278.283 237.081 282.582 236.549 286.832C236.527 287.01 251.423 289.644 253.004 289.559C259.46 289.212 265.562 286.714 270.725 282.882C275.568 279.288 279.927 274.326 283.538 269.514C285.195 267.306 286.572 264.806 286.99 262.077C287.408 259.348 286.753 256.359 284.818 254.39C284.028 253.587 283.01 253.002 281.924 252.692Z" fill="#DEA600" stroke="black" stroke-width="0.5" stroke-miterlimit="10"/>
<path d="M295.957 302.924C295.605 304.626 295.024 306.289 294.424 307.925C291.241 316.601 287.362 325.179 286.345 334.364C284.755 348.721 299.828 353.807 311.357 355.062C317.867 355.771 324.135 356.225 330.617 357.401C333.638 357.949 337.213 358.359 340.48 358.728C341.624 354.169 342.665 349.583 343.688 344.995C343.829 344.36 313.009 334.958 309.981 333.873C317.181 323.668 325.695 311.576 325.695 298.427C325.756 295.754 325.271 293.092 324.539 290.522C323.601 287.234 322.147 283.963 320.382 280.969C319.67 279.761 318.892 278.593 318.085 277.447C310.361 282.911 301.271 286.103 292.543 289.717C292.699 289.993 292.861 290.265 293.007 290.547C294.628 293.685 296.495 296.927 296.278 300.579C296.231 301.37 296.118 302.151 295.957 302.924Z" fill="#F65E59" stroke="black" stroke-width="0.5" stroke-miterlimit="10"/>
<mask id="mask2_4674_7557" style="mask-type:luminance" maskUnits="userSpaceOnUse" x="286" y="277" width="58" height="82">
<path d="M295.957 302.924C295.605 304.626 295.024 306.289 294.424 307.925C291.241 316.601 287.362 325.179 286.345 334.364C284.755 348.721 299.828 353.807 311.357 355.062C317.867 355.771 324.135 356.225 330.617 357.401C333.638 357.949 337.213 358.359 340.48 358.728C341.624 354.169 342.665 349.583 343.688 344.995C343.829 344.36 313.009 334.958 309.981 333.873C317.181 323.668 325.695 311.576 325.695 298.427C325.756 295.754 325.271 293.092 324.539 290.522C323.601 287.234 322.147 283.963 320.382 280.969C319.67 279.761 318.892 278.593 318.085 277.447C310.361 282.911 301.271 286.103 292.543 289.717C292.699 289.993 292.861 290.265 293.007 290.547C294.628 293.685 296.495 296.927 296.278 300.579C296.231 301.37 296.118 302.151 295.957 302.924Z" fill="white"/>
</mask>
<g mask="url(#mask2_4674_7557)">
<path d="M289.807 335.406C290.313 335.681 290.713 336.118 291.052 336.583C291.994 337.87 292.551 339.473 292.419 341.063C292.286 342.652 291.41 344.203 290.02 344.984C288.63 345.766 286.745 345.666 285.55 344.61C284.922 344.056 284.515 343.298 284.147 342.545C282.374 338.932 284.952 332.772 289.807 335.406Z" fill="#050504"/>
</g>
<path d="M260.048 306.262L217.629 271.594" stroke="black" stroke-width="7" stroke-miterlimit="10"/>
<path d="M247.48 286.911C247.537 286.13 247.343 285.333 246.988 284.632C246.787 284.236 246.522 283.853 246.141 283.626C245.712 283.37 245.19 283.339 244.69 283.318C242.788 283.235 240.885 283.185 238.981 283.168C237.28 283.153 235.949 282.824 234.631 281.652C233.946 281.042 233.649 280.206 232.996 279.583C232.222 278.843 231.365 278.19 230.446 277.641C229.891 277.308 229.253 277.004 228.619 277.136C228.359 277.191 228.088 277.355 228.045 277.617C228.017 277.789 228.095 277.96 228.183 278.111C228.622 278.871 229.329 279.432 229.914 280.086C230.258 280.47 231.332 281.898 230.763 282.405C230.211 282.896 228.861 281.976 228.466 281.678C226.583 280.258 224.565 279.015 222.449 277.971C222.21 277.853 221.926 277.737 221.689 277.86C221.427 277.996 221.375 278.35 221.407 278.643C221.504 279.521 222.043 280.279 222.351 281.106C222.904 282.591 222.78 284.366 223.477 285.797C224.099 287.076 226.123 287.82 227.381 288.215C228.929 288.702 230.548 288.913 232.149 289.182C233.819 289.462 235.481 289.803 237.164 290C238.836 290.195 240.417 289.963 242.071 290.001C244.072 290.046 246.869 289.857 247.408 287.419C247.443 287.252 247.468 287.082 247.48 286.911Z" fill="white" stroke="#222221" stroke-width="0.5" stroke-miterlimit="10"/>
<path d="M310.565 262.746C306.883 258.423 302.85 254.4 298.513 250.735C292.492 245.649 281.475 241.22 275.312 248.876C273.124 251.593 272.211 255.09 271.353 258.472C270.705 261.031 270.055 263.591 269.407 266.152C268.125 271.206 266.024 274.201 261.329 276.558C259.721 277.365 258.182 278.047 256.403 278.58C250.812 280.257 245.06 281.022 239.249 281.44C239.276 284.708 239.285 287.977 239.186 291.243C248.855 291.381 257.889 292.952 266.879 288.703C273.036 285.793 280.088 280.909 283.369 274.8C285.894 281.722 288.983 288.438 292.597 294.859C303.702 292.796 314.241 288.473 324.687 284.178C320.888 276.488 316.127 269.275 310.565 262.746Z" fill="#DEA600" stroke="black" stroke-width="0.5" stroke-miterlimit="10"/>
<path d="M266.885 226.182C266.424 226.599 266.006 227.065 265.647 227.573C265.193 228.214 264.818 228.999 265 229.763C265.3 231.013 266.896 231.469 268.162 231.253C269.691 230.991 272.345 229.235 273.272 231.268C273.506 231.78 273.505 232.376 273.748 232.884C274.588 234.634 277.629 234.303 278.418 236.077C278.672 236.65 278.61 237.305 278.649 237.931C278.792 240.266 280.625 239.688 282.318 240.044C283.54 240.3 284.412 240.822 284.439 242.1C284.484 244.209 283.73 246.248 283.729 248.371C283.727 250.78 284.249 253.201 285.391 255.333C286.892 258.133 289.427 260.224 292.439 261.203C295.63 262.24 298.607 264.239 302.132 263.258C303.403 262.904 304.556 262.209 305.593 261.392C307.159 260.157 308.518 258.583 309.17 256.697C309.32 256.26 309.43 255.813 309.502 255.36C309.85 253.166 309.303 250.84 308.212 248.883C307.632 247.842 306.888 246.867 305.899 246.204C304.505 245.27 302.735 245.034 301.069 245.223C300.359 245.303 299.65 245.456 298.935 245.421C298.221 245.387 297.474 245.133 297.047 244.56C296.218 243.445 296.962 241.859 296.747 240.487C296.579 239.416 295.789 238.499 294.808 238.038C293.828 237.577 292.683 237.537 291.627 237.779C290.365 238.068 288.993 238.758 287.837 237.913C286.483 236.925 286.719 235.43 286.978 234.006C287.494 231.177 287.096 228.108 285.474 225.735C283.034 222.167 278.034 220.111 274.051 222.373C273.329 222.782 272.675 223.308 271.931 223.676C271.127 224.074 270.241 224.275 269.408 224.609C268.482 224.978 267.625 225.515 266.885 226.182Z" fill="black"/>
<path d="M276.887 244.137C276.921 244.251 276.943 244.362 276.973 244.476C277.582 243.425 278.15 242.349 278.72 241.273C278.749 241.128 278.773 240.982 278.788 240.838C277.973 241.197 276.546 241.582 275.68 241.723C276.411 242.157 276.702 243.01 276.849 243.811C276.868 243.919 276.872 244.028 276.887 244.137Z" fill="black"/>
<path opacity="0.57" d="M195.283 281.075C212.723 281.075 226.861 266.937 226.861 249.497C226.861 232.057 212.723 217.919 195.283 217.919C177.843 217.919 163.705 232.057 163.705 249.497C163.705 266.937 177.843 281.075 195.283 281.075Z" fill="#9DD1C9" stroke="black" stroke-width="3" stroke-miterlimit="10"/>
<path d="M283.111 275.362C283.995 273.259 284.412 270.961 284.323 268.682" stroke="black" stroke-width="0.5" stroke-miterlimit="10"/>
<path d="M275.28 234.672C274.95 233.705 275.394 232.883 276.205 232.369C276.556 232.148 276.967 232 277.381 232.03C279.322 232.174 280.473 234.517 279.514 236.124C279.143 236.748 278.497 237.22 277.776 237.304" fill="white"/>
<path d="M275.28 234.672C274.95 233.705 275.394 232.883 276.205 232.369C276.556 232.148 276.967 232 277.381 232.03C279.322 232.174 280.473 234.517 279.514 236.124C279.143 236.748 278.497 237.22 277.776 237.304" stroke="#222221" stroke-width="0.5" stroke-miterlimit="10"/>
<path d="M277.45 233.153C276.979 233.319 276.588 233.7 276.411 234.167C276.235 234.634 276.275 235.178 276.519 235.615" fill="white"/>
<path d="M277.45 233.153C276.979 233.319 276.588 233.7 276.411 234.167C276.235 234.634 276.275 235.178 276.519 235.615" stroke="#222221" stroke-width="0.5" stroke-miterlimit="10"/>
<path d="M195.283 281.075C212.723 281.075 226.861 266.937 226.861 249.497C226.861 232.057 212.723 217.919 195.283 217.919C177.843 217.919 163.705 232.057 163.705 249.497C163.705 266.937 177.843 281.075 195.283 281.075Z" stroke="black" stroke-width="3" stroke-miterlimit="10"/>
<path d="M307.102 295.093C307.563 297.236 308.876 299.183 310.69 300.413C312.504 301.644 314.799 302.145 316.96 301.782" stroke="black" stroke-width="0.5" stroke-miterlimit="10"/>
<path d="M267.922 309.992C266.856 308.657 265.937 307.205 265.189 305.669" stroke="black" stroke-width="0.5" stroke-miterlimit="10"/>
<path d="M309.872 334.048C308.458 334.618 306.884 334.784 305.383 334.521" stroke="black" stroke-width="0.5" stroke-miterlimit="10"/>
<path d="M198.515 275.997C213.156 274.21 223.575 260.892 221.787 246.252C220 231.612 206.682 221.192 192.042 222.98C177.402 224.768 166.982 238.085 168.77 252.725C170.558 267.366 183.875 277.785 198.515 275.997Z" stroke="black" stroke-width="0.5" stroke-miterlimit="10"/>
<path d="M329.865 97.4639C346.995 97.4639 360.882 83.5771 360.882 66.4468C360.882 49.3165 346.995 35.4297 329.865 35.4297C312.734 35.4297 298.848 49.3165 298.848 66.4468C298.848 83.5771 312.734 97.4639 329.865 97.4639Z" fill="#9DD1C9" stroke="black" stroke-width="0.5" stroke-miterlimit="10"/>
<path d="M329.864 92.3107C344.149 92.3107 355.729 80.7309 355.729 66.4464C355.729 52.1619 344.149 40.582 329.864 40.582C315.58 40.582 304 52.1619 304 66.4464C304 80.7309 315.58 92.3107 329.864 92.3107Z" fill="white" stroke="#222221" stroke-width="0.5" stroke-miterlimit="10"/>
<path d="M345.411 50.7148L314.41 81.7161" stroke="#111314" stroke-width="0.5" stroke-miterlimit="10"/>
<path d="M314.41 50.7148L345.412 81.7161" stroke="#111314" stroke-width="0.5" stroke-miterlimit="10"/>
<path d="M329.912 44.2939V88.1367" stroke="#111314" stroke-width="0.5" stroke-miterlimit="10"/>
<path d="M307.99 66.2158H351.833" stroke="#111314" stroke-width="0.5" stroke-miterlimit="10"/>
<path d="M349.19 58.9102L329.643 62.9177L332.214 69.5942L349.19 58.9102Z" fill="#F65E59" stroke="black" stroke-width="0.5" stroke-miterlimit="10"/>
<path d="M312.152 74.4098L329.443 62.9971L332.214 69.5944L312.152 74.4098Z" fill="#7696EA" stroke="black" stroke-width="0.5" stroke-miterlimit="10"/>
<path d="M331.557 70.4236C329.43 71.2734 327.017 70.2366 326.168 68.1093C325.319 65.982 326.355 63.5688 328.482 62.7198C330.609 61.87 333.022 62.9067 333.871 65.034C334.721 67.1613 333.685 69.5737 331.557 70.4236Z" fill="#111314"/>
<path d="M192.039 67.4049C192.039 55.7165 209.388 46.2402 227.052 46.2402C244.716 46.2402 261.307 55.7157 261.307 67.4049C261.307 78.3162 246.556 87.2959 230.528 88.4427C230.207 90.6152 229.64 92.7338 228.683 94.7344C226.326 99.6606 221.02 103.674 215.41 103.037C219.828 101.181 222.405 96.533 222.97 91.9371C223.115 90.7593 223.148 89.5801 223.102 88.4024C207.302 87.1146 192.039 78.2077 192.039 67.4049Z" fill="#F65E59" stroke="black" stroke-width="0.5" stroke-miterlimit="10"/>
<path d="M252.452 72.8648C249.518 74.8385 245.293 74.9303 242.265 73.0865C239.237 71.2428 237.6 67.5814 238.316 64.2573C238.43 63.7283 238.652 63.1477 239.176 62.9276C240.18 62.5062 241.069 63.7124 241.335 64.7151C242.21 68.0075 241.381 72.1464 238.124 73.6069C234.719 75.1331 230.544 72.7927 228.807 69.6445C227.898 67.9964 227.279 65.839 227.605 63.9714C227.727 63.2713 228.168 62.5332 228.896 62.4017C229.398 62.3106 229.92 62.5427 230.269 62.9014C230.617 63.2602 230.815 63.7299 230.956 64.2011C231.834 67.1545 230.472 71.5105 227.632 73.1349C222.165 76.2617 217.118 70.191 216.92 65.3843C216.897 64.8418 216.926 64.2779 217.18 63.7932C217.434 63.3077 217.962 62.9204 218.526 62.9648C219.362 63.0305 219.824 63.9231 220.012 64.7072C220.721 67.6542 220.178 72.9915 216.498 73.9459C213.463 74.7323 210.943 72.5551 209.793 70.0429C209.263 68.8834 208.811 67.3651 209.025 66.0853C209.286 64.5227 211.002 63.7671 211.345 65.7867C211.668 67.6883 211.146 70.6068 209.808 72.0744C208.381 73.6378 206.129 74.6626 203.957 74.052" stroke="black" stroke-width="0.5" stroke-miterlimit="10"/>
<path d="M200.6 295.594C200.32 295.169 199.99 294.773 199.608 294.415C196.373 291.382 191.202 292.244 186.979 293.596C177.532 296.62 166.852 302.029 161.334 310.563C155.265 319.95 152.036 331.126 148.932 341.756C148.503 343.224 147.192 346.224 147.265 348.345C148.776 348.268 150.296 348.218 151.808 348.291C152.756 347.017 153.605 345.546 154.157 344.779C160.624 335.823 168.581 327.848 178.005 322.018C186.363 316.848 195.879 314.564 200.687 305.06C202.179 302.112 202.371 298.272 200.6 295.594Z" fill="#9DD1C9" stroke="black" stroke-width="0.5" stroke-miterlimit="10"/>
<path d="M143.92 348.279H145.611C145.607 348.255 145.609 348.23 145.606 348.206C145.533 347.666 145.377 347.145 145.294 346.558C145.145 345.507 144.989 344.475 144.739 343.434C144.193 341.167 143.473 338.946 142.81 336.712C141.75 333.138 140.543 329.584 138.731 326.313C136.886 322.981 134.344 319.939 131.015 318.088C123.02 313.644 108.582 316.216 104.697 325.258C103.415 328.24 103.683 332.021 105.93 334.364C107.008 335.489 108.449 336.213 109.941 336.662C111.963 337.27 114.126 337.405 116.208 337.051C121.287 336.188 127.15 334.663 132.388 336.047C132.916 336.186 133.432 336.369 133.932 336.587C136.63 337.769 138.73 339.967 140.511 342.254C141.965 344.12 143.385 346.002 143.92 348.279Z" fill="#DEA600" stroke="black" stroke-width="0.5" stroke-miterlimit="10"/>
<path d="M141.892 327.39C142.77 330.765 143.371 334.212 143.899 337.661C144.162 339.371 145.775 345.461 145.66 348.426H145.838C146.236 348.403 147.111 348.354 147.265 348.346C148.762 345.643 148.402 342.576 149 339.52C151.321 327.657 155.334 314.65 152.449 302.614C150.782 295.655 147.033 288.956 141.059 285.017C135.085 281.079 126.714 280.436 120.853 284.541C119.739 285.321 118.712 286.277 118.083 287.482C116.528 290.465 117.76 294.15 119.548 296.999C121.077 299.435 123.003 301.622 125.227 303.446C127.549 305.354 130.188 306.863 132.417 308.879C135.052 311.263 136.985 314.215 138.476 317.409C139.969 320.603 141.02 324.04 141.892 327.39Z" fill="#F65E59" stroke="black" stroke-width="0.5" stroke-miterlimit="10"/>
<path d="M149.611 347.744C156.793 333.408 164.072 317.571 177.897 308.497C181.688 306.008 185.718 303.91 189.738 301.82" stroke="#222221" stroke-width="0.5" stroke-miterlimit="10"/>
<path d="M144.819 348.033C141.24 339.747 137.795 332.774 130.147 329.174C125.198 326.925 119.799 327.375 115.016 327.833" stroke="#222221" stroke-width="0.5" stroke-miterlimit="10"/>
<path d="M135.205 297.626C149.943 309.828 146.343 330.524 146.622 347.756" stroke="#222221" stroke-width="0.5" stroke-miterlimit="10"/>
<path d="M135.025 348.364H167.901" stroke="#222221" stroke-width="0.5" stroke-miterlimit="10"/>
<path d="M106.863 145.622C105.749 144.077 104.157 142.909 102.441 142.624C99.5071 142.138 96.1348 142.963 94.489 145.441C93.8253 146.439 93.377 147.735 92.2619 148.174C91.7233 148.385 91.1246 148.347 90.5464 148.375C88.0144 148.497 85.6004 150.058 84.4504 152.318C83.7415 153.71 83.7645 155.037 83.4627 156.475C83.1475 157.979 81.9176 159.233 80.7422 160.133C79.3222 161.22 77.7002 162.051 76.4195 163.3C74.4767 165.192 73.4835 167.939 73.4503 170.652C73.4226 172.879 73.9294 176.438 75.6188 178.072C77.2099 179.612 79.8045 180.711 81.9096 181.259C84.1375 181.839 86.7107 181.988 88.8388 180.967C90.9646 179.947 93.3358 178.997 95.0917 177.341C99.7589 172.939 101.032 165.797 101.426 159.694C101.49 158.7 104.048 156.912 104.752 156.261C105.826 155.27 106.988 154.271 107.734 152.996C109.057 150.734 108.435 147.802 106.863 145.622Z" fill="black"/>
<path d="M125.393 302.75C123.71 319.134 121.299 335.421 118.882 351.957C114.847 351.754 113.417 348.334 112.77 344.118C110.373 328.501 109.9 309.74 108.246 293.949C107.239 284.336 100.264 230.161 115.79 230.947C121.479 231.234 124.917 237.406 126.169 242.963C127.497 248.86 127.64 254.952 127.66 260.996C127.708 275.118 126.81 288.968 125.393 302.75Z" fill="white" stroke="#222221" stroke-width="0.5" stroke-miterlimit="10"/>
<path d="M87.7584 306.286C91.499 295.133 95.0084 283.901 98.2825 272.601C99.9433 266.869 102.047 257.258 103.475 251.463C104.524 247.206 105.222 245.97 104.872 241.588C104.668 239.039 103.952 236.436 102.268 234.513C99.7437 231.631 95.3552 230.827 91.7073 231.997C88.0593 233.167 85.1353 236.034 83.2036 239.342C81.2711 242.65 80.2281 246.395 79.3671 250.127C76.5651 262.28 76.8145 274.417 75.1173 286.651C73.3796 299.181 70.5498 311.522 68.5088 324C67.465 330.383 67.1228 338.431 66.1645 344.827C65.862 346.845 65.7265 347.605 68.4067 348.276C70.8951 348.899 71.6507 349.008 72.5457 347.241C78.9157 334.665 83.2773 319.651 87.7584 306.286Z" fill="white" stroke="#222221" stroke-width="0.5" stroke-miterlimit="10"/>
<path d="M86.7943 255.447C93.303 255.85 99.833 256.168 106.352 256.27C112.013 256.36 117.688 256.186 123.316 255.494C125.864 255.18 128.385 254.74 130.877 254.185C130.471 251.716 129.937 249.274 129.824 248.381C128.738 239.745 127.378 231.149 125.747 222.611C124.966 218.523 124.119 214.432 122.738 210.526C121.652 207.452 120.173 204.42 117.791 202.329C115.826 200.605 113.03 199.517 110.054 199.04C105.867 198.368 101.325 198.904 98.238 200.568C94.6819 202.487 91.8822 205.694 89.5576 209.138C80.7205 222.229 78.1109 238.595 74.6348 254.401C78.6779 254.862 82.7345 255.196 86.7943 255.447Z" fill="#DEA600" stroke="black" stroke-width="0.5" stroke-miterlimit="10"/>
<mask id="mask3_4674_7557" style="mask-type:luminance" maskUnits="userSpaceOnUse" x="74" y="198" width="57" height="59">
<path d="M86.7943 255.447C93.303 255.85 99.833 256.168 106.352 256.27C112.013 256.36 117.688 256.186 123.316 255.494C125.864 255.18 128.385 254.74 130.877 254.185C130.471 251.716 129.937 249.274 129.824 248.381C128.738 239.745 127.378 231.149 125.747 222.611C124.966 218.523 124.119 214.432 122.738 210.526C121.652 207.452 120.173 204.42 117.791 202.329C115.826 200.605 113.03 199.517 110.054 199.04C105.867 198.368 101.325 198.904 98.238 200.568C94.6819 202.487 91.8822 205.694 89.5576 209.138C80.7205 222.229 78.1109 238.595 74.6348 254.401C78.6779 254.862 82.7345 255.196 86.7943 255.447Z" fill="white"/>
</mask>
<g mask="url(#mask3_4674_7557)">
<path d="M112.042 237.037C112.624 238.238 114.267 238.357 115.596 238.235C117.873 238.024 120.131 237.602 122.33 236.974C125.258 236.138 130.14 234.417 130.932 231.007C131.551 228.347 129.863 227.251 127.514 227.189C124.055 227.096 109.75 232.305 112.042 237.037Z" fill="#050504"/>
<path d="M86.6679 228.851C87.3665 228.364 88.1015 227.929 88.9259 227.739C90.0197 227.488 91.3209 227.785 91.9205 228.733C92.8337 230.176 91.7003 232.015 90.5788 233.302C88.9893 235.127 87.3213 236.885 85.5829 238.568C84.8535 239.275 84.0924 239.981 83.1665 240.396C81.3299 241.22 77.7746 242.212 76.0639 240.885C71.7261 237.521 84.0401 230.783 85.9939 229.339C86.2157 229.175 86.4398 229.011 86.6679 228.851Z" fill="#050504"/>
<path d="M100.132 220.543C99.9147 221.276 99.6977 222.009 99.4799 222.74C98.9571 224.499 98.432 226.271 98.2744 228.098C98.1929 229.04 98.2166 230.021 98.6039 230.884C98.9904 231.746 99.8077 232.467 100.752 232.509C102.372 232.581 103.398 230.844 104.047 229.358C105.66 225.663 108.486 219.702 106.231 215.695C104.454 212.539 102.085 213.972 101.192 216.976C100.839 218.166 100.486 219.355 100.132 220.543Z" fill="#050504"/>
<path d="M101.442 241.893C102.976 241.611 104.732 241.488 105.922 242.496C106.193 242.725 106.429 243.023 106.48 243.374C106.516 243.628 106.452 243.887 106.362 244.127C105.711 245.852 103.847 246.742 102.151 247.464C100.176 248.304 87.6736 253.247 88.0657 248.258C88.3492 244.637 98.7371 242.391 101.442 241.893Z" fill="#050504"/>
<path d="M117.834 246.44C118.103 245.927 118.453 245.395 119.004 245.221C119.723 244.994 120.483 245.47 120.971 246.045C122.166 247.449 122.425 249.437 122.261 251.273C122.096 253.11 121.564 254.898 121.383 256.734C121.209 258.502 121.518 262.771 119.196 263.503C117.236 264.12 116.637 262.213 116.253 260.582C115.262 256.373 115.833 250.264 117.834 246.44Z" fill="#050504"/>
<path d="M112.974 219.295C113.073 220.251 113.488 221.308 114.398 221.622C115.232 221.909 116.133 221.453 116.851 220.94C119.644 218.944 127.991 207.783 123.781 204.817C119.618 201.882 112.613 215.786 112.974 219.295Z" fill="#050504"/>
<path d="M80.0711 214.429C83.228 213.877 86.4515 213.702 89.6495 213.908C90.6388 213.972 91.6549 214.08 92.5301 214.545C93.4052 215.01 94.1156 215.914 94.0729 216.904C94.0317 217.854 93.311 218.667 92.4619 219.094C91.6129 219.521 90.6451 219.633 89.7002 219.74C86.2693 220.126 82.7386 220.504 79.409 219.589C78.7793 219.415 78.141 219.185 77.6713 218.732C75.5892 216.726 78.1925 214.758 80.0711 214.429Z" fill="#050504"/>
</g>
<path d="M136.357 185.521C133.456 185.695 130.508 185.596 127.535 185.197C122.156 184.475 115.652 183.189 113.433 177.42C112.381 174.683 113.384 171.021 115.894 169.338C118.297 167.727 121.49 168.633 124.304 169.31C129.951 170.67 135.952 170.955 141.745 170.983C148.225 171.014 155.027 170.2 160.85 167.175C163.442 165.83 165.942 164.309 168.33 162.628C170.457 161.13 172.342 159.266 174.543 157.883C176.167 156.862 178.012 156.193 179.914 155.938C181.082 155.781 182.47 155.873 183.149 156.836C183.953 157.975 183.239 159.588 182.25 160.57C180.432 162.375 177.855 163.166 175.748 164.624C174.148 165.731 172.845 167.204 171.478 168.588C161.996 178.186 149.66 184.723 136.357 185.521Z" fill="white" stroke="#222221" stroke-width="0.5" stroke-miterlimit="10"/>
<path d="M104.305 164.76C104.294 164.852 104.305 164.947 104.328 165.037C104.38 165.012 104.434 164.989 104.489 164.968L104.305 164.76Z" fill="#522E97"/>
<path d="M85.5293 207.277C87.301 207.571 89.0537 207.832 90.8436 207.993C94.7624 208.345 98.6504 208.346 102.579 208.382C105.313 208.407 108.047 208.544 110.782 208.532C115.128 208.511 120.04 208.274 123.979 206.178C122.52 199.315 121.062 192.452 119.603 185.589C119.909 185.843 124.529 189.049 124.5 189.172C124.5 189.172 127.119 168.949 125.738 168.48C125.087 168.259 124.449 167.987 123.812 167.73C119.229 165.887 114.338 164.817 109.405 164.558C104.898 164.322 99.6372 164.026 95.2234 165.028C86.848 166.93 86.608 174.587 86.3554 181.949C86.2643 184.595 86.1851 187.241 86.1114 189.888C86.0077 193.63 85.9174 197.372 85.8271 201.115C85.8176 201.556 85.8833 205.462 85.5293 207.277Z" fill="#7696EA" stroke="black" stroke-width="0.5" stroke-miterlimit="10"/>
<path d="M104.975 162.521C104.944 162.243 104.919 161.967 104.906 161.694C104.884 161.273 104.88 160.826 105.094 160.464C105.322 160.079 105.749 159.867 106.11 159.601C107.357 158.684 107.614 157.118 107.781 155.676C107.968 154.061 107.816 152.385 107.38 150.821C106.901 149.105 105.959 147.409 104.479 146.363C103.247 145.492 101.695 145.218 100.303 145.879C99.4977 146.262 98.8364 146.894 98.305 147.6C97.6856 148.424 96.8065 149.756 96.698 150.8C96.6204 151.551 96.5555 152.303 96.5056 153.055C96.2204 157.375 96.3107 161.973 97.8076 166.09C98.4959 167.984 99.7021 170.409 101.791 171.069C103.316 171.55 104.575 170.572 105.107 169.176C105.91 167.07 105.225 164.725 104.975 162.521Z" fill="white" stroke="#222221" stroke-width="0.5" stroke-miterlimit="10"/>
<path d="M105.977 141.356C105.447 141.232 104.891 141.2 104.352 141.256C100.954 141.605 96.6965 145.141 94.7727 147.874C93.9918 148.983 93.2141 150.432 93.4968 151.841C93.6275 152.493 93.9609 153.027 94.4393 153.483C94.9256 153.945 96.4676 154.93 97.0703 154.534C97.384 154.329 97.3784 153.511 97.6604 153.202C98.1126 152.707 98.8563 152.686 99.3679 152.272C100.122 151.659 100.105 150.477 100.721 149.726C101.056 149.318 101.548 149.075 102.031 148.859C103.832 148.052 107.172 147.839 108.356 146.191C109.135 145.106 108.905 143.492 108.006 142.504C107.472 141.916 106.753 141.538 105.977 141.356Z" fill="black"/>
<path d="M99.7003 153.172C99.6148 152.741 99.4619 152.316 99.1934 151.968C98.9249 151.62 98.5321 151.355 98.0965 151.302C97.7433 151.258 97.3845 151.353 97.0637 151.507C95.8211 152.102 95.33 153.551 95.9431 154.785C96.1704 155.243 96.6947 155.577 97.1897 155.669C97.5801 155.742 97.9809 155.71 98.3769 155.677" fill="white"/>
<path d="M99.7003 153.172C99.6148 152.741 99.4619 152.316 99.1934 151.968C98.9249 151.62 98.5321 151.355 98.0965 151.302C97.7433 151.258 97.3845 151.353 97.0637 151.507C95.8211 152.102 95.33 153.551 95.9431 154.785C96.1704 155.243 96.6947 155.577 97.1897 155.669C97.5801 155.742 97.9809 155.71 98.3769 155.677" stroke="#222221" stroke-width="0.5" stroke-miterlimit="10"/>
<path d="M106.588 154.396L102.689 155.637C103.06 156.509 106.117 158.007 106.588 154.396Z" fill="white" stroke="#222221" stroke-width="0.5" stroke-miterlimit="10"/>
<path d="M105.525 159.756C104.729 159.958 103.924 159.986 103.113 159.95C103.421 160.328 103.663 160.747 103.97 161.116C104.316 161.532 104.734 161.852 104.961 162.35C104.944 161.998 104.925 161.647 104.941 161.294C104.955 160.994 104.989 160.685 105.123 160.417C105.312 160.042 105.674 159.787 106.044 159.591C106.057 159.585 106.07 159.577 106.082 159.57C105.9 159.64 105.716 159.708 105.525 159.756Z" fill="black"/>
<path d="M105.48 152.471L113.676 153.712V149.987L105.48 151.229V152.471Z" fill="black"/>
<path d="M198.608 138.222V138.229C198.559 138.23 198.51 138.231 198.461 138.232L198.608 138.222Z" fill="#467A7C"/>
<path d="M195.377 164.432L198.607 164.809C197.439 164.786 196.369 164.65 195.377 164.432Z" fill="#467A7C"/>
<path d="M195.378 164.432L113.003 154.814C111.58 154.648 110.508 153.443 110.508 152.01C110.508 150.592 111.561 149.394 112.968 149.211L196.953 138.343C189.679 139.211 186.687 145.663 186.687 152.406C186.687 158.601 189.521 163.143 195.378 164.432Z" fill="#F65E59" stroke="black" stroke-width="0.5" stroke-miterlimit="10"/>
<path d="M198.979 164.192C205.981 164.192 211.656 158.517 211.656 151.516C211.656 144.514 205.981 138.839 198.979 138.839C191.978 138.839 186.303 144.514 186.303 151.516C186.303 158.517 191.978 164.192 198.979 164.192Z" fill="#9DD1C9" stroke="black" stroke-width="3" stroke-miterlimit="10"/>
<path d="M198.452 158.562C200.143 158.562 201.827 157.992 203.252 156.908C205.144 155.469 206.274 153.344 206.351 151.077C206.405 149.459 205.926 147.818 205.02 146.466C204.782 146.111 204.292 146.036 203.964 146.31L203.924 146.344C203.639 146.583 203.592 146.995 203.799 147.303C204.529 148.396 204.915 149.721 204.871 151.027C204.809 152.847 203.893 154.561 202.356 155.73C200.974 156.78 199.303 157.24 197.685 157.032C197.319 156.986 196.972 157.21 196.886 157.569L196.873 157.622C196.774 158.037 197.059 158.444 197.483 158.498C197.806 158.541 198.129 158.562 198.452 158.562Z" fill="white"/>
<mask id="mask4_4674_7557" style="mask-type:luminance" maskUnits="userSpaceOnUse" x="106" y="138" width="87" height="27">
<path d="M106.227 149.988L192.478 138.851V164.18L112.186 154.458L106.227 149.988Z" fill="white"/>
</mask>
<g mask="url(#mask4_4674_7557)">
<path d="M180.355 164.18V163.435C173.782 163.435 168.435 158.087 168.435 151.514C168.435 144.941 173.782 139.594 180.355 139.594V138.849C173.371 138.849 167.689 144.53 167.689 151.514C167.69 158.499 173.371 164.18 180.355 164.18Z" fill="black"/>
<path d="M161.356 161.945V161.2C156.016 161.2 151.671 156.855 151.671 151.515C151.671 146.174 156.016 141.829 161.356 141.829V141.084C155.605 141.084 150.926 145.763 150.926 151.514C150.927 157.266 155.605 161.945 161.356 161.945Z" fill="black"/>
<path d="M127.087 157.475V156.73C124.212 156.73 121.871 154.39 121.871 151.514C121.871 148.639 124.211 146.299 127.087 146.299V145.554C123.801 145.554 121.127 148.227 121.127 151.514C121.127 154.801 123.801 157.475 127.087 157.475Z" fill="black"/>
<path d="M143.106 159.71V158.964C138.998 158.964 135.655 155.622 135.655 151.514C135.655 147.406 138.998 144.064 143.106 144.064V143.318C138.587 143.318 134.91 146.995 134.91 151.513C134.91 156.034 138.587 159.71 143.106 159.71Z" fill="black"/>
</g>
<path d="M87.9293 178.91C87.7257 177.044 88.2722 175.142 89.9251 173.4C93.421 169.717 96.3751 171.145 100.225 172.835C102.152 173.681 104.159 174.543 106.263 174.488C108.699 174.425 110.966 173.113 112.682 171.384C115.16 168.888 116.901 165.532 118.664 162.511C120.49 159.384 122.316 156.257 124.142 153.129C125.586 150.656 126.699 147.658 128.933 145.84C130.854 144.279 134.691 142.299 136.693 144.852C138.284 146.88 136.313 149.256 134.522 150.478C131.039 152.853 130.536 157.149 129.67 160.964C128.526 166.002 127.113 171.021 124.734 175.632C119.483 185.814 108.557 193.052 96.9058 188.787C92.8333 187.297 88.3973 183.201 87.9293 178.91Z" fill="white" stroke="#222221" stroke-width="0.5" stroke-miterlimit="10"/>
<path d="M94.147 165.286C85.1784 167.126 79.3612 173.893 81.1606 181.935C82.2733 186.909 85.5419 190.958 89.7799 193.603C90.1625 193.841 96.6695 183.571 97.2485 182.578C97.6271 181.929 102.81 172.462 102.81 172.462C102.81 172.462 101.318 171.929 100.571 171.581C98.6543 170.686 97.2247 169.27 95.552 167.974" fill="#7696EA"/>
<path d="M94.147 165.286C85.1784 167.126 79.3612 173.893 81.1606 181.935C82.2733 186.909 85.5419 190.958 89.7799 193.603C90.1625 193.841 96.6695 183.571 97.2485 182.578C97.6271 181.929 102.81 172.462 102.81 172.462C102.81 172.462 101.318 171.929 100.571 171.581C98.6543 170.686 97.2247 169.27 95.552 167.974" stroke="black" stroke-width="0.5" stroke-miterlimit="10"/>
<path d="M97.4219 152.665C97.8107 152.726 98.2281 152.802 98.5045 153.081C98.8388 153.418 98.8673 153.943 98.8752 154.418" fill="white"/>
<path d="M97.4219 152.665C97.8107 152.726 98.2281 152.802 98.5045 153.081C98.8388 153.418 98.8673 153.943 98.8752 154.418" stroke="#222221" stroke-width="0.5" stroke-miterlimit="10"/>
<path d="M137.603 353.853C137.218 353.523 136.734 353.347 136.262 353.176C133.121 352.045 129.937 351.047 126.815 349.862C124.564 349.007 122.116 348.299 120.618 346.269C120.547 346.173 120.485 346.089 120.428 346.015C117.774 346.371 115.023 346.392 112.605 345.418C112.434 348.986 112.295 352.572 112.771 356.111C112.789 356.244 112.816 356.392 112.926 356.47C113.012 356.531 113.127 356.531 113.233 356.527C113.285 356.526 113.337 356.525 113.389 356.523C115.723 356.469 118.047 356.594 120.384 356.545C122.796 356.493 125.206 356.367 127.619 356.367C129.813 356.367 132.173 356.683 134.32 356.544C135.409 356.473 139.619 355.578 137.603 353.853Z" fill="black"/>
<path d="M86.1336 359.404C85.6909 358.645 84.9765 358.089 84.2629 357.577C82.2449 356.126 80.0915 354.857 78.1788 353.27C76.2661 351.682 74.5697 349.715 73.8228 347.344C73.7325 347.058 73.6525 346.759 73.4656 346.523C73.4007 346.442 73.3135 346.374 73.2169 346.313C71.7961 346.746 70.3594 346.355 69.0146 345.598C67.878 344.957 66.7732 344.007 65.5456 343.464C65.2779 344.279 65.2557 345.099 65.1235 345.934C64.973 346.889 64.695 347.841 64.4534 348.777C64.3283 349.261 62.8488 354.37 62.9922 354.424C63.1886 354.5 63.3842 354.575 63.5807 354.649C67.9968 356.328 72.5025 357.845 77.0003 359.407C79.0738 360.127 81.2011 361.2 83.2745 361.771C83.9216 361.949 85.5238 362.355 86.1186 361.977C86.8639 361.505 86.4718 359.984 86.1336 359.404Z" fill="black"/>
<path d="M332.839 245.082C332.79 246.469 333.131 247.942 333.546 249.083C333.993 250.311 334.731 251.515 335.9 252.098C336.756 252.524 337.745 252.571 338.7 252.56C341.499 252.528 344.03 251.711 344.901 248.823C345.659 246.309 345.829 241.788 342.737 240.777C341.395 240.338 339.811 240.772 338.88 241.834C337.746 240.832 335.947 240.674 334.656 241.464C333.372 242.248 332.889 243.618 332.839 245.082Z" fill="#F65E59" stroke="black" stroke-width="0.5" stroke-miterlimit="10"/>
<path d="M338.871 241.922C338.681 240.262 338.958 238.55 339.66 237.034" stroke="black" stroke-width="0.5" stroke-miterlimit="10"/>
<path d="M335.846 246.387C336.793 246.387 337.56 245.463 337.56 244.324C337.56 243.184 336.793 242.261 335.846 242.261C334.899 242.261 334.131 243.184 334.131 244.324C334.131 245.463 334.899 246.387 335.846 246.387Z" fill="#DEA600" stroke="black" stroke-width="0.5" stroke-miterlimit="10"/>
</g>
<defs>
<clipPath id="clip0_4674_7557">
<rect width="396" height="396" fill="white"/>
</clipPath>
</defs>
</svg>
